<svg xmlns="http://www.w3.org/2000/svg" xmlns:xlink="http://www.w3.org/1999/xlink" x="0" y="0" width="588" height="155" style="
        width:588px;
        height:155px;
        background: #FFF;
        fill: none;
">
        <svg xmlns="http://www.w3.org/2000/svg"/>
        
        <svg xmlns="http://www.w3.org/2000/svg" class="role-diagram-draw-area"><g class="shapes-region" style="stroke: black; fill: none;"><g class="composite-shape" data-amt="diagram/shapes/plot" transform="matrix(1,0,0,1,-4.499999999999943,6)"><g><g/><g><g class="test-xti" style="font-family: Asana-Math, Asana;"><line x1="0" y1="133.1948681119428" x2="583" y2="133.1948681119428" fill="none" stroke="rgb(50,50,50)" stroke-opacity="1" stroke-width="1"/><line x1="66.7308879445982" y1="129.1948681119428" x2="66.7308879445982" y2="137.1948681119428" fill="none" stroke="rgb(50,50,50)" stroke-opacity="1" stroke-width="1"/><line x1="110.3022119118668" y1="129.1948681119428" x2="110.3022119118668" y2="137.1948681119428" fill="none" stroke="rgb(50,50,50)" stroke-opacity="1" stroke-width="1"/><line x1="153.8735358791354" y1="129.1948681119428" x2="153.8735358791354" y2="137.1948681119428" fill="none" stroke="rgb(50,50,50)" stroke-opacity="1" stroke-width="1"/><line x1="197.44485984640403" y1="129.1948681119428" x2="197.44485984640403" y2="137.1948681119428" fill="none" stroke="rgb(50,50,50)" stroke-opacity="1" stroke-width="1"/><line x1="241.01618381367265" y1="129.1948681119428" x2="241.01618381367265" y2="137.1948681119428" fill="none" stroke="rgb(50,50,50)" stroke-opacity="1" stroke-width="1"/><line x1="284.5875077809413" y1="129.1948681119428" x2="284.5875077809413" y2="137.1948681119428" fill="none" stroke="rgb(50,50,50)" stroke-opacity="1" stroke-width="1"/><line x1="328.15883174820993" y1="129.1948681119428" x2="328.15883174820993" y2="137.1948681119428" fill="none" stroke="rgb(50,50,50)" stroke-opacity="1" stroke-width="1"/><line x1="371.73015571547853" y1="129.1948681119428" x2="371.73015571547853" y2="137.1948681119428" fill="none" stroke="rgb(50,50,50)" stroke-opacity="1" stroke-width="1"/><line x1="415.30147968274713" y1="129.1948681119428" x2="415.30147968274713" y2="137.1948681119428" fill="none" stroke="rgb(50,50,50)" stroke-opacity="1" stroke-width="1"/><line x1="458.8728036500158" y1="129.1948681119428" x2="458.8728036500158" y2="137.1948681119428" fill="none" stroke="rgb(50,50,50)" stroke-opacity="1" stroke-width="1"/><line x1="502.4441276172844" y1="129.1948681119428" x2="502.4441276172844" y2="137.1948681119428" fill="none" stroke="rgb(50,50,50)" stroke-opacity="1" stroke-width="1"/><line x1="546.015451584553" y1="129.1948681119428" x2="546.015451584553" y2="137.1948681119428" fill="none" stroke="rgb(50,50,50)" stroke-opacity="1" stroke-width="1"/><path d="M578,129.59486811194282 L586,133.1948681119428 L578,136.7948681119428 Z" stroke="none" stroke-width="1" fill="rgb(50,50,50)" fill-opacity="1"/></g><g class="test-yti" style="font-family: Asana-Math, Asana;"><line x1="23.159563977329583" y1="4" x2="23.159563977329583" y2="141" fill="none" stroke="rgb(50,50,50)" stroke-opacity="1" stroke-width="1"/><line x1="19.159563977329583" y1="24.266558193771246" x2="27.159563977329583" y2="24.266558193771246" fill="none" stroke="rgb(50,50,50)" stroke-opacity="1" stroke-width="1"/><path d="M19.55956397732958,9 L23.159563977329583,1 L26.759563977329584,9 Z" stroke="none" stroke-width="1" fill="rgb(50,50,50)" fill-opacity="1"/></g><g class="test-plot-expression"><defs><clipPath id="cpjde3aako2"><rect x="1" y="1" width="585" height="139"/></clipPath></defs><g clip-path="url(#cpjde3aako2)"><path d=" M0.00,133.19 L0.53,133.19 L1.05,133.19 L1.58,133.19 L2.10,133.19 L2.63,133.19 L3.15,133.19 L3.68,133.19 L4.20,133.19 L4.73,133.19 L5.26,133.19 L5.78,133.19 L6.31,133.19 L6.83,133.19 L7.36,133.19 L7.88,133.19 L8.41,133.19 L8.93,133.19 L9.46,133.19 L9.99,133.19 L10.51,133.19 L11.04,133.19 L11.56,133.19 L12.09,133.19 L12.61,133.19 L13.14,133.19 L13.66,133.19 L14.19,133.19 L14.72,133.19 L15.24,133.19 L15.77,133.19 L16.29,133.19 L16.82,133.19 L17.34,133.19 L17.87,133.19 L18.40,133.19 L18.92,133.19 L19.45,133.19 L19.97,133.19 L20.50,133.19 L21.02,133.19 L21.55,133.19 L22.07,133.19 L22.60,133.19 L23.13,133.19 L23.65,133.19 L24.18,133.19 L24.70,133.19 L25.23,133.19 L25.75,133.19 L26.28,133.19 L26.80,133.19 L27.33,133.19 L27.86,133.19 L28.38,133.19 L28.91,133.19 L29.43,133.19 L29.96,133.19 L30.48,133.19 L31.01,133.19 L31.53,133.19 L32.06,133.19 L32.59,133.19 L33.11,133.19 L33.64,133.19 L34.16,133.19 L34.69,133.19 L35.21,133.19 L35.74,133.19 L36.26,133.19 L36.79,133.19 L37.32,133.19 L37.84,133.19 L38.37,133.19 L38.89,133.19 L39.42,133.19 L39.94,133.19 L40.47,133.19 L40.99,133.19 L41.52,133.19 L42.05,133.19 L42.57,133.19 L43.10,133.19 L43.62,133.19 L44.15,133.19 L44.67,133.19 L45.20,133.19 L45.72,133.19 L46.25,133.19 L46.78,133.19 L47.30,133.19 L47.83,133.19 L48.35,133.19 L48.88,133.19 L49.40,133.19 L49.93,133.19 L50.46,133.19 L50.98,133.19 L51.51,133.19 L52.03,133.19 L52.56,133.19 L53.08,133.19 L53.61,133.19 L54.13,133.19 L54.66,133.19 L55.19,133.19 L55.71,133.19 L56.24,133.19 L56.76,133.19 L57.29,133.19 L57.81,133.19 L58.34,133.19 L58.86,133.19 L59.39,133.19 L59.92,133.19 L60.44,133.19 L60.97,133.19 L61.49,133.19 L62.02,133.19 L62.54,133.19 L63.07,133.19 L63.59,133.19 L64.12,133.19 L64.65,133.19 L65.17,133.19 L65.70,133.19 L66.22,133.19 L66.75,133.19 L67.27,133.19 L67.80,133.19 L68.32,133.19 L68.85,133.19 L69.38,133.19 L69.90,133.19 L70.43,133.19 L70.95,133.19 L71.48,133.19 L72.00,133.19 L72.53,133.19 L73.05,133.19 L73.58,133.19 L74.11,133.19 L74.63,133.19 L75.16,133.19 L75.68,133.19 L76.21,133.19 L76.73,133.19 L77.26,133.19 L77.78,133.19 L78.31,133.19 L78.84,133.19 L79.36,133.19 L79.89,133.19 L80.41,133.19 L80.94,133.19 L81.46,133.19 L81.99,133.19 L82.51,133.19 L83.04,133.19 L83.57,133.19 L84.09,133.19 L84.62,133.19 L85.14,133.19 L85.67,133.19 L86.19,133.19 L86.72,133.19 L87.25,133.19 L87.77,133.19 L88.30,133.19 L88.82,133.19 L89.35,133.19 L89.87,133.19 L90.40,133.19 L90.92,133.19 L91.45,133.19 L91.98,133.19 L92.50,133.19 L93.03,133.19 L93.55,133.19 L94.08,133.19 L94.60,133.19 L95.13,133.19 L95.65,133.19 L96.18,133.19 L96.71,133.18 L97.23,133.18 L97.76,133.18 L98.28,133.18 L98.81,133.18 L99.33,133.18 L99.86,133.18 L100.38,133.18 L100.91,133.18 L101.44,133.18 L101.96,133.18 L102.49,133.18 L103.01,133.18 L103.54,133.18 L104.06,133.17 L104.59,133.17 L105.11,133.17 L105.64,133.17 L106.17,133.17 L106.69,133.17 L107.22,133.17 L107.74,133.17 L108.27,133.16 L108.79,133.16 L109.32,133.16 L109.84,133.16 L110.37,133.16 L110.90,133.16 L111.42,133.15 L111.95,133.15 L112.47,133.15 L113.00,133.15 L113.52,133.15 L114.05,133.14 L114.57,133.14 L115.10,133.14 L115.63,133.14 L116.15,133.13 L116.68,133.13 L117.20,133.13 L117.73,133.12 L118.25,133.12 L118.78,133.12 L119.31,133.11 L119.83,133.11 L120.36,133.11 L120.88,133.10 L121.41,133.10 L121.93,133.09 L122.46,133.09 L122.98,133.08 L123.51,133.08 L124.04,133.07 L124.56,133.07 L125.09,133.06 L125.61,133.05 L126.14,133.05 L126.66,133.04 L127.19,133.04 L127.71,133.03 L128.24,133.02 L128.77,133.01 L129.29,133.00 L129.82,133.00 L130.34,132.99 L130.87,132.98 L131.39,132.97 L131.92,132.96 L132.44,132.95 L132.97,132.94 L133.50,132.93 L134.02,132.92 L134.55,132.91 L135.07,132.89 L135.60,132.88 L136.12,132.87 L136.65,132.85 L137.17,132.84 L137.70,132.82 L138.23,132.81 L138.75,132.79 L139.28,132.78 L139.80,132.76 L140.33,132.74 L140.85,132.72 L141.38,132.70 L141.90,132.68 L142.43,132.66 L142.96,132.64 L143.48,132.62 L144.01,132.60 L144.53,132.57 L145.06,132.55 L145.58,132.52 L146.11,132.50 L146.63,132.47 L147.16,132.44 L147.69,132.41 L148.21,132.38 L148.74,132.35 L149.26,132.32 L149.79,132.29 L150.31,132.25 L150.84,132.22 L151.37,132.18 L151.89,132.14 L152.42,132.10 L152.94,132.06 L153.47,132.02 L153.99,131.97 L154.52,131.93 L155.04,131.88 L155.57,131.84 L156.10,131.79 L156.62,131.74 L157.15,131.68 L157.67,131.63 L158.20,131.57 L158.72,131.52 L159.25,131.46 L159.77,131.39 L160.30,131.33 L160.83,131.27 L161.35,131.20 L161.88,131.13 L162.40,131.06 L162.93,130.99 L163.45,130.91 L163.98,130.83 L164.50,130.75 L165.03,130.67 L165.56,130.59 L166.08,130.50 L166.61,130.41 L167.13,130.32 L167.66,130.22 L168.18,130.12 L168.71,130.02 L169.23,129.92 L169.76,129.81 L170.29,129.71 L170.81,129.59 L171.34,129.48 L171.86,129.36 L172.39,129.24 L172.91,129.11 L173.44,128.99 L173.96,128.86 L174.49,128.72 L175.02,128.58 L175.54,128.44 L176.07,128.30 L176.59,128.15 L177.12,127.99 L177.64,127.84 L178.17,127.68 L178.69,127.51 L179.22,127.34 L179.75,127.17 L180.27,126.99 L180.80,126.81 L181.32,126.63 L181.85,126.44 L182.37,126.24 L182.90,126.04 L183.42,125.84 L183.95,125.63 L184.48,125.42 L185.00,125.20 L185.53,124.98 L186.05,124.75 L186.58,124.52 L187.10,124.28 L187.63,124.04 L188.16,123.79 L188.68,123.53 L189.21,123.27 L189.73,123.01 L190.26,122.74 L190.78,122.46 L191.31,122.18 L191.83,121.89 L192.36,121.60 L192.89,121.30 L193.41,121.00 L193.94,120.69 L194.46,120.37 L194.99,120.05 L195.51,119.72 L196.04,119.38 L196.56,119.04 L197.09,118.69 L197.62,118.34 L198.14,117.98 L198.67,117.61 L199.19,117.23 L199.72,116.85 L200.24,116.47 L200.77,116.07 L201.29,115.67 L201.82,115.26 L202.35,114.85 L202.87,114.43 L203.40,114.00 L203.92,113.57 L204.45,113.12 L204.97,112.68 L205.50,112.22 L206.02,111.76 L206.55,111.29 L207.08,110.81 L207.60,110.33 L208.13,109.84 L208.65,109.34 L209.18,108.83 L209.70,108.32 L210.23,107.80 L210.75,107.28 L211.28,106.74 L211.81,106.20 L212.33,105.65 L212.86,105.10 L213.38,104.54 L213.91,103.97 L214.43,103.40 L214.96,102.81 L215.48,102.22 L216.01,101.63 L216.54,101.03 L217.06,100.42 L217.59,99.80 L218.11,99.18 L218.64,98.55 L219.16,97.91 L219.69,97.27 L220.22,96.62 L220.74,95.97 L221.27,95.31 L221.79,94.64 L222.32,93.96 L222.84,93.29 L223.37,92.60 L223.89,91.91 L224.42,91.21 L224.95,90.51 L225.47,89.80 L226.00,89.09 L226.52,88.37 L227.05,87.65 L227.57,86.92 L228.10,86.19 L228.62,85.45 L229.15,84.71 L229.68,83.96 L230.20,83.21 L230.73,82.46 L231.25,81.70 L231.78,80.94 L232.30,80.17 L232.83,79.40 L233.35,78.63 L233.88,77.85 L234.41,77.08 L234.93,76.30 L235.46,75.51 L235.98,74.73 L236.51,73.94 L237.03,73.15 L237.56,72.36 L238.08,71.57 L238.61,70.77 L239.14,69.98 L239.66,69.18 L240.19,68.38 L240.71,67.59 L241.24,66.79 L241.76,65.99 L242.29,65.20 L242.81,64.40 L243.34,63.61 L243.87,62.81 L244.39,62.02 L244.92,61.23 L245.44,60.44 L245.97,59.65 L246.49,58.87 L247.02,58.08 L247.54,57.30 L248.07,56.53 L248.60,55.75 L249.12,54.98 L249.65,54.22 L250.17,53.46 L250.70,52.70 L251.22,51.95 L251.75,51.20 L252.28,50.45 L252.80,49.72 L253.33,48.99 L253.85,48.26 L254.38,47.54 L254.90,46.83 L255.43,46.12 L255.95,45.42 L256.48,44.73 L257.01,44.04 L257.53,43.37 L258.06,42.70 L258.58,42.04 L259.11,41.39 L259.63,40.74 L260.16,40.11 L260.68,39.48 L261.21,38.87 L261.74,38.26 L262.26,37.67 L262.79,37.08 L263.31,36.51 L263.84,35.94 L264.36,35.39 L264.89,34.85 L265.41,34.32 L265.94,33.80 L266.47,33.29 L266.99,32.80 L267.52,32.31 L268.04,31.84 L268.57,31.39 L269.09,30.94 L269.62,30.51 L270.14,30.09 L270.67,29.68 L271.20,29.29 L271.72,28.91 L272.25,28.55 L272.77,28.20 L273.30,27.86 L273.82,27.54 L274.35,27.23 L274.87,26.94 L275.40,26.66 L275.93,26.40 L276.45,26.15 L276.98,25.92 L277.50,25.70 L278.03,25.49 L278.55,25.31 L279.08,25.13 L279.60,24.98 L280.13,24.83 L280.66,24.71 L281.18,24.60 L281.71,24.50 L282.23,24.43 L282.76,24.36 L283.28,24.32 L283.81,24.28 L284.33,24.27 L284.86,24.27 L285.39,24.28 L285.91,24.32 L286.44,24.36 L286.96,24.43 L287.49,24.51 L288.01,24.60 L288.54,24.71 L289.07,24.84 L289.59,24.98 L290.12,25.14 L290.64,25.31 L291.17,25.50 L291.69,25.71 L292.22,25.92 L292.74,26.16 L293.27,26.41 L293.80,26.67 L294.32,26.95 L294.85,27.24 L295.37,27.55 L295.90,27.88 L296.42,28.21 L296.95,28.56 L297.47,28.93 L298.00,29.31 L298.53,29.70 L299.05,30.11 L299.58,30.53 L300.10,30.96 L300.63,31.40 L301.15,31.86 L301.68,32.33 L302.20,32.82 L302.73,33.31 L303.26,33.82 L303.78,34.34 L304.31,34.87 L304.83,35.41 L305.36,35.97 L305.88,36.53 L306.41,37.11 L306.93,37.69 L307.46,38.29 L307.99,38.89 L308.51,39.51 L309.04,40.13 L309.56,40.77 L310.09,41.41 L310.61,42.06 L311.14,42.73 L311.66,43.39 L312.19,44.07 L312.72,44.76 L313.24,45.45 L313.77,46.15 L314.29,46.85 L314.82,47.57 L315.34,48.29 L315.87,49.01 L316.39,49.75 L316.92,50.48 L317.45,51.23 L317.97,51.97 L318.50,52.73 L319.02,53.49 L319.55,54.25 L320.07,55.01 L320.60,55.78 L321.13,56.56 L321.65,57.33 L322.18,58.11 L322.70,58.90 L323.23,59.68 L323.75,60.47 L324.28,61.26 L324.80,62.05 L325.33,62.84 L325.86,63.64 L326.38,64.43 L326.91,65.23 L327.43,66.02 L327.96,66.82 L328.48,67.62 L329.01,68.41 L329.53,69.21 L330.06,70.01 L330.59,70.80 L331.11,71.60 L331.64,72.39 L332.16,73.18 L332.69,73.97 L333.21,74.76 L333.74,75.54 L334.26,76.33 L334.79,77.11 L335.32,77.89 L335.84,78.66 L336.37,79.43 L336.89,80.20 L337.42,80.97 L337.94,81.73 L338.47,82.49 L338.99,83.24 L339.52,83.99 L340.05,84.74 L340.57,85.48 L341.10,86.22 L341.62,86.95 L342.15,87.68 L342.67,88.40 L343.20,89.12 L343.72,89.83 L344.25,90.54 L344.78,91.24 L345.30,91.94 L345.83,92.63 L346.35,93.31 L346.88,93.99 L347.40,94.66 L347.93,95.33 L348.45,95.99 L348.98,96.65 L349.51,97.29 L350.03,97.94 L350.56,98.57 L351.08,99.20 L351.61,99.82 L352.13,100.44 L352.66,101.05 L353.19,101.65 L353.71,102.25 L354.24,102.84 L354.76,103.42 L355.29,103.99 L355.81,104.56 L356.34,105.12 L356.86,105.68 L357.39,106.22 L357.92,106.76 L358.44,107.30 L358.97,107.82 L359.49,108.34 L360.02,108.85 L360.54,109.36 L361.07,109.86 L361.59,110.35 L362.12,110.83 L362.65,111.31 L363.17,111.78 L363.70,112.24 L364.22,112.69 L364.75,113.14 L365.27,113.58 L365.80,114.02 L366.32,114.45 L366.85,114.87 L367.38,115.28 L367.90,115.69 L368.43,116.09 L368.95,116.48 L369.48,116.87 L370.00,117.25 L370.53,117.62 L371.05,117.99 L371.58,118.35 L372.11,118.71 L372.63,119.05 L373.16,119.39 L373.68,119.73 L374.21,120.06 L374.73,120.38 L375.26,120.70 L375.78,121.01 L376.31,121.31 L376.84,121.61 L377.36,121.91 L377.89,122.19 L378.41,122.47 L378.94,122.75 L379.46,123.02 L379.99,123.28 L380.51,123.54 L381.04,123.80 L381.57,124.05 L382.09,124.29 L382.62,124.53 L383.14,124.76 L383.67,124.99 L384.19,125.21 L384.72,125.43 L385.24,125.64 L385.77,125.85 L386.30,126.05 L386.82,126.25 L387.35,126.44 L387.87,126.63 L388.40,126.82 L388.92,127.00 L389.45,127.18 L389.98,127.35 L390.50,127.52 L391.03,127.68 L391.55,127.84 L392.08,128.00 L392.60,128.15 L393.13,128.30 L393.65,128.45 L394.18,128.59 L394.71,128.73 L395.23,128.86 L395.76,128.99 L396.28,129.12 L396.81,129.24 L397.33,129.37 L397.86,129.48 L398.38,129.60 L398.91,129.71 L399.44,129.82 L399.96,129.92 L400.49,130.03 L401.01,130.13 L401.54,130.23 L402.06,130.32 L402.59,130.41 L403.11,130.50 L403.64,130.59 L404.17,130.67 L404.69,130.76 L405.22,130.84 L405.74,130.91 L406.27,130.99 L406.79,131.06 L407.32,131.13 L407.84,131.20 L408.37,131.27 L408.90,131.33 L409.42,131.40 L409.95,131.46 L410.47,131.52 L411.00,131.58 L411.52,131.63 L412.05,131.69 L412.57,131.74 L413.10,131.79 L413.63,131.84 L414.15,131.89 L414.68,131.93 L415.20,131.98 L415.73,132.02 L416.25,132.06 L416.78,132.10 L417.30,132.14 L417.83,132.18 L418.36,132.22 L418.88,132.25 L419.41,132.29 L419.93,132.32 L420.46,132.35 L420.98,132.38 L421.51,132.41 L422.04,132.44 L422.56,132.47 L423.09,132.50 L423.61,132.52 L424.14,132.55 L424.66,132.57 L425.19,132.60 L425.71,132.62 L426.24,132.64 L426.77,132.66 L427.29,132.68 L427.82,132.70 L428.34,132.72 L428.87,132.74 L429.39,132.76 L429.92,132.78 L430.44,132.79 L430.97,132.81 L431.50,132.82 L432.02,132.84 L432.55,132.85 L433.07,132.87 L433.60,132.88 L434.12,132.89 L434.65,132.91 L435.17,132.92 L435.70,132.93 L436.23,132.94 L436.75,132.95 L437.28,132.96 L437.80,132.97 L438.33,132.98 L438.85,132.99 L439.38,133.00 L439.90,133.01 L440.43,133.01 L440.96,133.02 L441.48,133.03 L442.01,133.04 L442.53,133.04 L443.06,133.05 L443.58,133.06 L444.11,133.06 L444.63,133.07 L445.16,133.07 L445.69,133.08 L446.21,133.08 L446.74,133.09 L447.26,133.09 L447.79,133.10 L448.31,133.10 L448.84,133.11 L449.36,133.11 L449.89,133.11 L450.42,133.12 L450.94,133.12 L451.47,133.12 L451.99,133.13 L452.52,133.13 L453.04,133.13 L453.57,133.14 L454.10,133.14 L454.62,133.14 L455.15,133.14 L455.67,133.15 L456.20,133.15 L456.72,133.15 L457.25,133.15 L457.77,133.15 L458.30,133.16 L458.83,133.16 L459.35,133.16 L459.88,133.16 L460.40,133.16 L460.93,133.16 L461.45,133.17 L461.98,133.17 L462.50,133.17 L463.03,133.17 L463.56,133.17 L464.08,133.17 L464.61,133.17 L465.13,133.17 L465.66,133.18 L466.18,133.18 L466.71,133.18 L467.23,133.18 L467.76,133.18 L468.29,133.18 L468.81,133.18 L469.34,133.18 L469.86,133.18 L470.39,133.18 L470.91,133.18 L471.44,133.18 L471.96,133.18 L472.49,133.18 L473.02,133.19 L473.54,133.19 L474.07,133.19 L474.59,133.19 L475.12,133.19 L475.64,133.19 L476.17,133.19 L476.69,133.19 L477.22,133.19 L477.75,133.19 L478.27,133.19 L478.80,133.19 L479.32,133.19 L479.85,133.19 L480.37,133.19 L480.90,133.19 L481.42,133.19 L481.95,133.19 L482.48,133.19 L483.00,133.19 L483.53,133.19 L484.05,133.19 L484.58,133.19 L485.10,133.19 L485.63,133.19 L486.15,133.19 L486.68,133.19 L487.21,133.19 L487.73,133.19 L488.26,133.19 L488.78,133.19 L489.31,133.19 L489.83,133.19 L490.36,133.19 L490.89,133.19 L491.41,133.19 L491.94,133.19 L492.46,133.19 L492.99,133.19 L493.51,133.19 L494.04,133.19 L494.56,133.19 L495.09,133.19 L495.62,133.19 L496.14,133.19 L496.67,133.19 L497.19,133.19 L497.72,133.19 L498.24,133.19 L498.77,133.19 L499.29,133.19 L499.82,133.19 L500.35,133.19 L500.87,133.19 L501.40,133.19 L501.92,133.19 L502.45,133.19 L502.97,133.19 L503.50,133.19 L504.02,133.19 L504.55,133.19 L505.08,133.19 L505.60,133.19 L506.13,133.19 L506.65,133.19 L507.18,133.19 L507.70,133.19 L508.23,133.19 L508.75,133.19 L509.28,133.19 L509.81,133.19 L510.33,133.19 L510.86,133.19 L511.38,133.19 L511.91,133.19 L512.43,133.19 L512.96,133.19 L513.48,133.19 L514.01,133.19 L514.54,133.19 L515.06,133.19 L515.59,133.19 L516.11,133.19 L516.64,133.19 L517.16,133.19 L517.69,133.19 L518.21,133.19 L518.74,133.19 L519.27,133.19 L519.79,133.19 L520.32,133.19 L520.84,133.19 L521.37,133.19 L521.89,133.19 L522.42,133.19 L522.95,133.19 L523.47,133.19 L524.00,133.19 L524.52,133.19 L525.05,133.19 L525.57,133.19 L526.10,133.19 L526.62,133.19 L527.15,133.19 L527.68,133.19 L528.20,133.19 L528.73,133.19 L529.25,133.19 L529.78,133.19 L530.30,133.19 L530.83,133.19 L531.35,133.19 L531.88,133.19 L532.41,133.19 L532.93,133.19 L533.46,133.19 L533.98,133.19 L534.51,133.19 L535.03,133.19 L535.56,133.19 L536.08,133.19 L536.61,133.19 L537.14,133.19 L537.66,133.19 L538.19,133.19 L538.71,133.19 L539.24,133.19 L539.76,133.19 L540.29,133.19 L540.81,133.19 L541.34,133.19 L541.87,133.19 L542.39,133.19 L542.92,133.19 L543.44,133.19 L543.97,133.19 L544.49,133.19 L545.02,133.19 L545.54,133.19 L546.07,133.19 L546.60,133.19 L547.12,133.19 L547.65,133.19 L548.17,133.19 L548.70,133.19 L549.22,133.19 L549.75,133.19 L550.27,133.19 L550.80,133.19 L551.33,133.19 L551.85,133.19 L552.38,133.19 L552.90,133.19 L553.43,133.19 L553.95,133.19 L554.48,133.19 L555.01,133.19 L555.53,133.19 L556.06,133.19 L556.58,133.19 L557.11,133.19 L557.63,133.19 L558.16,133.19 L558.68,133.19 L559.21,133.19 L559.74,133.19 L560.26,133.19 L560.79,133.19 L561.31,133.19 L561.84,133.19 L562.36,133.19 L562.89,133.19 L563.41,133.19 L563.94,133.19 L564.47,133.19 L564.99,133.19 L565.52,133.19 L566.04,133.19 L566.57,133.19 L567.09,133.19 L567.62,133.19 L568.14,133.19 L568.67,133.19 L569.20,133.19 L569.72,133.19 L570.25,133.19 L570.77,133.19 L571.30,133.19 L571.82,133.19 L572.35,133.19 L572.87,133.19 L573.40,133.19 L573.93,133.19 L574.45,133.19 L574.98,133.19 L575.50,133.19 L576.03,133.19 L576.55,133.19 L577.08,133.19 L577.60,133.19" style="stroke-width: 2; stroke: rgb(106, 166, 37); stroke-opacity: 1;"/></g></g><g class="test-xtl" style="font-family: &quot;Open Sans&quot;, verdana, arial, sans-serif;"/><g class="test-ytl" style="font-family: &quot;Open Sans&quot;, verdana, arial, sans-serif;"/><rect class="real" x="1" y="1" width="585" height="139" style="fill: transparent; stroke: none;"/></g></g></g><g/></g><g/><g/><g/></svg>
        <svg xmlns="http://www.w3.org/2000/svg" xmlns:xlink="http://www.w3.org/1999/xlink" width="586" height="153" style="width:586px;height:153px;font-family:Asana-Math, Asana;background:#FFF;"></svg>
</svg>
