<svg xmlns="http://www.w3.org/2000/svg" xmlns:xlink="http://www.w3.org/1999/xlink" x="0" y="0" width="324" height="184" style="
        width:324px;
        height:184px;
        background: transparent;
        fill: none;
">
        
        
        <svg xmlns="http://www.w3.org/2000/svg" class="role-diagram-draw-area"><g class="shapes-region" style="stroke: black; fill: none;"><g class="composite-shape" data-amt="diagram/shapes/plot" transform="matrix(1,0,0,1,4.5,7)"><g><g/><g><g class="test-xti" style="font-family: Asana-Math, Asana;"><line x1="0" y1="158.84106272084142" x2="308.5" y2="158.84106272084142" fill="none" stroke="rgb(50,50,50)" stroke-opacity="1" stroke-width="1"/><line x1="138.17308330054863" y1="154.84106272084142" x2="138.17308330054863" y2="162.84106272084142" fill="none" stroke="rgb(50,50,50)" stroke-opacity="1" stroke-width="1"/><line x1="238.17308330054865" y1="154.84106272084142" x2="238.17308330054865" y2="162.84106272084142" fill="none" stroke="rgb(50,50,50)" stroke-opacity="1" stroke-width="1"/><path d="M303.5,155.24106272084143 L311.5,158.84106272084142 L303.5,162.44106272084142 Z" stroke="none" stroke-width="1" fill="rgb(50,50,50)" fill-opacity="1"/></g><g class="test-yti" style="font-family: Asana-Math, Asana;"><line x1="38.173083300548626" y1="4" x2="38.173083300548626" y2="167" fill="none" stroke="rgb(50,50,50)" stroke-opacity="1" stroke-width="1"/><line x1="34.173083300548626" y1="58.84106272084142" x2="42.173083300548626" y2="58.84106272084142" fill="none" stroke="rgb(50,50,50)" stroke-opacity="1" stroke-width="1"/><path d="M34.573083300548625,9 L38.173083300548626,1 L41.77308330054863,9 Z" stroke="none" stroke-width="1" fill="rgb(50,50,50)" fill-opacity="1"/></g><g class="test-plot-expression"><defs><clipPath id="cpjxbm3mu5g"><rect x="1" y="1" width="310.5" height="165"/></clipPath></defs><g clip-path="url(#cpjxbm3mu5g)"><path d=" M0.00,158.83 L0.50,158.83 L1.00,158.83 L1.50,158.83 L2.00,158.83 L2.50,158.83 L3.00,158.83 L3.51,158.83 L4.01,158.83 L4.51,158.83 L5.01,158.83 L5.51,158.83 L6.01,158.82 L6.51,158.82 L7.01,158.82 L7.51,158.82 L8.01,158.82 L8.51,158.82 L9.01,158.82 L9.52,158.82 L10.02,158.81 L10.52,158.81 L11.02,158.81 L11.52,158.81 L12.02,158.81 L12.52,158.80 L13.02,158.80 L13.52,158.80 L14.02,158.80 L14.52,158.79 L15.02,158.79 L15.52,158.79 L16.03,158.78 L16.53,158.78 L17.03,158.78 L17.53,158.77 L18.03,158.77 L18.53,158.76 L19.03,158.76 L19.53,158.75 L20.03,158.75 L20.53,158.74 L21.03,158.74 L21.53,158.73 L22.04,158.72 L22.54,158.72 L23.04,158.71 L23.54,158.70 L24.04,158.69 L24.54,158.68 L25.04,158.67 L25.54,158.67 L26.04,158.65 L26.54,158.64 L27.04,158.63 L27.54,158.62 L28.04,158.61 L28.55,158.60 L29.05,158.58 L29.55,158.57 L30.05,158.55 L30.55,158.54 L31.05,158.52 L31.55,158.50 L32.05,158.48 L32.55,158.46 L33.05,158.44 L33.55,158.42 L34.05,158.40 L34.56,158.37 L35.06,158.35 L35.56,158.32 L36.06,158.30 L36.56,158.27 L37.06,158.24 L37.56,158.21 L38.06,158.17 L38.56,158.14 L39.06,158.10 L39.56,158.07 L40.06,158.03 L40.56,157.99 L41.07,157.95 L41.57,157.90 L42.07,157.85 L42.57,157.81 L43.07,157.75 L43.57,157.70 L44.07,157.65 L44.57,157.59 L45.07,157.53 L45.57,157.47 L46.07,157.40 L46.57,157.33 L47.08,157.26 L47.58,157.19 L48.08,157.11 L48.58,157.03 L49.08,156.95 L49.58,156.87 L50.08,156.78 L50.58,156.68 L51.08,156.59 L51.58,156.49 L52.08,156.38 L52.58,156.27 L53.08,156.16 L53.59,156.05 L54.09,155.93 L54.59,155.80 L55.09,155.67 L55.59,155.54 L56.09,155.40 L56.59,155.25 L57.09,155.10 L57.59,154.95 L58.09,154.79 L58.59,154.63 L59.09,154.45 L59.60,154.28 L60.10,154.10 L60.60,153.91 L61.10,153.71 L61.60,153.51 L62.10,153.30 L62.60,153.09 L63.10,152.87 L63.60,152.64 L64.10,152.40 L64.60,152.16 L65.10,151.91 L65.60,151.66 L66.11,151.39 L66.61,151.12 L67.11,150.84 L67.61,150.55 L68.11,150.25 L68.61,149.94 L69.11,149.63 L69.61,149.31 L70.11,148.98 L70.61,148.63 L71.11,148.29 L71.61,147.93 L72.12,147.56 L72.62,147.18 L73.12,146.79 L73.62,146.39 L74.12,145.99 L74.62,145.57 L75.12,145.14 L75.62,144.70 L76.12,144.26 L76.62,143.80 L77.12,143.33 L77.62,142.85 L78.12,142.36 L78.63,141.86 L79.13,141.35 L79.63,140.82 L80.13,140.29 L80.63,139.74 L81.13,139.19 L81.63,138.62 L82.13,138.04 L82.63,137.45 L83.13,136.85 L83.63,136.24 L84.13,135.62 L84.64,134.99 L85.14,134.34 L85.64,133.68 L86.14,133.02 L86.64,132.34 L87.14,131.65 L87.64,130.95 L88.14,130.24 L88.64,129.51 L89.14,128.78 L89.64,128.04 L90.14,127.28 L90.65,126.52 L91.15,125.75 L91.65,124.96 L92.15,124.17 L92.65,123.36 L93.15,122.55 L93.65,121.73 L94.15,120.89 L94.65,120.05 L95.15,119.20 L95.65,118.35 L96.15,117.48 L96.65,116.60 L97.16,115.72 L97.66,114.83 L98.16,113.94 L98.66,113.03 L99.16,112.12 L99.66,111.21 L100.16,110.29 L100.66,109.36 L101.16,108.43 L101.66,107.49 L102.16,106.55 L102.66,105.61 L103.17,104.66 L103.67,103.71 L104.17,102.75 L104.67,101.80 L105.17,100.84 L105.67,99.88 L106.17,98.92 L106.67,97.96 L107.17,97.00 L107.67,96.04 L108.17,95.08 L108.67,94.12 L109.17,93.17 L109.68,92.21 L110.18,91.26 L110.68,90.32 L111.18,89.38 L111.68,88.44 L112.18,87.51 L112.68,86.58 L113.18,85.66 L113.68,84.75 L114.18,83.85 L114.68,82.95 L115.18,82.06 L115.69,81.18 L116.19,80.31 L116.69,79.45 L117.19,78.61 L117.69,77.77 L118.19,76.94 L118.69,76.13 L119.19,75.33 L119.69,74.54 L120.19,73.77 L120.69,73.01 L121.19,72.26 L121.69,71.54 L122.20,70.82 L122.70,70.13 L123.20,69.45 L123.70,68.79 L124.20,68.14 L124.70,67.52 L125.20,66.91 L125.70,66.32 L126.20,65.76 L126.70,65.21 L127.20,64.68 L127.70,64.17 L128.21,63.69 L128.71,63.22 L129.21,62.78 L129.71,62.36 L130.21,61.96 L130.71,61.59 L131.21,61.24 L131.71,60.91 L132.21,60.60 L132.71,60.32 L133.21,60.06 L133.71,59.83 L134.21,59.62 L134.72,59.44 L135.22,59.28 L135.72,59.14 L136.22,59.03 L136.72,58.95 L137.22,58.89 L137.72,58.85 L138.22,58.84 L138.72,58.86 L139.22,58.90 L139.72,58.96 L140.22,59.05 L140.73,59.17 L141.23,59.31 L141.73,59.47 L142.23,59.66 L142.73,59.87 L143.23,60.11 L143.73,60.37 L144.23,60.66 L144.73,60.97 L145.23,61.30 L145.73,61.66 L146.23,62.04 L146.73,62.44 L147.24,62.86 L147.74,63.31 L148.24,63.78 L148.74,64.27 L149.24,64.78 L149.74,65.31 L150.24,65.86 L150.74,66.44 L151.24,67.03 L151.74,67.64 L152.24,68.27 L152.74,68.91 L153.25,69.58 L153.75,70.26 L154.25,70.96 L154.75,71.68 L155.25,72.41 L155.75,73.15 L156.25,73.91 L156.75,74.69 L157.25,75.48 L157.75,76.28 L158.25,77.10 L158.75,77.93 L159.25,78.77 L159.76,79.62 L160.26,80.48 L160.76,81.35 L161.26,82.23 L161.76,83.12 L162.26,84.02 L162.76,84.93 L163.26,85.84 L163.76,86.76 L164.26,87.69 L164.76,88.62 L165.26,89.56 L165.77,90.50 L166.27,91.45 L166.77,92.40 L167.27,93.35 L167.77,94.30 L168.27,95.26 L168.77,96.22 L169.27,97.18 L169.77,98.14 L170.27,99.10 L170.77,100.06 L171.27,101.02 L171.77,101.98 L172.28,102.93 L172.78,103.89 L173.28,104.84 L173.78,105.79 L174.28,106.73 L174.78,107.67 L175.28,108.61 L175.78,109.54 L176.28,110.46 L176.78,111.38 L177.28,112.30 L177.78,113.21 L178.29,114.11 L178.79,115.00 L179.29,115.89 L179.79,116.77 L180.29,117.65 L180.79,118.51 L181.29,119.37 L181.79,120.22 L182.29,121.05 L182.79,121.89 L183.29,122.71 L183.79,123.52 L184.29,124.32 L184.80,125.11 L185.30,125.90 L185.80,126.67 L186.30,127.43 L186.80,128.18 L187.30,128.92 L187.80,129.65 L188.30,130.37 L188.80,131.08 L189.30,131.78 L189.80,132.47 L190.30,133.15 L190.81,133.81 L191.31,134.46 L191.81,135.11 L192.31,135.74 L192.81,136.36 L193.31,136.97 L193.81,137.57 L194.31,138.16 L194.81,138.73 L195.31,139.30 L195.81,139.85 L196.31,140.39 L196.81,140.92 L197.32,141.44 L197.82,141.95 L198.32,142.45 L198.82,142.94 L199.32,143.42 L199.82,143.89 L200.32,144.34 L200.82,144.79 L201.32,145.22 L201.82,145.65 L202.32,146.07 L202.82,146.47 L203.33,146.87 L203.83,147.25 L204.33,147.63 L204.83,148.00 L205.33,148.35 L205.83,148.70 L206.33,149.04 L206.83,149.37 L207.33,149.69 L207.83,150.00 L208.33,150.31 L208.83,150.60 L209.33,150.89 L209.84,151.17 L210.34,151.44 L210.84,151.71 L211.34,151.96 L211.84,152.21 L212.34,152.45 L212.84,152.68 L213.34,152.91 L213.84,153.13 L214.34,153.34 L214.84,153.55 L215.34,153.75 L215.85,153.94 L216.35,154.13 L216.85,154.31 L217.35,154.49 L217.85,154.66 L218.35,154.82 L218.85,154.98 L219.35,155.13 L219.85,155.28 L220.35,155.43 L220.85,155.56 L221.35,155.70 L221.85,155.83 L222.36,155.95 L222.86,156.07 L223.36,156.18 L223.86,156.30 L224.36,156.40 L224.86,156.51 L225.36,156.61 L225.86,156.70 L226.36,156.79 L226.86,156.88 L227.36,156.97 L227.86,157.05 L228.37,157.13 L228.87,157.20 L229.37,157.28 L229.87,157.35 L230.37,157.41 L230.87,157.48 L231.37,157.54 L231.87,157.60 L232.37,157.66 L232.87,157.71 L233.37,157.76 L233.87,157.81 L234.37,157.86 L234.88,157.91 L235.38,157.95 L235.88,158.00 L236.38,158.04 L236.88,158.07 L237.38,158.11 L237.88,158.15 L238.38,158.18 L238.88,158.21 L239.38,158.24 L239.88,158.27 L240.38,158.30 L240.89,158.33 L241.39,158.35 L241.89,158.38 L242.39,158.40 L242.89,158.43 L243.39,158.45 L243.89,158.47 L244.39,158.49 L244.89,158.50 L245.39,158.52 L245.89,158.54 L246.39,158.55 L246.90,158.57 L247.40,158.58 L247.90,158.60 L248.40,158.61 L248.90,158.62 L249.40,158.64 L249.90,158.65 L250.40,158.66 L250.90,158.67 L251.40,158.68 L251.90,158.69 L252.40,158.69 L252.90,158.70 L253.41,158.71 L253.91,158.72 L254.41,158.72 L254.91,158.73 L255.41,158.74 L255.91,158.74 L256.41,158.75 L256.91,158.75 L257.41,158.76 L257.91,158.76 L258.41,158.77 L258.91,158.77 L259.42,158.78 L259.92,158.78 L260.42,158.78 L260.92,158.79 L261.42,158.79 L261.92,158.79 L262.42,158.80 L262.92,158.80 L263.42,158.80 L263.92,158.80 L264.42,158.81 L264.92,158.81 L265.42,158.81 L265.93,158.81 L266.43,158.81 L266.93,158.82 L267.43,158.82 L267.93,158.82 L268.43,158.82 L268.93,158.82 L269.43,158.82 L269.93,158.82 L270.43,158.83 L270.93,158.83 L271.43,158.83 L271.94,158.83 L272.44,158.83 L272.94,158.83 L273.44,158.83 L273.94,158.83 L274.44,158.83 L274.94,158.83 L275.44,158.83 L275.94,158.83 L276.44,158.83 L276.94,158.83 L277.44,158.83 L277.94,158.84 L278.45,158.84 L278.95,158.84 L279.45,158.84 L279.95,158.84 L280.45,158.84 L280.95,158.84 L281.45,158.84 L281.95,158.84 L282.45,158.84 L282.95,158.84 L283.45,158.84 L283.95,158.84 L284.46,158.84 L284.96,158.84 L285.46,158.84 L285.96,158.84 L286.46,158.84 L286.96,158.84 L287.46,158.84 L287.96,158.84 L288.46,158.84 L288.96,158.84 L289.46,158.84 L289.96,158.84 L290.46,158.84 L290.97,158.84 L291.47,158.84 L291.97,158.84 L292.47,158.84 L292.97,158.84 L293.47,158.84 L293.97,158.84 L294.47,158.84 L294.97,158.84 L295.47,158.84 L295.97,158.84 L296.47,158.84 L296.98,158.84 L297.48,158.84 L297.98,158.84 L298.48,158.84 L298.98,158.84 L299.48,158.84 L299.98,158.84 L300.48,158.84 L300.98,158.84 L301.48,158.84 L301.98,158.84 L302.48,158.84 L302.98,158.84 L303.49,158.84 L303.99,158.84 L304.49,158.84 L304.99,158.84 L305.49,158.84 L305.99,158.84 L306.49,158.84 L306.99,158.84 L307.49,158.84 L307.99,158.84 L308.49,158.84 L308.99,158.84 L309.50,158.84 L310.00,158.84 L310.50,158.84 L311.00,158.84 L311.50,158.84 L312.00,158.84 L312.50,158.84" style="stroke-width: 2; stroke: rgb(74, 144, 226); stroke-opacity: 1;"/></g></g><g class="test-xtl" style="font-family: &quot;Open Sans&quot;, verdana, arial, sans-serif;"/><g class="test-ytl" style="font-family: &quot;Open Sans&quot;, verdana, arial, sans-serif;"/><rect class="real" x="1" y="1" width="310.5" height="165" style="fill: transparent; stroke: none;"/></g></g></g><g/></g><g/><g/><g/></svg>
        <svg xmlns="http://www.w3.org/2000/svg" xmlns:xlink="http://www.w3.org/1999/xlink" width="322" height="182" style="width:322px;height:182px;font-family:Asana-Math, Asana;background:transparent;"></svg>
</svg>
