<svg xmlns="http://www.w3.org/2000/svg" xmlns:xlink="http://www.w3.org/1999/xlink" x="0" y="0" width="588" height="155" style="
        width:588px;
        height:155px;
        background: #FFF;
        fill: none;
">
        <svg xmlns="http://www.w3.org/2000/svg"/>
        
        <svg xmlns="http://www.w3.org/2000/svg" class="role-diagram-draw-area"><g class="shapes-region" style="stroke: black; fill: none;"><g class="composite-shape" data-amt="diagram/shapes/plot" transform="matrix(1,0,0,1,-4.499999999999943,6)"><g><g/><g><g class="test-xti" style="font-family: Asana-Math, Asana;"><line x1="0" y1="133.1948681119428" x2="583" y2="133.1948681119428" fill="none" stroke="rgb(50,50,50)" stroke-opacity="1" stroke-width="1"/><line x1="66.7308879445982" y1="129.1948681119428" x2="66.7308879445982" y2="137.1948681119428" fill="none" stroke="rgb(50,50,50)" stroke-opacity="1" stroke-width="1"/><line x1="110.3022119118668" y1="129.1948681119428" x2="110.3022119118668" y2="137.1948681119428" fill="none" stroke="rgb(50,50,50)" stroke-opacity="1" stroke-width="1"/><line x1="153.8735358791354" y1="129.1948681119428" x2="153.8735358791354" y2="137.1948681119428" fill="none" stroke="rgb(50,50,50)" stroke-opacity="1" stroke-width="1"/><line x1="197.44485984640403" y1="129.1948681119428" x2="197.44485984640403" y2="137.1948681119428" fill="none" stroke="rgb(50,50,50)" stroke-opacity="1" stroke-width="1"/><line x1="241.01618381367265" y1="129.1948681119428" x2="241.01618381367265" y2="137.1948681119428" fill="none" stroke="rgb(50,50,50)" stroke-opacity="1" stroke-width="1"/><line x1="284.5875077809413" y1="129.1948681119428" x2="284.5875077809413" y2="137.1948681119428" fill="none" stroke="rgb(50,50,50)" stroke-opacity="1" stroke-width="1"/><line x1="328.15883174820993" y1="129.1948681119428" x2="328.15883174820993" y2="137.1948681119428" fill="none" stroke="rgb(50,50,50)" stroke-opacity="1" stroke-width="1"/><line x1="371.73015571547853" y1="129.1948681119428" x2="371.73015571547853" y2="137.1948681119428" fill="none" stroke="rgb(50,50,50)" stroke-opacity="1" stroke-width="1"/><line x1="415.30147968274713" y1="129.1948681119428" x2="415.30147968274713" y2="137.1948681119428" fill="none" stroke="rgb(50,50,50)" stroke-opacity="1" stroke-width="1"/><line x1="458.8728036500158" y1="129.1948681119428" x2="458.8728036500158" y2="137.1948681119428" fill="none" stroke="rgb(50,50,50)" stroke-opacity="1" stroke-width="1"/><line x1="502.4441276172844" y1="129.1948681119428" x2="502.4441276172844" y2="137.1948681119428" fill="none" stroke="rgb(50,50,50)" stroke-opacity="1" stroke-width="1"/><line x1="546.015451584553" y1="129.1948681119428" x2="546.015451584553" y2="137.1948681119428" fill="none" stroke="rgb(50,50,50)" stroke-opacity="1" stroke-width="1"/><path d="M578,129.59486811194282 L586,133.1948681119428 L578,136.7948681119428 Z" stroke="none" stroke-width="1" fill="rgb(50,50,50)" fill-opacity="1"/></g><g class="test-yti" style="font-family: Asana-Math, Asana;"><line x1="23.159563977329583" y1="4" x2="23.159563977329583" y2="141" fill="none" stroke="rgb(50,50,50)" stroke-opacity="1" stroke-width="1"/><line x1="19.159563977329583" y1="24.266558193771246" x2="27.159563977329583" y2="24.266558193771246" fill="none" stroke="rgb(50,50,50)" stroke-opacity="1" stroke-width="1"/><path d="M19.55956397732958,9 L23.159563977329583,1 L26.759563977329584,9 Z" stroke="none" stroke-width="1" fill="rgb(50,50,50)" fill-opacity="1"/></g><g class="test-plot-expression"><defs><clipPath id="cpyczynegge"><rect x="1" y="1" width="585" height="139"/></clipPath></defs><g clip-path="url(#cpyczynegge)"><path d=" M0.00,133.19 L0.53,133.19 L1.07,133.19 L1.60,133.19 L2.14,133.19 L2.67,133.19 L3.20,133.19 L3.74,133.19 L4.27,133.19 L4.81,133.19 L5.34,133.19 L5.88,133.19 L6.41,133.19 L6.94,133.19 L7.48,133.19 L8.01,133.19 L8.55,133.19 L9.08,133.19 L9.61,133.19 L10.15,133.19 L10.68,133.19 L11.22,133.19 L11.75,133.19 L12.28,133.19 L12.82,133.19 L13.35,133.19 L13.89,133.19 L14.42,133.19 L14.96,133.19 L15.49,133.19 L16.02,133.19 L16.56,133.19 L17.09,133.19 L17.63,133.19 L18.16,133.19 L18.69,133.19 L19.23,133.19 L19.76,133.19 L20.30,133.19 L20.83,133.19 L21.36,133.19 L21.90,133.19 L22.43,133.19 L22.97,133.19 L23.50,133.19 L24.04,133.19 L24.57,133.19 L25.10,133.19 L25.64,133.19 L26.17,133.19 L26.71,133.19 L27.24,133.19 L27.77,133.19 L28.31,133.19 L28.84,133.19 L29.38,133.19 L29.91,133.19 L30.44,133.19 L30.98,133.19 L31.51,133.19 L32.05,133.19 L32.58,133.19 L33.12,133.19 L33.65,133.19 L34.18,133.19 L34.72,133.19 L35.25,133.19 L35.79,133.19 L36.32,133.19 L36.85,133.19 L37.39,133.19 L37.92,133.19 L38.46,133.19 L38.99,133.19 L39.53,133.19 L40.06,133.19 L40.59,133.19 L41.13,133.19 L41.66,133.19 L42.20,133.19 L42.73,133.19 L43.26,133.19 L43.80,133.19 L44.33,133.19 L44.87,133.19 L45.40,133.19 L45.93,133.19 L46.47,133.19 L47.00,133.19 L47.54,133.19 L48.07,133.19 L48.61,133.19 L49.14,133.19 L49.67,133.19 L50.21,133.19 L50.74,133.19 L51.28,133.19 L51.81,133.19 L52.34,133.19 L52.88,133.19 L53.41,133.19 L53.95,133.19 L54.48,133.19 L55.01,133.19 L55.55,133.19 L56.08,133.19 L56.62,133.19 L57.15,133.19 L57.69,133.19 L58.22,133.19 L58.75,133.19 L59.29,133.19 L59.82,133.19 L60.36,133.19 L60.89,133.19 L61.42,133.19 L61.96,133.19 L62.49,133.19 L63.03,133.19 L63.56,133.19 L64.09,133.19 L64.63,133.19 L65.16,133.19 L65.70,133.19 L66.23,133.19 L66.77,133.19 L67.30,133.19 L67.83,133.19 L68.37,133.19 L68.90,133.19 L69.44,133.19 L69.97,133.19 L70.50,133.19 L71.04,133.19 L71.57,133.19 L72.11,133.19 L72.64,133.19 L73.17,133.19 L73.71,133.19 L74.24,133.19 L74.78,133.18 L75.31,133.18 L75.85,133.18 L76.38,133.18 L76.91,133.18 L77.45,133.18 L77.98,133.18 L78.52,133.18 L79.05,133.18 L79.58,133.18 L80.12,133.18 L80.65,133.18 L81.19,133.18 L81.72,133.18 L82.25,133.18 L82.79,133.17 L83.32,133.17 L83.86,133.17 L84.39,133.17 L84.93,133.17 L85.46,133.17 L85.99,133.17 L86.53,133.17 L87.06,133.17 L87.60,133.16 L88.13,133.16 L88.66,133.16 L89.20,133.16 L89.73,133.16 L90.27,133.16 L90.80,133.15 L91.33,133.15 L91.87,133.15 L92.40,133.15 L92.94,133.15 L93.47,133.15 L94.01,133.14 L94.54,133.14 L95.07,133.14 L95.61,133.14 L96.14,133.13 L96.68,133.13 L97.21,133.13 L97.74,133.13 L98.28,133.12 L98.81,133.12 L99.35,133.12 L99.88,133.11 L100.41,133.11 L100.95,133.11 L101.48,133.10 L102.02,133.10 L102.55,133.09 L103.09,133.09 L103.62,133.09 L104.15,133.08 L104.69,133.08 L105.22,133.07 L105.76,133.07 L106.29,133.06 L106.82,133.06 L107.36,133.05 L107.89,133.04 L108.43,133.04 L108.96,133.03 L109.49,133.02 L110.03,133.02 L110.56,133.01 L111.10,133.00 L111.63,133.00 L112.17,132.99 L112.70,132.98 L113.23,132.97 L113.77,132.96 L114.30,132.95 L114.84,132.94 L115.37,132.93 L115.90,132.92 L116.44,132.91 L116.97,132.90 L117.51,132.89 L118.04,132.88 L118.58,132.87 L119.11,132.85 L119.64,132.84 L120.18,132.83 L120.71,132.81 L121.25,132.80 L121.78,132.79 L122.31,132.77 L122.85,132.75 L123.38,132.74 L123.92,132.72 L124.45,132.70 L124.98,132.69 L125.52,132.67 L126.05,132.65 L126.59,132.63 L127.12,132.61 L127.66,132.59 L128.19,132.57 L128.72,132.54 L129.26,132.52 L129.79,132.50 L130.33,132.47 L130.86,132.45 L131.39,132.42 L131.93,132.39 L132.46,132.36 L133.00,132.34 L133.53,132.31 L134.06,132.27 L134.60,132.24 L135.13,132.21 L135.67,132.18 L136.20,132.14 L136.74,132.11 L137.27,132.07 L137.80,132.03 L138.34,131.99 L138.87,131.95 L139.41,131.91 L139.94,131.87 L140.47,131.82 L141.01,131.78 L141.54,131.73 L142.08,131.69 L142.61,131.64 L143.14,131.59 L143.68,131.53 L144.21,131.48 L144.75,131.43 L145.28,131.37 L145.82,131.31 L146.35,131.25 L146.88,131.19 L147.42,131.13 L147.95,131.06 L148.49,131.00 L149.02,130.93 L149.55,130.86 L150.09,130.79 L150.62,130.71 L151.16,130.64 L151.69,130.56 L152.22,130.48 L152.76,130.40 L153.29,130.31 L153.83,130.23 L154.36,130.14 L154.90,130.05 L155.43,129.95 L155.96,129.86 L156.50,129.76 L157.03,129.66 L157.57,129.56 L158.10,129.45 L158.63,129.34 L159.17,129.23 L159.70,129.12 L160.24,129.01 L160.77,128.89 L161.30,128.76 L161.84,128.64 L162.37,128.51 L162.91,128.38 L163.44,128.25 L163.98,128.11 L164.51,127.97 L165.04,127.83 L165.58,127.69 L166.11,127.54 L166.65,127.38 L167.18,127.23 L167.71,127.07 L168.25,126.90 L168.78,126.74 L169.32,126.57 L169.85,126.39 L170.38,126.22 L170.92,126.04 L171.45,125.85 L171.99,125.66 L172.52,125.47 L173.06,125.27 L173.59,125.07 L174.12,124.87 L174.66,124.66 L175.19,124.44 L175.73,124.23 L176.26,124.00 L176.79,123.78 L177.33,123.55 L177.86,123.31 L178.40,123.07 L178.93,122.83 L179.46,122.58 L180.00,122.33 L180.53,122.07 L181.07,121.80 L181.60,121.54 L182.14,121.26 L182.67,120.99 L183.20,120.70 L183.74,120.42 L184.27,120.12 L184.81,119.83 L185.34,119.52 L185.87,119.22 L186.41,118.90 L186.94,118.58 L187.48,118.26 L188.01,117.93 L188.55,117.60 L189.08,117.26 L189.61,116.91 L190.15,116.56 L190.68,116.20 L191.22,115.84 L191.75,115.47 L192.28,115.10 L192.82,114.72 L193.35,114.34 L193.89,113.95 L194.42,113.55 L194.95,113.15 L195.49,112.74 L196.02,112.33 L196.56,111.91 L197.09,111.49 L197.63,111.06 L198.16,110.62 L198.69,110.18 L199.23,109.73 L199.76,109.28 L200.30,108.82 L200.83,108.35 L201.36,107.88 L201.90,107.40 L202.43,106.92 L202.97,106.43 L203.50,105.94 L204.03,105.44 L204.57,104.93 L205.10,104.42 L205.64,103.90 L206.17,103.38 L206.71,102.85 L207.24,102.31 L207.77,101.77 L208.31,101.23 L208.84,100.68 L209.38,100.12 L209.91,99.56 L210.44,98.99 L210.98,98.41 L211.51,97.84 L212.05,97.25 L212.58,96.66 L213.11,96.07 L213.65,95.47 L214.18,94.86 L214.72,94.25 L215.25,93.64 L215.79,93.02 L216.32,92.39 L216.85,91.76 L217.39,91.13 L217.92,90.49 L218.46,89.85 L218.99,89.20 L219.52,88.55 L220.06,87.89 L220.59,87.23 L221.13,86.57 L221.66,85.90 L222.19,85.23 L222.73,84.55 L223.26,83.88 L223.80,83.19 L224.33,82.51 L224.87,81.82 L225.40,81.13 L225.93,80.43 L226.47,79.73 L227.00,79.03 L227.54,78.33 L228.07,77.62 L228.60,76.91 L229.14,76.20 L229.67,75.49 L230.21,74.78 L230.74,74.06 L231.27,73.35 L231.81,72.63 L232.34,71.91 L232.88,71.18 L233.41,70.46 L233.95,69.74 L234.48,69.02 L235.01,68.29 L235.55,67.57 L236.08,66.84 L236.62,66.12 L237.15,65.40 L237.68,64.67 L238.22,63.95 L238.75,63.23 L239.29,62.50 L239.82,61.78 L240.35,61.07 L240.89,60.35 L241.42,59.63 L241.96,58.92 L242.49,58.21 L243.03,57.50 L243.56,56.79 L244.09,56.09 L244.63,55.39 L245.16,54.69 L245.70,53.99 L246.23,53.30 L246.76,52.61 L247.30,51.93 L247.83,51.25 L248.37,50.57 L248.90,49.90 L249.43,49.24 L249.97,48.57 L250.50,47.92 L251.04,47.27 L251.57,46.62 L252.11,45.98 L252.64,45.34 L253.17,44.72 L253.71,44.09 L254.24,43.48 L254.78,42.87 L255.31,42.26 L255.84,41.67 L256.38,41.08 L256.91,40.50 L257.45,39.93 L257.98,39.36 L258.52,38.80 L259.05,38.25 L259.58,37.71 L260.12,37.18 L260.65,36.65 L261.19,36.14 L261.72,35.63 L262.25,35.13 L262.79,34.64 L263.32,34.17 L263.86,33.70 L264.39,33.24 L264.92,32.79 L265.46,32.35 L265.99,31.92 L266.53,31.50 L267.06,31.09 L267.60,30.70 L268.13,30.31 L268.66,29.93 L269.20,29.57 L269.73,29.22 L270.27,28.87 L270.80,28.54 L271.33,28.22 L271.87,27.92 L272.40,27.62 L272.94,27.34 L273.47,27.07 L274.00,26.81 L274.54,26.56 L275.07,26.32 L275.61,26.10 L276.14,25.89 L276.68,25.69 L277.21,25.51 L277.74,25.34 L278.28,25.18 L278.81,25.03 L279.35,24.90 L279.88,24.77 L280.41,24.67 L280.95,24.57 L281.48,24.49 L282.02,24.42 L282.55,24.36 L283.08,24.32 L283.62,24.29 L284.15,24.27 L284.69,24.27 L285.22,24.28 L285.76,24.30 L286.29,24.33 L286.82,24.38 L287.36,24.44 L287.89,24.52 L288.43,24.60 L288.96,24.70 L289.49,24.82 L290.03,24.94 L290.56,25.08 L291.10,25.23 L291.63,25.40 L292.16,25.58 L292.70,25.77 L293.23,25.97 L293.77,26.18 L294.30,26.41 L294.84,26.65 L295.37,26.90 L295.90,27.17 L296.44,27.44 L296.97,27.73 L297.51,28.03 L298.04,28.34 L298.57,28.67 L299.11,29.00 L299.64,29.35 L300.18,29.70 L300.71,30.07 L301.24,30.45 L301.78,30.84 L302.31,31.24 L302.85,31.66 L303.38,32.08 L303.92,32.51 L304.45,32.95 L304.98,33.41 L305.52,33.87 L306.05,34.34 L306.59,34.83 L307.12,35.32 L307.65,35.82 L308.19,36.33 L308.72,36.85 L309.26,37.38 L309.79,37.91 L310.32,38.46 L310.86,39.01 L311.39,39.57 L311.93,40.14 L312.46,40.72 L313.00,41.30 L313.53,41.89 L314.06,42.49 L314.60,43.09 L315.13,43.71 L315.67,44.32 L316.20,44.95 L316.73,45.58 L317.27,46.22 L317.80,46.86 L318.34,47.51 L318.87,48.16 L319.40,48.82 L319.94,49.48 L320.47,50.15 L321.01,50.82 L321.54,51.50 L322.08,52.18 L322.61,52.87 L323.14,53.56 L323.68,54.25 L324.21,54.95 L324.75,55.65 L325.28,56.35 L325.81,57.05 L326.35,57.76 L326.88,58.47 L327.42,59.18 L327.95,59.90 L328.48,60.62 L329.02,61.33 L329.55,62.05 L330.09,62.77 L330.62,63.50 L331.16,64.22 L331.69,64.94 L332.22,65.66 L332.76,66.39 L333.29,67.11 L333.83,67.84 L334.36,68.56 L334.89,69.29 L335.43,70.01 L335.96,70.73 L336.50,71.45 L337.03,72.17 L337.57,72.89 L338.10,73.61 L338.63,74.33 L339.17,75.04 L339.70,75.76 L340.24,76.47 L340.77,77.18 L341.30,77.89 L341.84,78.59 L342.37,79.29 L342.91,79.99 L343.44,80.69 L343.97,81.38 L344.51,82.08 L345.04,82.76 L345.58,83.45 L346.11,84.13 L346.65,84.81 L347.18,85.48 L347.71,86.15 L348.25,86.82 L348.78,87.48 L349.32,88.14 L349.85,88.79 L350.38,89.44 L350.92,90.09 L351.45,90.73 L351.99,91.37 L352.52,92.00 L353.05,92.63 L353.59,93.25 L354.12,93.87 L354.66,94.48 L355.19,95.09 L355.73,95.69 L356.26,96.29 L356.79,96.88 L357.33,97.47 L357.86,98.05 L358.40,98.63 L358.93,99.20 L359.46,99.77 L360.00,100.33 L360.53,100.88 L361.07,101.43 L361.60,101.98 L362.13,102.51 L362.67,103.05 L363.20,103.57 L363.74,104.09 L364.27,104.61 L364.81,105.12 L365.34,105.62 L365.87,106.12 L366.41,106.61 L366.94,107.10 L367.48,107.58 L368.01,108.06 L368.54,108.53 L369.08,108.99 L369.61,109.45 L370.15,109.90 L370.68,110.34 L371.21,110.78 L371.75,111.22 L372.28,111.65 L372.82,112.07 L373.35,112.49 L373.89,112.90 L374.42,113.30 L374.95,113.70 L375.49,114.09 L376.02,114.48 L376.56,114.86 L377.09,115.24 L377.62,115.61 L378.16,115.98 L378.69,116.34 L379.23,116.69 L379.76,117.04 L380.29,117.38 L380.83,117.72 L381.36,118.05 L381.90,118.38 L382.43,118.70 L382.97,119.02 L383.50,119.33 L384.03,119.64 L384.57,119.94 L385.10,120.23 L385.64,120.52 L386.17,120.81 L386.70,121.09 L387.24,121.37 L387.77,121.64 L388.31,121.90 L388.84,122.16 L389.37,122.42 L389.91,122.67 L390.44,122.92 L390.98,123.16 L391.51,123.40 L392.05,123.63 L392.58,123.86 L393.11,124.09 L393.65,124.31 L394.18,124.52 L394.72,124.74 L395.25,124.94 L395.78,125.15 L396.32,125.35 L396.85,125.54 L397.39,125.73 L397.92,125.92 L398.45,126.10 L398.99,126.28 L399.52,126.46 L400.06,126.63 L400.59,126.80 L401.13,126.97 L401.66,127.13 L402.19,127.29 L402.73,127.44 L403.26,127.59 L403.80,127.74 L404.33,127.88 L404.86,128.03 L405.40,128.16 L405.93,128.30 L406.47,128.43 L407.00,128.56 L407.54,128.69 L408.07,128.81 L408.60,128.93 L409.14,129.05 L409.67,129.16 L410.21,129.28 L410.74,129.39 L411.27,129.49 L411.81,129.60 L412.34,129.70 L412.88,129.80 L413.41,129.89 L413.94,129.99 L414.48,130.08 L415.01,130.17 L415.55,130.26 L416.08,130.34 L416.62,130.43 L417.15,130.51 L417.68,130.59 L418.22,130.66 L418.75,130.74 L419.29,130.81 L419.82,130.88 L420.35,130.95 L420.89,131.02 L421.42,131.09 L421.96,131.15 L422.49,131.21 L423.02,131.27 L423.56,131.33 L424.09,131.39 L424.63,131.45 L425.16,131.50 L425.70,131.55 L426.23,131.61 L426.76,131.66 L427.30,131.70 L427.83,131.75 L428.37,131.80 L428.90,131.84 L429.43,131.88 L429.97,131.93 L430.50,131.97 L431.04,132.01 L431.57,132.05 L432.10,132.08 L432.64,132.12 L433.17,132.16 L433.71,132.19 L434.24,132.22 L434.78,132.25 L435.31,132.29 L435.84,132.32 L436.38,132.35 L436.91,132.37 L437.45,132.40 L437.98,132.43 L438.51,132.46 L439.05,132.48 L439.58,132.50 L440.12,132.53 L440.65,132.55 L441.18,132.57 L441.72,132.60 L442.25,132.62 L442.79,132.64 L443.32,132.66 L443.86,132.67 L444.39,132.69 L444.92,132.71 L445.46,132.73 L445.99,132.74 L446.53,132.76 L447.06,132.78 L447.59,132.79 L448.13,132.81 L448.66,132.82 L449.20,132.83 L449.73,132.85 L450.26,132.86 L450.80,132.87 L451.33,132.88 L451.87,132.90 L452.40,132.91 L452.94,132.92 L453.47,132.93 L454.00,132.94 L454.54,132.95 L455.07,132.96 L455.61,132.97 L456.14,132.97 L456.67,132.98 L457.21,132.99 L457.74,133.00 L458.28,133.01 L458.81,133.01 L459.34,133.02 L459.88,133.03 L460.41,133.03 L460.95,133.04 L461.48,133.05 L462.02,133.05 L462.55,133.06 L463.08,133.06 L463.62,133.07 L464.15,133.07 L464.69,133.08 L465.22,133.08 L465.75,133.09 L466.29,133.09 L466.82,133.10 L467.36,133.10 L467.89,133.10 L468.42,133.11 L468.96,133.11 L469.49,133.11 L470.03,133.12 L470.56,133.12 L471.10,133.12 L471.63,133.13 L472.16,133.13 L472.70,133.13 L473.23,133.13 L473.77,133.14 L474.30,133.14 L474.83,133.14 L475.37,133.14 L475.90,133.15 L476.44,133.15 L476.97,133.15 L477.51,133.15 L478.04,133.15 L478.57,133.16 L479.11,133.16 L479.64,133.16 L480.18,133.16 L480.71,133.16 L481.24,133.16 L481.78,133.16 L482.31,133.17 L482.85,133.17 L483.38,133.17 L483.91,133.17 L484.45,133.17 L484.98,133.17 L485.52,133.17 L486.05,133.17 L486.59,133.17 L487.12,133.18 L487.65,133.18 L488.19,133.18 L488.72,133.18 L489.26,133.18 L489.79,133.18 L490.32,133.18 L490.86,133.18 L491.39,133.18 L491.93,133.18 L492.46,133.18 L492.99,133.18 L493.53,133.18 L494.06,133.18 L494.60,133.18 L495.13,133.19 L495.67,133.19 L496.20,133.19 L496.73,133.19 L497.27,133.19 L497.80,133.19 L498.34,133.19 L498.87,133.19 L499.40,133.19 L499.94,133.19 L500.47,133.19 L501.01,133.19 L501.54,133.19 L502.07,133.19 L502.61,133.19 L503.14,133.19 L503.68,133.19 L504.21,133.19 L504.75,133.19 L505.28,133.19 L505.81,133.19 L506.35,133.19 L506.88,133.19 L507.42,133.19 L507.95,133.19 L508.48,133.19 L509.02,133.19 L509.55,133.19 L510.09,133.19 L510.62,133.19 L511.15,133.19 L511.69,133.19 L512.22,133.19 L512.76,133.19 L513.29,133.19 L513.83,133.19 L514.36,133.19 L514.89,133.19 L515.43,133.19 L515.96,133.19 L516.50,133.19 L517.03,133.19 L517.56,133.19 L518.10,133.19 L518.63,133.19 L519.17,133.19 L519.70,133.19 L520.23,133.19 L520.77,133.19 L521.30,133.19 L521.84,133.19 L522.37,133.19 L522.91,133.19 L523.44,133.19 L523.97,133.19 L524.51,133.19 L525.04,133.19 L525.58,133.19 L526.11,133.19 L526.64,133.19 L527.18,133.19 L527.71,133.19 L528.25,133.19 L528.78,133.19 L529.31,133.19 L529.85,133.19 L530.38,133.19 L530.92,133.19 L531.45,133.19 L531.99,133.19 L532.52,133.19 L533.05,133.19 L533.59,133.19 L534.12,133.19 L534.66,133.19 L535.19,133.19 L535.72,133.19 L536.26,133.19 L536.79,133.19 L537.33,133.19 L537.86,133.19 L538.39,133.19 L538.93,133.19 L539.46,133.19 L540.00,133.19 L540.53,133.19 L541.07,133.19 L541.60,133.19 L542.13,133.19 L542.67,133.19 L543.20,133.19 L543.74,133.19 L544.27,133.19 L544.80,133.19 L545.34,133.19 L545.87,133.19 L546.41,133.19 L546.94,133.19 L547.47,133.19 L548.01,133.19 L548.54,133.19 L549.08,133.19 L549.61,133.19 L550.15,133.19 L550.68,133.19 L551.21,133.19 L551.75,133.19 L552.28,133.19 L552.82,133.19 L553.35,133.19 L553.88,133.19 L554.42,133.19 L554.95,133.19 L555.49,133.19 L556.02,133.19 L556.56,133.19 L557.09,133.19 L557.62,133.19 L558.16,133.19 L558.69,133.19 L559.23,133.19 L559.76,133.19 L560.29,133.19 L560.83,133.19 L561.36,133.19 L561.90,133.19 L562.43,133.19 L562.96,133.19 L563.50,133.19 L564.03,133.19 L564.57,133.19 L565.10,133.19 L565.64,133.19 L566.17,133.19 L566.70,133.19 L567.24,133.19 L567.77,133.19 L568.31,133.19 L568.84,133.19 L569.37,133.19 L569.91,133.19 L570.44,133.19 L570.98,133.19 L571.51,133.19 L572.04,133.19 L572.58,133.19 L573.11,133.19 L573.65,133.19 L574.18,133.19 L574.72,133.19 L575.25,133.19 L575.78,133.19 L576.32,133.19 L576.85,133.19 L577.39,133.19 L577.92,133.19 L578.45,133.19 L578.99,133.19 L579.52,133.19 L580.06,133.19 L580.59,133.19 L581.12,133.19 L581.66,133.19 L582.19,133.19 L582.73,133.19 L583.26,133.19 L583.80,133.19 L584.33,133.19 L584.86,133.19 L585.40,133.19 L585.93,133.19 L586.47,133.19 L587.00,133.19" style="stroke-width: 2; stroke: rgb(106, 166, 37); stroke-opacity: 1;"/></g></g><g class="test-xtl" style="font-family: &quot;Open Sans&quot;, verdana, arial, sans-serif;"/><g class="test-ytl" style="font-family: &quot;Open Sans&quot;, verdana, arial, sans-serif;"/><rect class="real" x="1" y="1" width="585" height="139" style="fill: transparent; stroke: none;"/></g></g></g><g/></g><g/><g/><g/></svg>
        <svg xmlns="http://www.w3.org/2000/svg" xmlns:xlink="http://www.w3.org/1999/xlink" width="586" height="153" style="width:586px;height:153px;font-family:Asana-Math, Asana;background:#FFF;"></svg>
</svg>
