<svg xmlns="http://www.w3.org/2000/svg" xmlns:xlink="http://www.w3.org/1999/xlink" x="0" y="0" width="588" height="155" style="
        width:588px;
        height:155px;
        background: #FFF;
        fill: none;
">
        <svg xmlns="http://www.w3.org/2000/svg"/>
        
        <svg xmlns="http://www.w3.org/2000/svg" class="role-diagram-draw-area"><g class="shapes-region" style="stroke: black; fill: none;"><g class="composite-shape" data-amt="diagram/shapes/plot" transform="matrix(1,0,0,1,-4.499999999999943,6)"><g><g/><g><g class="test-xti" style="font-family: Asana-Math, Asana;"><line x1="0" y1="133.1948681119428" x2="583" y2="133.1948681119428" fill="none" stroke="rgb(50,50,50)" stroke-opacity="1" stroke-width="1"/><line x1="66.7308879445982" y1="129.1948681119428" x2="66.7308879445982" y2="137.1948681119428" fill="none" stroke="rgb(50,50,50)" stroke-opacity="1" stroke-width="1"/><line x1="110.3022119118668" y1="129.1948681119428" x2="110.3022119118668" y2="137.1948681119428" fill="none" stroke="rgb(50,50,50)" stroke-opacity="1" stroke-width="1"/><line x1="153.8735358791354" y1="129.1948681119428" x2="153.8735358791354" y2="137.1948681119428" fill="none" stroke="rgb(50,50,50)" stroke-opacity="1" stroke-width="1"/><line x1="197.44485984640403" y1="129.1948681119428" x2="197.44485984640403" y2="137.1948681119428" fill="none" stroke="rgb(50,50,50)" stroke-opacity="1" stroke-width="1"/><line x1="241.01618381367265" y1="129.1948681119428" x2="241.01618381367265" y2="137.1948681119428" fill="none" stroke="rgb(50,50,50)" stroke-opacity="1" stroke-width="1"/><line x1="284.5875077809413" y1="129.1948681119428" x2="284.5875077809413" y2="137.1948681119428" fill="none" stroke="rgb(50,50,50)" stroke-opacity="1" stroke-width="1"/><line x1="328.15883174820993" y1="129.1948681119428" x2="328.15883174820993" y2="137.1948681119428" fill="none" stroke="rgb(50,50,50)" stroke-opacity="1" stroke-width="1"/><line x1="371.73015571547853" y1="129.1948681119428" x2="371.73015571547853" y2="137.1948681119428" fill="none" stroke="rgb(50,50,50)" stroke-opacity="1" stroke-width="1"/><line x1="415.30147968274713" y1="129.1948681119428" x2="415.30147968274713" y2="137.1948681119428" fill="none" stroke="rgb(50,50,50)" stroke-opacity="1" stroke-width="1"/><line x1="458.8728036500158" y1="129.1948681119428" x2="458.8728036500158" y2="137.1948681119428" fill="none" stroke="rgb(50,50,50)" stroke-opacity="1" stroke-width="1"/><line x1="502.4441276172844" y1="129.1948681119428" x2="502.4441276172844" y2="137.1948681119428" fill="none" stroke="rgb(50,50,50)" stroke-opacity="1" stroke-width="1"/><line x1="546.015451584553" y1="129.1948681119428" x2="546.015451584553" y2="137.1948681119428" fill="none" stroke="rgb(50,50,50)" stroke-opacity="1" stroke-width="1"/><path d="M578,129.59486811194282 L586,133.1948681119428 L578,136.7948681119428 Z" stroke="none" stroke-width="1" fill="rgb(50,50,50)" fill-opacity="1"/></g><g class="test-yti" style="font-family: Asana-Math, Asana;"><line x1="23.159563977329583" y1="4" x2="23.159563977329583" y2="141" fill="none" stroke="rgb(50,50,50)" stroke-opacity="1" stroke-width="1"/><line x1="19.159563977329583" y1="24.266558193771246" x2="27.159563977329583" y2="24.266558193771246" fill="none" stroke="rgb(50,50,50)" stroke-opacity="1" stroke-width="1"/><path d="M19.55956397732958,9 L23.159563977329583,1 L26.759563977329584,9 Z" stroke="none" stroke-width="1" fill="rgb(50,50,50)" fill-opacity="1"/></g><g class="test-plot-expression"><defs><clipPath id="cpb8uuv1zsj"><rect x="1" y="1" width="585" height="139"/></clipPath></defs><g clip-path="url(#cpb8uuv1zsj)"><path d=" M0.00,133.19 L0.53,133.19 L1.05,133.19 L1.58,133.19 L2.10,133.19 L2.63,133.19 L3.15,133.19 L3.68,133.19 L4.20,133.19 L4.73,133.19 L5.26,133.19 L5.78,133.19 L6.31,133.19 L6.83,133.19 L7.36,133.19 L7.88,133.19 L8.41,133.19 L8.93,133.19 L9.46,133.19 L9.99,133.19 L10.51,133.19 L11.04,133.19 L11.56,133.19 L12.09,133.19 L12.61,133.19 L13.14,133.19 L13.66,133.19 L14.19,133.19 L14.72,133.19 L15.24,133.19 L15.77,133.19 L16.29,133.19 L16.82,133.19 L17.34,133.19 L17.87,133.19 L18.40,133.19 L18.92,133.19 L19.45,133.19 L19.97,133.19 L20.50,133.19 L21.02,133.19 L21.55,133.19 L22.07,133.19 L22.60,133.19 L23.13,133.19 L23.65,133.19 L24.18,133.19 L24.70,133.19 L25.23,133.19 L25.75,133.19 L26.28,133.19 L26.80,133.19 L27.33,133.19 L27.86,133.19 L28.38,133.19 L28.91,133.19 L29.43,133.19 L29.96,133.19 L30.48,133.19 L31.01,133.19 L31.53,133.19 L32.06,133.19 L32.59,133.19 L33.11,133.19 L33.64,133.19 L34.16,133.19 L34.69,133.19 L35.21,133.19 L35.74,133.19 L36.26,133.19 L36.79,133.19 L37.32,133.19 L37.84,133.19 L38.37,133.19 L38.89,133.19 L39.42,133.19 L39.94,133.19 L40.47,133.19 L40.99,133.19 L41.52,133.19 L42.05,133.19 L42.57,133.19 L43.10,133.19 L43.62,133.19 L44.15,133.19 L44.67,133.19 L45.20,133.19 L45.72,133.19 L46.25,133.19 L46.78,133.19 L47.30,133.19 L47.83,133.19 L48.35,133.19 L48.88,133.19 L49.40,133.19 L49.93,133.19 L50.46,133.19 L50.98,133.19 L51.51,133.19 L52.03,133.19 L52.56,133.19 L53.08,133.19 L53.61,133.19 L54.13,133.19 L54.66,133.19 L55.19,133.19 L55.71,133.19 L56.24,133.19 L56.76,133.19 L57.29,133.19 L57.81,133.19 L58.34,133.19 L58.86,133.19 L59.39,133.19 L59.92,133.19 L60.44,133.19 L60.97,133.19 L61.49,133.19 L62.02,133.19 L62.54,133.19 L63.07,133.19 L63.59,133.19 L64.12,133.19 L64.65,133.19 L65.17,133.19 L65.70,133.19 L66.22,133.19 L66.75,133.19 L67.27,133.19 L67.80,133.19 L68.32,133.19 L68.85,133.19 L69.38,133.19 L69.90,133.19 L70.43,133.19 L70.95,133.19 L71.48,133.19 L72.00,133.19 L72.53,133.19 L73.05,133.19 L73.58,133.19 L74.11,133.19 L74.63,133.18 L75.16,133.18 L75.68,133.18 L76.21,133.18 L76.73,133.18 L77.26,133.18 L77.78,133.18 L78.31,133.18 L78.84,133.18 L79.36,133.18 L79.89,133.18 L80.41,133.18 L80.94,133.18 L81.46,133.18 L81.99,133.18 L82.51,133.17 L83.04,133.17 L83.57,133.17 L84.09,133.17 L84.62,133.17 L85.14,133.17 L85.67,133.17 L86.19,133.17 L86.72,133.17 L87.25,133.17 L87.77,133.16 L88.30,133.16 L88.82,133.16 L89.35,133.16 L89.87,133.16 L90.40,133.16 L90.92,133.15 L91.45,133.15 L91.98,133.15 L92.50,133.15 L93.03,133.15 L93.55,133.15 L94.08,133.14 L94.60,133.14 L95.13,133.14 L95.65,133.14 L96.18,133.13 L96.71,133.13 L97.23,133.13 L97.76,133.13 L98.28,133.12 L98.81,133.12 L99.33,133.12 L99.86,133.11 L100.38,133.11 L100.91,133.11 L101.44,133.10 L101.96,133.10 L102.49,133.09 L103.01,133.09 L103.54,133.09 L104.06,133.08 L104.59,133.08 L105.11,133.07 L105.64,133.07 L106.17,133.06 L106.69,133.06 L107.22,133.05 L107.74,133.05 L108.27,133.04 L108.79,133.03 L109.32,133.03 L109.84,133.02 L110.37,133.01 L110.90,133.01 L111.42,133.00 L111.95,132.99 L112.47,132.98 L113.00,132.97 L113.52,132.97 L114.05,132.96 L114.57,132.95 L115.10,132.94 L115.63,132.93 L116.15,132.92 L116.68,132.91 L117.20,132.90 L117.73,132.89 L118.25,132.87 L118.78,132.86 L119.31,132.85 L119.83,132.84 L120.36,132.82 L120.88,132.81 L121.41,132.80 L121.93,132.78 L122.46,132.77 L122.98,132.75 L123.51,132.73 L124.04,132.72 L124.56,132.70 L125.09,132.68 L125.61,132.66 L126.14,132.65 L126.66,132.63 L127.19,132.61 L127.71,132.58 L128.24,132.56 L128.77,132.54 L129.29,132.52 L129.82,132.49 L130.34,132.47 L130.87,132.45 L131.39,132.42 L131.92,132.39 L132.44,132.36 L132.97,132.34 L133.50,132.31 L134.02,132.28 L134.55,132.25 L135.07,132.21 L135.60,132.18 L136.12,132.15 L136.65,132.11 L137.17,132.08 L137.70,132.04 L138.23,132.00 L138.75,131.96 L139.28,131.92 L139.80,131.88 L140.33,131.84 L140.85,131.79 L141.38,131.75 L141.90,131.70 L142.43,131.65 L142.96,131.60 L143.48,131.55 L144.01,131.50 L144.53,131.45 L145.06,131.39 L145.58,131.34 L146.11,131.28 L146.63,131.22 L147.16,131.16 L147.69,131.10 L148.21,131.03 L148.74,130.96 L149.26,130.90 L149.79,130.83 L150.31,130.75 L150.84,130.68 L151.37,130.61 L151.89,130.53 L152.42,130.45 L152.94,130.37 L153.47,130.28 L153.99,130.20 L154.52,130.11 L155.04,130.02 L155.57,129.93 L156.10,129.83 L156.62,129.74 L157.15,129.64 L157.67,129.54 L158.20,129.43 L158.72,129.33 L159.25,129.22 L159.77,129.11 L160.30,128.99 L160.83,128.87 L161.35,128.75 L161.88,128.63 L162.40,128.51 L162.93,128.38 L163.45,128.25 L163.98,128.11 L164.50,127.98 L165.03,127.83 L165.56,127.69 L166.08,127.54 L166.61,127.39 L167.13,127.24 L167.66,127.08 L168.18,126.92 L168.71,126.76 L169.23,126.59 L169.76,126.42 L170.29,126.25 L170.81,126.07 L171.34,125.89 L171.86,125.71 L172.39,125.52 L172.91,125.32 L173.44,125.13 L173.96,124.93 L174.49,124.72 L175.02,124.51 L175.54,124.30 L176.07,124.08 L176.59,123.86 L177.12,123.64 L177.64,123.41 L178.17,123.17 L178.69,122.94 L179.22,122.69 L179.75,122.45 L180.27,122.19 L180.80,121.94 L181.32,121.68 L181.85,121.41 L182.37,121.14 L182.90,120.87 L183.42,120.59 L183.95,120.30 L184.48,120.01 L185.00,119.72 L185.53,119.42 L186.05,119.11 L186.58,118.80 L187.10,118.49 L187.63,118.17 L188.16,117.84 L188.68,117.51 L189.21,117.17 L189.73,116.83 L190.26,116.49 L190.78,116.14 L191.31,115.78 L191.83,115.42 L192.36,115.05 L192.89,114.67 L193.41,114.30 L193.94,113.91 L194.46,113.52 L194.99,113.13 L195.51,112.72 L196.04,112.32 L196.56,111.91 L197.09,111.49 L197.62,111.06 L198.14,110.64 L198.67,110.20 L199.19,109.76 L199.72,109.31 L200.24,108.86 L200.77,108.41 L201.29,107.94 L201.82,107.47 L202.35,107.00 L202.87,106.52 L203.40,106.03 L203.92,105.54 L204.45,105.05 L204.97,104.54 L205.50,104.04 L206.02,103.52 L206.55,103.00 L207.08,102.48 L207.60,101.95 L208.13,101.41 L208.65,100.87 L209.18,100.33 L209.70,99.77 L210.23,99.22 L210.75,98.65 L211.28,98.09 L211.81,97.51 L212.33,96.94 L212.86,96.35 L213.38,95.77 L213.91,95.17 L214.43,94.58 L214.96,93.97 L215.48,93.37 L216.01,92.75 L216.54,92.14 L217.06,91.52 L217.59,90.89 L218.11,90.26 L218.64,89.63 L219.16,88.99 L219.69,88.35 L220.22,87.70 L220.74,87.05 L221.27,86.39 L221.79,85.74 L222.32,85.07 L222.84,84.41 L223.37,83.74 L223.89,83.07 L224.42,82.39 L224.95,81.71 L225.47,81.03 L226.00,80.35 L226.52,79.66 L227.05,78.97 L227.57,78.28 L228.10,77.59 L228.62,76.89 L229.15,76.19 L229.68,75.49 L230.20,74.79 L230.73,74.08 L231.25,73.38 L231.78,72.67 L232.30,71.96 L232.83,71.25 L233.35,70.54 L233.88,69.83 L234.41,69.12 L234.93,68.40 L235.46,67.69 L235.98,66.98 L236.51,66.27 L237.03,65.55 L237.56,64.84 L238.08,64.13 L238.61,63.42 L239.14,62.71 L239.66,62.00 L240.19,61.29 L240.71,60.59 L241.24,59.88 L241.76,59.18 L242.29,58.48 L242.81,57.78 L243.34,57.08 L243.87,56.39 L244.39,55.70 L244.92,55.01 L245.44,54.32 L245.97,53.64 L246.49,52.96 L247.02,52.29 L247.54,51.62 L248.07,50.95 L248.60,50.28 L249.12,49.63 L249.65,48.97 L250.17,48.32 L250.70,47.68 L251.22,47.04 L251.75,46.41 L252.28,45.78 L252.80,45.15 L253.33,44.54 L253.85,43.93 L254.38,43.32 L254.90,42.72 L255.43,42.13 L255.95,41.55 L256.48,40.97 L257.01,40.40 L257.53,39.84 L258.06,39.28 L258.58,38.73 L259.11,38.19 L259.63,37.66 L260.16,37.14 L260.68,36.62 L261.21,36.11 L261.74,35.62 L262.26,35.13 L262.79,34.65 L263.31,34.18 L263.84,33.71 L264.36,33.26 L264.89,32.82 L265.41,32.39 L265.94,31.96 L266.47,31.55 L266.99,31.15 L267.52,30.75 L268.04,30.37 L268.57,30.00 L269.09,29.64 L269.62,29.29 L270.14,28.95 L270.67,28.62 L271.20,28.31 L271.72,28.00 L272.25,27.71 L272.77,27.42 L273.30,27.15 L273.82,26.89 L274.35,26.65 L274.87,26.41 L275.40,26.19 L275.93,25.97 L276.45,25.78 L276.98,25.59 L277.50,25.41 L278.03,25.25 L278.55,25.10 L279.08,24.96 L279.60,24.83 L280.13,24.72 L280.66,24.62 L281.18,24.53 L281.71,24.46 L282.23,24.39 L282.76,24.34 L283.28,24.31 L283.81,24.28 L284.33,24.27 L284.86,24.27 L285.39,24.28 L285.91,24.31 L286.44,24.35 L286.96,24.40 L287.49,24.46 L288.01,24.54 L288.54,24.62 L289.07,24.73 L289.59,24.84 L290.12,24.97 L290.64,25.10 L291.17,25.26 L291.69,25.42 L292.22,25.59 L292.74,25.78 L293.27,25.98 L293.80,26.20 L294.32,26.42 L294.85,26.66 L295.37,26.90 L295.90,27.16 L296.42,27.43 L296.95,27.72 L297.47,28.01 L298.00,28.32 L298.53,28.64 L299.05,28.96 L299.58,29.30 L300.10,29.65 L300.63,30.01 L301.15,30.39 L301.68,30.77 L302.20,31.16 L302.73,31.56 L303.26,31.98 L303.78,32.40 L304.31,32.84 L304.83,33.28 L305.36,33.73 L305.88,34.19 L306.41,34.66 L306.93,35.15 L307.46,35.64 L307.99,36.13 L308.51,36.64 L309.04,37.16 L309.56,37.68 L310.09,38.21 L310.61,38.75 L311.14,39.30 L311.66,39.86 L312.19,40.42 L312.72,40.99 L313.24,41.57 L313.77,42.16 L314.29,42.75 L314.82,43.35 L315.34,43.95 L315.87,44.56 L316.39,45.18 L316.92,45.80 L317.45,46.43 L317.97,47.06 L318.50,47.70 L319.02,48.35 L319.55,49.00 L320.07,49.65 L320.60,50.31 L321.13,50.97 L321.65,51.64 L322.18,52.31 L322.70,52.99 L323.23,53.67 L323.75,54.35 L324.28,55.03 L324.80,55.72 L325.33,56.41 L325.86,57.11 L326.38,57.81 L326.91,58.50 L327.43,59.21 L327.96,59.91 L328.48,60.61 L329.01,61.32 L329.53,62.03 L330.06,62.74 L330.59,63.45 L331.11,64.16 L331.64,64.87 L332.16,65.58 L332.69,66.29 L333.21,67.01 L333.74,67.72 L334.26,68.43 L334.79,69.14 L335.32,69.86 L335.84,70.57 L336.37,71.28 L336.89,71.99 L337.42,72.70 L337.94,73.40 L338.47,74.11 L338.99,74.81 L339.52,75.52 L340.05,76.22 L340.57,76.92 L341.10,77.61 L341.62,78.31 L342.15,79.00 L342.67,79.69 L343.20,80.38 L343.72,81.06 L344.25,81.74 L344.78,82.42 L345.30,83.09 L345.83,83.77 L346.35,84.44 L346.88,85.10 L347.40,85.76 L347.93,86.42 L348.45,87.07 L348.98,87.73 L349.51,88.37 L350.03,89.01 L350.56,89.65 L351.08,90.29 L351.61,90.92 L352.13,91.54 L352.66,92.16 L353.19,92.78 L353.71,93.39 L354.24,94.00 L354.76,94.60 L355.29,95.20 L355.81,95.79 L356.34,96.38 L356.86,96.96 L357.39,97.54 L357.92,98.11 L358.44,98.68 L358.97,99.24 L359.49,99.80 L360.02,100.35 L360.54,100.89 L361.07,101.43 L361.59,101.97 L362.12,102.50 L362.65,103.02 L363.17,103.54 L363.70,104.06 L364.22,104.56 L364.75,105.07 L365.27,105.56 L365.80,106.05 L366.32,106.54 L366.85,107.02 L367.38,107.49 L367.90,107.96 L368.43,108.42 L368.95,108.88 L369.48,109.33 L370.00,109.78 L370.53,110.22 L371.05,110.65 L371.58,111.08 L372.11,111.50 L372.63,111.92 L373.16,112.33 L373.68,112.74 L374.21,113.14 L374.73,113.54 L375.26,113.93 L375.78,114.31 L376.31,114.69 L376.84,115.06 L377.36,115.43 L377.89,115.79 L378.41,116.15 L378.94,116.50 L379.46,116.85 L379.99,117.19 L380.51,117.52 L381.04,117.85 L381.57,118.18 L382.09,118.50 L382.62,118.81 L383.14,119.12 L383.67,119.43 L384.19,119.73 L384.72,120.02 L385.24,120.31 L385.77,120.60 L386.30,120.88 L386.82,121.15 L387.35,121.42 L387.87,121.69 L388.40,121.95 L388.92,122.20 L389.45,122.46 L389.98,122.70 L390.50,122.95 L391.03,123.18 L391.55,123.42 L392.08,123.65 L392.60,123.87 L393.13,124.09 L393.65,124.31 L394.18,124.52 L394.71,124.73 L395.23,124.94 L395.76,125.14 L396.28,125.33 L396.81,125.52 L397.33,125.71 L397.86,125.90 L398.38,126.08 L398.91,126.26 L399.44,126.43 L399.96,126.60 L400.49,126.77 L401.01,126.93 L401.54,127.09 L402.06,127.25 L402.59,127.40 L403.11,127.55 L403.64,127.70 L404.17,127.84 L404.69,127.98 L405.22,128.12 L405.74,128.25 L406.27,128.38 L406.79,128.51 L407.32,128.64 L407.84,128.76 L408.37,128.88 L408.90,129.00 L409.42,129.11 L409.95,129.22 L410.47,129.33 L411.00,129.44 L411.52,129.54 L412.05,129.64 L412.57,129.74 L413.10,129.84 L413.63,129.93 L414.15,130.02 L414.68,130.11 L415.20,130.20 L415.73,130.29 L416.25,130.37 L416.78,130.45 L417.30,130.53 L417.83,130.61 L418.36,130.68 L418.88,130.76 L419.41,130.83 L419.93,130.90 L420.46,130.97 L420.98,131.03 L421.51,131.10 L422.04,131.16 L422.56,131.22 L423.09,131.28 L423.61,131.34 L424.14,131.40 L424.66,131.45 L425.19,131.50 L425.71,131.56 L426.24,131.61 L426.77,131.66 L427.29,131.70 L427.82,131.75 L428.34,131.79 L428.87,131.84 L429.39,131.88 L429.92,131.92 L430.44,131.96 L430.97,132.00 L431.50,132.04 L432.02,132.08 L432.55,132.11 L433.07,132.15 L433.60,132.18 L434.12,132.22 L434.65,132.25 L435.17,132.28 L435.70,132.31 L436.23,132.34 L436.75,132.37 L437.28,132.39 L437.80,132.42 L438.33,132.45 L438.85,132.47 L439.38,132.50 L439.90,132.52 L440.43,132.54 L440.96,132.56 L441.48,132.59 L442.01,132.61 L442.53,132.63 L443.06,132.65 L443.58,132.67 L444.11,132.68 L444.63,132.70 L445.16,132.72 L445.69,132.74 L446.21,132.75 L446.74,132.77 L447.26,132.78 L447.79,132.80 L448.31,132.81 L448.84,132.82 L449.36,132.84 L449.89,132.85 L450.42,132.86 L450.94,132.88 L451.47,132.89 L451.99,132.90 L452.52,132.91 L453.04,132.92 L453.57,132.93 L454.10,132.94 L454.62,132.95 L455.15,132.96 L455.67,132.97 L456.20,132.97 L456.72,132.98 L457.25,132.99 L457.77,133.00 L458.30,133.01 L458.83,133.01 L459.35,133.02 L459.88,133.03 L460.40,133.03 L460.93,133.04 L461.45,133.05 L461.98,133.05 L462.50,133.06 L463.03,133.06 L463.56,133.07 L464.08,133.07 L464.61,133.08 L465.13,133.08 L465.66,133.09 L466.18,133.09 L466.71,133.09 L467.23,133.10 L467.76,133.10 L468.29,133.11 L468.81,133.11 L469.34,133.11 L469.86,133.12 L470.39,133.12 L470.91,133.12 L471.44,133.13 L471.96,133.13 L472.49,133.13 L473.02,133.13 L473.54,133.14 L474.07,133.14 L474.59,133.14 L475.12,133.14 L475.64,133.15 L476.17,133.15 L476.69,133.15 L477.22,133.15 L477.75,133.15 L478.27,133.15 L478.80,133.16 L479.32,133.16 L479.85,133.16 L480.37,133.16 L480.90,133.16 L481.42,133.16 L481.95,133.17 L482.48,133.17 L483.00,133.17 L483.53,133.17 L484.05,133.17 L484.58,133.17 L485.10,133.17 L485.63,133.17 L486.15,133.17 L486.68,133.17 L487.21,133.18 L487.73,133.18 L488.26,133.18 L488.78,133.18 L489.31,133.18 L489.83,133.18 L490.36,133.18 L490.89,133.18 L491.41,133.18 L491.94,133.18 L492.46,133.18 L492.99,133.18 L493.51,133.18 L494.04,133.18 L494.56,133.18 L495.09,133.19 L495.62,133.19 L496.14,133.19 L496.67,133.19 L497.19,133.19 L497.72,133.19 L498.24,133.19 L498.77,133.19 L499.29,133.19 L499.82,133.19 L500.35,133.19 L500.87,133.19 L501.40,133.19 L501.92,133.19 L502.45,133.19 L502.97,133.19 L503.50,133.19 L504.02,133.19 L504.55,133.19 L505.08,133.19 L505.60,133.19 L506.13,133.19 L506.65,133.19 L507.18,133.19 L507.70,133.19 L508.23,133.19 L508.75,133.19 L509.28,133.19 L509.81,133.19 L510.33,133.19 L510.86,133.19 L511.38,133.19 L511.91,133.19 L512.43,133.19 L512.96,133.19 L513.48,133.19 L514.01,133.19 L514.54,133.19 L515.06,133.19 L515.59,133.19 L516.11,133.19 L516.64,133.19 L517.16,133.19 L517.69,133.19 L518.21,133.19 L518.74,133.19 L519.27,133.19 L519.79,133.19 L520.32,133.19 L520.84,133.19 L521.37,133.19 L521.89,133.19 L522.42,133.19 L522.95,133.19 L523.47,133.19 L524.00,133.19 L524.52,133.19 L525.05,133.19 L525.57,133.19 L526.10,133.19 L526.62,133.19 L527.15,133.19 L527.68,133.19 L528.20,133.19 L528.73,133.19 L529.25,133.19 L529.78,133.19 L530.30,133.19 L530.83,133.19 L531.35,133.19 L531.88,133.19 L532.41,133.19 L532.93,133.19 L533.46,133.19 L533.98,133.19 L534.51,133.19 L535.03,133.19 L535.56,133.19 L536.08,133.19 L536.61,133.19 L537.14,133.19 L537.66,133.19 L538.19,133.19 L538.71,133.19 L539.24,133.19 L539.76,133.19 L540.29,133.19 L540.81,133.19 L541.34,133.19 L541.87,133.19 L542.39,133.19 L542.92,133.19 L543.44,133.19 L543.97,133.19 L544.49,133.19 L545.02,133.19 L545.54,133.19 L546.07,133.19 L546.60,133.19 L547.12,133.19 L547.65,133.19 L548.17,133.19 L548.70,133.19 L549.22,133.19 L549.75,133.19 L550.27,133.19 L550.80,133.19 L551.33,133.19 L551.85,133.19 L552.38,133.19 L552.90,133.19 L553.43,133.19 L553.95,133.19 L554.48,133.19 L555.01,133.19 L555.53,133.19 L556.06,133.19 L556.58,133.19 L557.11,133.19 L557.63,133.19 L558.16,133.19 L558.68,133.19 L559.21,133.19 L559.74,133.19 L560.26,133.19 L560.79,133.19 L561.31,133.19 L561.84,133.19 L562.36,133.19 L562.89,133.19 L563.41,133.19 L563.94,133.19 L564.47,133.19 L564.99,133.19 L565.52,133.19 L566.04,133.19 L566.57,133.19 L567.09,133.19 L567.62,133.19 L568.14,133.19 L568.67,133.19 L569.20,133.19 L569.72,133.19 L570.25,133.19 L570.77,133.19 L571.30,133.19 L571.82,133.19 L572.35,133.19 L572.87,133.19 L573.40,133.19 L573.93,133.19 L574.45,133.19 L574.98,133.19 L575.50,133.19 L576.03,133.19 L576.55,133.19 L577.08,133.19 L577.60,133.19" style="stroke-width: 2; stroke: rgb(106, 166, 37); stroke-opacity: 1;"/></g></g><g class="test-xtl" style="font-family: &quot;Open Sans&quot;, verdana, arial, sans-serif;"/><g class="test-ytl" style="font-family: &quot;Open Sans&quot;, verdana, arial, sans-serif;"/><rect class="real" x="1" y="1" width="585" height="139" style="fill: transparent; stroke: none;"/></g></g></g><g/></g><g/><g/><g/></svg>
        <svg xmlns="http://www.w3.org/2000/svg" xmlns:xlink="http://www.w3.org/1999/xlink" width="586" height="153" style="width:586px;height:153px;font-family:Asana-Math, Asana;background:#FFF;"></svg>
</svg>
