<svg xmlns="http://www.w3.org/2000/svg" xmlns:xlink="http://www.w3.org/1999/xlink" x="0" y="0" width="449" height="274" style="
        width:449px;
        height:274px;
        background: #FFF;
        fill: none;
">
        <svg xmlns="http://www.w3.org/2000/svg"/>
        
        <svg xmlns="http://www.w3.org/2000/svg" class="role-diagram-draw-area"><g class="shapes-region" style="stroke: black; fill: none;"><g class="composite-shape" data-amt="diagram/shapes/plot" transform="matrix(1,0,0,1,5,2)"><g><g/><g><g class="test-xti" style="font-family: Asana-Math, Asana;"><line x1="0" y1="203.80143974610652" x2="438" y2="203.80143974610652" fill="none" stroke="rgb(50,50,50)" stroke-opacity="1" stroke-width="1"/><path d="M433,200.20143974610653 L441,203.80143974610652 L433,207.40143974610652 Z" stroke="none" stroke-width="1" fill="rgb(50,50,50)" fill-opacity="1"/></g><g class="test-yti" style="font-family: Asana-Math, Asana;"><line x1="32.63251971506938" y1="4" x2="32.63251971506938" y2="264" fill="none" stroke="rgb(50,50,50)" stroke-opacity="1" stroke-width="1"/><path d="M29.032519715069377,9 L32.63251971506938,1 L36.23251971506938,9 Z" stroke="none" stroke-width="1" fill="rgb(50,50,50)" fill-opacity="1"/></g><g class="test-plot-expression"><defs><clipPath id="cpx673cejx7"><rect x="1" y="1" width="440" height="262"/></clipPath></defs><g clip-path="url(#cpx673cejx7)"><path d=" M0.00,241.87 L0.50,241.99 L1.00,242.11 L1.50,242.24 L2.00,242.36 L2.50,242.48 L3.00,242.59 L3.50,242.71 L4.00,242.83 L4.51,242.94 L5.01,243.06 L5.51,243.17 L6.01,243.28 L6.51,243.39 L7.01,243.50 L7.51,243.61 L8.01,243.72 L8.51,243.82 L9.01,243.93 L9.51,244.03 L10.01,244.13 L10.51,244.23 L11.01,244.33 L11.51,244.43 L12.01,244.53 L12.51,244.63 L13.01,244.72 L13.52,244.82 L14.02,244.91 L14.52,245.00 L15.02,245.09 L15.52,245.18 L16.02,245.27 L16.52,245.36 L17.02,245.44 L17.52,245.53 L18.02,245.61 L18.52,245.70 L19.02,245.78 L19.52,245.86 L20.02,245.94 L20.52,246.02 L21.02,246.09 L21.52,246.17 L22.02,246.25 L22.53,246.32 L23.03,246.39 L23.53,246.46 L24.03,246.53 L24.53,246.60 L25.03,246.67 L25.53,246.74 L26.03,246.80 L26.53,246.87 L27.03,246.93 L27.53,246.99 L28.03,247.05 L28.53,247.11 L29.03,247.17 L29.53,247.23 L30.03,247.29 L30.53,247.34 L31.04,247.40 L31.54,247.45 L32.04,247.50 L32.54,247.55 L33.04,247.60 L33.54,247.65 L34.04,247.70 L34.54,247.75 L35.04,247.79 L35.54,247.83 L36.04,247.88 L36.54,247.92 L37.04,247.96 L37.54,248.00 L38.04,248.04 L38.54,248.07 L39.04,248.11 L39.54,248.15 L40.05,248.18 L40.55,248.21 L41.05,248.24 L41.55,248.27 L42.05,248.30 L42.55,248.33 L43.05,248.36 L43.55,248.38 L44.05,248.41 L44.55,248.43 L45.05,248.45 L45.55,248.47 L46.05,248.49 L46.55,248.51 L47.05,248.53 L47.55,248.55 L48.05,248.56 L48.55,248.58 L49.06,248.59 L49.56,248.60 L50.06,248.61 L50.56,248.62 L51.06,248.63 L51.56,248.64 L52.06,248.64 L52.56,248.65 L53.06,248.65 L53.56,248.66 L54.06,248.66 L54.56,248.66 L55.06,248.66 L55.56,248.65 L56.06,248.65 L56.56,248.65 L57.06,248.64 L57.57,248.64 L58.07,248.63 L58.57,248.62 L59.07,248.61 L59.57,248.60 L60.07,248.59 L60.57,248.57 L61.07,248.56 L61.57,248.54 L62.07,248.53 L62.57,248.51 L63.07,248.49 L63.57,248.47 L64.07,248.45 L64.57,248.43 L65.07,248.40 L65.57,248.38 L66.07,248.35 L66.58,248.32 L67.08,248.30 L67.58,248.27 L68.08,248.24 L68.58,248.21 L69.08,248.17 L69.58,248.14 L70.08,248.10 L70.58,248.07 L71.08,248.03 L71.58,247.99 L72.08,247.95 L72.58,247.91 L73.08,247.87 L73.58,247.83 L74.08,247.78 L74.58,247.74 L75.08,247.69 L75.59,247.64 L76.09,247.59 L76.59,247.54 L77.09,247.49 L77.59,247.44 L78.09,247.39 L78.59,247.33 L79.09,247.28 L79.59,247.22 L80.09,247.16 L80.59,247.10 L81.09,247.04 L81.59,246.98 L82.09,246.92 L82.59,246.86 L83.09,246.79 L83.59,246.72 L84.10,246.66 L84.60,246.59 L85.10,246.52 L85.60,246.45 L86.10,246.38 L86.60,246.30 L87.10,246.23 L87.60,246.16 L88.10,246.08 L88.60,246.00 L89.10,245.92 L89.60,245.84 L90.10,245.76 L90.60,245.68 L91.10,245.60 L91.60,245.51 L92.10,245.43 L92.60,245.34 L93.11,245.25 L93.61,245.17 L94.11,245.08 L94.61,244.98 L95.11,244.89 L95.61,244.80 L96.11,244.70 L96.61,244.61 L97.11,244.51 L97.61,244.41 L98.11,244.31 L98.61,244.21 L99.11,244.11 L99.61,244.01 L100.11,243.91 L100.61,243.80 L101.11,243.69 L101.61,243.59 L102.12,243.48 L102.62,243.37 L103.12,243.26 L103.62,243.15 L104.12,243.03 L104.62,242.92 L105.12,242.81 L105.62,242.69 L106.12,242.57 L106.62,242.45 L107.12,242.33 L107.62,242.21 L108.12,242.09 L108.62,241.97 L109.12,241.84 L109.62,241.72 L110.12,241.59 L110.63,241.46 L111.13,241.33 L111.63,241.20 L112.13,241.07 L112.63,240.94 L113.13,240.81 L113.63,240.67 L114.13,240.54 L114.63,240.40 L115.13,240.26 L115.63,240.12 L116.13,239.98 L116.63,239.84 L117.13,239.70 L117.63,239.55 L118.13,239.41 L118.63,239.26 L119.13,239.11 L119.64,238.97 L120.14,238.82 L120.64,238.67 L121.14,238.51 L121.64,238.36 L122.14,238.21 L122.64,238.05 L123.14,237.90 L123.64,237.74 L124.14,237.58 L124.64,237.42 L125.14,237.26 L125.64,237.10 L126.14,236.93 L126.64,236.77 L127.14,236.60 L127.64,236.44 L128.14,236.27 L128.65,236.10 L129.15,235.93 L129.65,235.76 L130.15,235.59 L130.65,235.41 L131.15,235.24 L131.65,235.06 L132.15,234.88 L132.65,234.71 L133.15,234.53 L133.65,234.35 L134.15,234.16 L134.65,233.98 L135.15,233.80 L135.65,233.61 L136.15,233.43 L136.65,233.24 L137.16,233.05 L137.66,232.86 L138.16,232.67 L138.66,232.48 L139.16,232.29 L139.66,232.09 L140.16,231.90 L140.66,231.70 L141.16,231.50 L141.66,231.30 L142.16,231.10 L142.66,230.90 L143.16,230.70 L143.66,230.50 L144.16,230.29 L144.66,230.09 L145.16,229.88 L145.66,229.67 L146.17,229.46 L146.67,229.25 L147.17,229.04 L147.67,228.83 L148.17,228.61 L148.67,228.40 L149.17,228.18 L149.67,227.97 L150.17,227.75 L150.67,227.53 L151.17,227.31 L151.67,227.09 L152.17,226.86 L152.67,226.64 L153.17,226.41 L153.67,226.19 L154.17,225.96 L154.67,225.73 L155.18,225.50 L155.68,225.27 L156.18,225.04 L156.68,224.81 L157.18,224.57 L157.68,224.34 L158.18,224.10 L158.68,223.86 L159.18,223.62 L159.68,223.38 L160.18,223.14 L160.68,222.90 L161.18,222.66 L161.68,222.41 L162.18,222.17 L162.68,221.92 L163.18,221.67 L163.69,221.42 L164.19,221.17 L164.69,220.92 L165.19,220.67 L165.69,220.41 L166.19,220.16 L166.69,219.90 L167.19,219.65 L167.69,219.39 L168.19,219.13 L168.69,218.87 L169.19,218.61 L169.69,218.34 L170.19,218.08 L170.69,217.81 L171.19,217.55 L171.69,217.28 L172.19,217.01 L172.70,216.74 L173.20,216.47 L173.70,216.20 L174.20,215.92 L174.70,215.65 L175.20,215.38 L175.70,215.10 L176.20,214.82 L176.70,214.54 L177.20,214.26 L177.70,213.98 L178.20,213.70 L178.70,213.41 L179.20,213.13 L179.70,212.84 L180.20,212.56 L180.70,212.27 L181.20,211.98 L181.71,211.69 L182.21,211.40 L182.71,211.10 L183.21,210.81 L183.71,210.52 L184.21,210.22 L184.71,209.92 L185.21,209.62 L185.71,209.32 L186.21,209.02 L186.71,208.72 L187.21,208.42 L187.71,208.11 L188.21,207.81 L188.71,207.50 L189.21,207.20 L189.71,206.89 L190.22,206.58 L190.72,206.27 L191.22,205.95 L191.72,205.64 L192.22,205.33 L192.72,205.01 L193.22,204.69 L193.72,204.38 L194.22,204.06 L194.72,203.74 L195.22,203.42 L195.72,203.09 L196.22,202.77 L196.72,202.44 L197.22,202.12 L197.72,201.79 L198.22,201.46 L198.72,201.13 L199.23,200.80 L199.73,200.47 L200.23,200.14 L200.73,199.81 L201.23,199.47 L201.73,199.13 L202.23,198.80 L202.73,198.46 L203.23,198.12 L203.73,197.78 L204.23,197.44 L204.73,197.09 L205.23,196.75 L205.73,196.40 L206.23,196.06 L206.73,195.71 L207.23,195.36 L207.73,195.01 L208.24,194.66 L208.74,194.31 L209.24,193.95 L209.74,193.60 L210.24,193.24 L210.74,192.89 L211.24,192.53 L211.74,192.17 L212.24,191.81 L212.74,191.45 L213.24,191.09 L213.74,190.72 L214.24,190.36 L214.74,189.99 L215.24,189.62 L215.74,189.26 L216.24,188.89 L216.75,188.52 L217.25,188.14 L217.75,187.77 L218.25,187.40 L218.75,187.02 L219.25,186.65 L219.75,186.27 L220.25,185.89 L220.75,185.51 L221.25,185.13 L221.75,184.75 L222.25,184.36 L222.75,183.98 L223.25,183.59 L223.75,183.21 L224.25,182.82 L224.75,182.43 L225.25,182.04 L225.76,181.65 L226.26,181.26 L226.76,180.86 L227.26,180.47 L227.76,180.07 L228.26,179.68 L228.76,179.28 L229.26,178.88 L229.76,178.48 L230.26,178.08 L230.76,177.67 L231.26,177.27 L231.76,176.87 L232.26,176.46 L232.76,176.05 L233.26,175.64 L233.76,175.23 L234.27,174.82 L234.77,174.41 L235.27,174.00 L235.77,173.59 L236.27,173.17 L236.77,172.75 L237.27,172.34 L237.77,171.92 L238.27,171.50 L238.77,171.08 L239.27,170.65 L239.77,170.23 L240.27,169.81 L240.77,169.38 L241.27,168.95 L241.77,168.53 L242.27,168.10 L242.77,167.67 L243.28,167.24 L243.78,166.80 L244.28,166.37 L244.78,165.94 L245.28,165.50 L245.78,165.06 L246.28,164.62 L246.78,164.19 L247.28,163.75 L247.78,163.30 L248.28,162.86 L248.78,162.42 L249.28,161.97 L249.78,161.53 L250.28,161.08 L250.78,160.63 L251.28,160.18 L251.78,159.73 L252.29,159.28 L252.79,158.83 L253.29,158.37 L253.79,157.92 L254.29,157.46 L254.79,157.00 L255.29,156.54 L255.79,156.08 L256.29,155.62 L256.79,155.16 L257.29,154.70 L257.79,154.23 L258.29,153.77 L258.79,153.30 L259.29,152.83 L259.79,152.36 L260.29,151.89 L260.80,151.42 L261.30,150.95 L261.80,150.48 L262.30,150.00 L262.80,149.52 L263.30,149.05 L263.80,148.57 L264.30,148.09 L264.80,147.61 L265.30,147.13 L265.80,146.64 L266.30,146.16 L266.80,145.68 L267.30,145.19 L267.80,144.70 L268.30,144.21 L268.80,143.72 L269.30,143.23 L269.81,142.74 L270.31,142.25 L270.81,141.75 L271.31,141.26 L271.81,140.76 L272.31,140.26 L272.81,139.77 L273.31,139.27 L273.81,138.76 L274.31,138.26 L274.81,137.76 L275.31,137.25 L275.81,136.75 L276.31,136.24 L276.81,135.73 L277.31,135.22 L277.81,134.71 L278.31,134.20 L278.82,133.69 L279.32,133.18 L279.82,132.66 L280.32,132.15 L280.82,131.63 L281.32,131.11 L281.82,130.59 L282.32,130.07 L282.82,129.55 L283.32,129.03 L283.82,128.50 L284.32,127.98 L284.82,127.45 L285.32,126.92 L285.82,126.39 L286.32,125.86 L286.82,125.33 L287.33,124.80 L287.83,124.27 L288.33,123.73 L288.83,123.20 L289.33,122.66 L289.83,122.12 L290.33,121.59 L290.83,121.05 L291.33,120.50 L291.83,119.96 L292.33,119.42 L292.83,118.87 L293.33,118.33 L293.83,117.78 L294.33,117.23 L294.83,116.68 L295.33,116.13 L295.83,115.58 L296.34,115.03 L296.84,114.48 L297.34,113.92 L297.84,113.36 L298.34,112.81 L298.84,112.25 L299.34,111.69 L299.84,111.13 L300.34,110.57 L300.84,110.00 L301.34,109.44 L301.84,108.87 L302.34,108.31 L302.84,107.74 L303.34,107.17 L303.84,106.60 L304.34,106.03 L304.84,105.46 L305.35,104.89 L305.85,104.31 L306.35,103.74 L306.85,103.16 L307.35,102.58 L307.85,102.00 L308.35,101.42 L308.85,100.84 L309.35,100.26 L309.85,99.68 L310.35,99.09 L310.85,98.50 L311.35,97.92 L311.85,97.33 L312.35,96.74 L312.85,96.15 L313.35,95.56 L313.86,94.97 L314.36,94.37 L314.86,93.78 L315.36,93.18 L315.86,92.58 L316.36,91.98 L316.86,91.39 L317.36,90.78 L317.86,90.18 L318.36,89.58 L318.86,88.98 L319.36,88.37 L319.86,87.76 L320.36,87.16 L320.86,86.55 L321.36,85.94 L321.86,85.33 L322.36,84.71 L322.87,84.10 L323.37,83.49 L323.87,82.87 L324.37,82.25 L324.87,81.64 L325.37,81.02 L325.87,80.40 L326.37,79.78 L326.87,79.15 L327.37,78.53 L327.87,77.90 L328.37,77.28 L328.87,76.65 L329.37,76.02 L329.87,75.39 L330.37,74.76 L330.87,74.13 L331.37,73.50 L331.88,72.86 L332.38,72.23 L332.88,71.59 L333.38,70.96 L333.88,70.32 L334.38,69.68 L334.88,69.04 L335.38,68.40 L335.88,67.75 L336.38,67.11 L336.88,66.46 L337.38,65.82 L337.88,65.17 L338.38,64.52 L338.88,63.87 L339.38,63.22 L339.88,62.57 L340.39,61.91 L340.89,61.26 L341.39,60.60 L341.89,59.95 L342.39,59.29 L342.89,58.63 L343.39,57.97 L343.89,57.31 L344.39,56.64 L344.89,55.98 L345.39,55.32 L345.89,54.65 L346.39,53.98 L346.89,53.31 L347.39,52.64 L347.89,51.97 L348.39,51.30 L348.89,50.63 L349.40,49.96 L349.90,49.28 L350.40,48.60 L350.90,47.93 L351.40,47.25 L351.90,46.57 L352.40,45.89 L352.90,45.20 L353.40,44.52 L353.90,43.84 L354.40,43.15 L354.90,42.47 L355.40,41.78 L355.90,41.09 L356.40,40.40 L356.90,39.71 L357.40,39.02 L357.90,38.32 L358.41,37.63 L358.91,36.93 L359.41,36.23 L359.91,35.54 L360.41,34.84 L360.91,34.14 L361.41,33.44 L361.91,32.73 L362.41,32.03 L362.91,31.32 L363.41,30.62 L363.91,29.91 L364.41,29.20 L364.91,28.49 L365.41,27.78 L365.91,27.07 L366.41,26.36 L366.92,25.64 L367.42,24.93 L367.92,24.21 L368.42,23.49 L368.92,22.78 L369.42,22.06 L369.92,21.33 L370.42,20.61 L370.92,19.89 L371.42,19.16 L371.92,18.44 L372.42,17.71 L372.92,16.98 L373.42,16.26 L373.92,15.53 L374.42,14.79 L374.92,14.06 L375.42,13.33 L375.93,12.59 L376.43,11.86 L376.93,11.12 L377.43,10.38 L377.93,9.64 L378.43,8.90 L378.93,8.16 L379.43,7.42 L379.93,6.67 L380.43,5.93 L380.93,5.18 L381.43,4.44 L381.93,3.69 L382.43,2.94 L382.93,2.19 L383.43,1.43 L383.93,0.68 L384.43,-0.07 L384.94,-0.83 L385.44,-1.58 L385.94,-2.34 L386.44,-3.10 L386.94,-3.86 L387.44,-4.62 L387.94,-5.38 L388.44,-6.15 L388.94,-6.91 L389.44,-7.68 L389.94,-8.44 L390.44,-9.21 L390.94,-9.98 L391.44,-10.75 L391.94,-11.52 L392.44,-12.29 L392.94,-13.07 L393.45,-13.84 L393.95,-14.62 L394.45,-15.40 L394.95,-16.17 L395.45,-16.95 L395.95,-17.73 L396.45,-18.52 L396.95,-19.30 L397.45,-20.08 L397.95,-20.87 L398.45,-21.65 L398.95,-22.44 L399.45,-23.23 L399.95,-24.02 L400.45,-24.81 L400.95,-25.60 L401.45,-26.40 L401.95,-27.19 L402.46,-27.99 L402.96,-28.78 L403.46,-29.58 L403.96,-30.38 L404.46,-31.18 L404.96,-31.98 L405.46,-32.78 L405.96,-33.59 L406.46,-34.39 L406.96,-35.20 L407.46,-36.00 L407.96,-36.81 L408.46,-37.62 L408.96,-38.43 L409.46,-39.24 L409.96,-40.05 L410.46,-40.87 L410.96,-41.68 L411.47,-42.50 L411.97,-43.32 L412.47,-44.13 L412.97,-44.95 L413.47,-45.77 L413.97,-46.60 L414.47,-47.42 L414.97,-48.24 L415.47,-49.07 L415.97,-49.89 L416.47,-50.72 L416.97,-51.55 L417.47,-52.38 L417.97,-53.21 L418.47,-54.04 L418.97,-54.88 L419.47,-55.71 L419.98,-56.55 L420.48,-57.38 L420.98,-58.22 L421.48,-59.06 L421.98,-59.90 L422.48,-60.74 L422.98,-61.58 L423.48,-62.43 L423.98,-63.27 L424.48,-64.12 L424.98,-64.96 L425.48,-65.81 L425.98,-66.66 L426.48,-67.51 L426.98,-68.36 L427.48,-69.22 L427.98,-70.07 L428.48,-70.93 L428.99,-71.78 L429.49,-72.64 L429.99,-73.50 L430.49,-74.36 L430.99,-75.22 L431.49,-76.08 L431.99,-76.94 L432.49,-77.81 L432.99,-78.67 L433.49,-79.54 L433.99,-80.41 L434.49,-81.27 L434.99,-82.14 L435.49,-83.01 L435.99,-83.89 L436.49,-84.76 L436.99,-85.63 L437.49,-86.51 L438.00,-87.39 L438.50,-88.26 L439.00,-89.14 L439.50,-90.02 L440.00,-90.91 L440.50,-91.79 L441.00,-92.67 L441.50,-93.56 L442.00,-94.44" style="stroke-width: 2; stroke: rgb(74, 144, 226); stroke-opacity: 1;"/></g></g><g class="test-xtl" style="font-family: &quot;Open Sans&quot;, verdana, arial, sans-serif;"/><g class="test-ytl" style="font-family: &quot;Open Sans&quot;, verdana, arial, sans-serif;"/><rect class="real" x="1" y="1" width="440" height="262" style="fill: transparent; stroke: none;"/></g></g></g><g/></g><g/><g/><g/></svg>
        <svg xmlns="http://www.w3.org/2000/svg" xmlns:xlink="http://www.w3.org/1999/xlink" width="447" height="272" style="width:447px;height:272px;font-family:Asana-Math, Asana;background:#FFF;"></svg>
</svg>
