<svg xmlns="http://www.w3.org/2000/svg" xmlns:xlink="http://www.w3.org/1999/xlink" x="0" y="0" width="349" height="224" style="
        width:349px;
        height:224px;
        background: #FFF;
        fill: none;
">
        <svg xmlns="http://www.w3.org/2000/svg"/>
        
        <svg xmlns="http://www.w3.org/2000/svg" class="role-diagram-draw-area"><g class="shapes-region" style="stroke: black; fill: none;"><g class="composite-shape" data-amt="diagram/shapes/plot" transform="matrix(1,0,0,1,3.5,3)"><g><g/><g><g class="test-xti" style="font-family: Asana-Math, Asana;"><line x1="0" y1="195.75434637637693" x2="333" y2="195.75434637637693" fill="none" stroke="rgb(50,50,50)" stroke-opacity="1" stroke-width="1"/><path d="M328,192.15434637637694 L336,195.75434637637693 L328,199.35434637637692 Z" stroke="none" stroke-width="1" fill="rgb(50,50,50)" fill-opacity="1"/></g><g class="test-yti" style="font-family: Asana-Math, Asana;"><line x1="16.05452133456538" y1="4" x2="16.05452133456538" y2="212" fill="none" stroke="rgb(50,50,50)" stroke-opacity="1" stroke-width="1"/><path d="M12.45452133456538,9 L16.05452133456538,1 L19.65452133456538,9 Z" stroke="none" stroke-width="1" fill="rgb(50,50,50)" fill-opacity="1"/></g><g class="test-plot-expression"><defs><clipPath id="cpgizqzv0rk"><rect x="1" y="1" width="335" height="210"/></clipPath></defs><g clip-path="url(#cpgizqzv0rk)"><path d=" M16.05,195.75 L16.47,195.34 L16.89,194.92 L17.30,194.51 L17.72,194.09 L18.13,193.68 L18.55,193.26 L18.97,192.84 L19.38,192.43 L19.80,192.01 L20.21,191.60 L20.63,191.18 L21.05,190.76 L21.46,190.35 L21.88,189.93 L22.29,189.52 L22.71,189.10 L23.12,188.69 L23.54,188.27 L23.96,187.85 L24.37,187.44 L24.79,187.02 L25.20,186.61 L25.62,186.19 L26.04,185.78 L26.45,185.36 L26.87,184.94 L27.28,184.53 L27.70,184.11 L28.12,183.70 L28.53,183.28 L28.95,182.87 L29.36,182.45 L29.78,182.04 L30.19,181.62 L30.61,181.20 L31.03,180.79 L31.44,180.37 L31.86,179.96 L32.27,179.54 L32.69,179.13 L33.11,178.71 L33.52,178.30 L33.94,177.88 L34.35,177.47 L34.77,177.05 L35.19,176.63 L35.60,176.22 L36.02,175.80 L36.43,175.39 L36.85,174.97 L37.26,174.56 L37.68,174.14 L38.10,173.73 L38.51,173.31 L38.93,172.90 L39.34,172.48 L39.76,172.07 L40.18,171.65 L40.59,171.24 L41.01,170.82 L41.42,170.41 L41.84,169.99 L42.26,169.58 L42.67,169.16 L43.09,168.75 L43.50,168.33 L43.92,167.92 L44.33,167.50 L44.75,167.09 L45.17,166.67 L45.58,166.26 L46.00,165.84 L46.41,165.43 L46.83,165.01 L47.25,164.60 L47.66,164.18 L48.08,163.77 L48.49,163.35 L48.91,162.94 L49.33,162.53 L49.74,162.11 L50.16,161.70 L50.57,161.28 L50.99,160.87 L51.41,160.45 L51.82,160.04 L52.24,159.62 L52.65,159.21 L53.07,158.80 L53.48,158.38 L53.90,157.97 L54.32,157.55 L54.73,157.14 L55.15,156.72 L55.56,156.31 L55.98,155.90 L56.40,155.48 L56.81,155.07 L57.23,154.65 L57.64,154.24 L58.06,153.83 L58.48,153.41 L58.89,153.00 L59.31,152.58 L59.72,152.17 L60.14,151.76 L60.55,151.34 L60.97,150.93 L61.39,150.52 L61.80,150.10 L62.22,149.69 L62.63,149.28 L63.05,148.86 L63.47,148.45 L63.88,148.03 L64.30,147.62 L64.71,147.21 L65.13,146.80 L65.55,146.38 L65.96,145.97 L66.38,145.56 L66.79,145.14 L67.21,144.73 L67.62,144.32 L68.04,143.90 L68.46,143.49 L68.87,143.08 L69.29,142.67 L69.70,142.25 L70.12,141.84 L70.54,141.43 L70.95,141.01 L71.37,140.60 L71.78,140.19 L72.20,139.78 L72.62,139.37 L73.03,138.95 L73.45,138.54 L73.86,138.13 L74.28,137.72 L74.69,137.30 L75.11,136.89 L75.53,136.48 L75.94,136.07 L76.36,135.66 L76.77,135.25 L77.19,134.83 L77.61,134.42 L78.02,134.01 L78.44,133.60 L78.85,133.19 L79.27,132.78 L79.69,132.37 L80.10,131.95 L80.52,131.54 L80.93,131.13 L81.35,130.72 L81.77,130.31 L82.18,129.90 L82.60,129.49 L83.01,129.08 L83.43,128.67 L83.84,128.26 L84.26,127.85 L84.68,127.44 L85.09,127.03 L85.51,126.62 L85.92,126.21 L86.34,125.80 L86.76,125.39 L87.17,124.98 L87.59,124.57 L88.00,124.16 L88.42,123.75 L88.84,123.34 L89.25,122.93 L89.67,122.52 L90.08,122.11 L90.50,121.70 L90.91,121.29 L91.33,120.89 L91.75,120.48 L92.16,120.07 L92.58,119.66 L92.99,119.25 L93.41,118.84 L93.83,118.44 L94.24,118.03 L94.66,117.62 L95.07,117.21 L95.49,116.80 L95.91,116.40 L96.32,115.99 L96.74,115.58 L97.15,115.18 L97.57,114.77 L97.98,114.36 L98.40,113.95 L98.82,113.55 L99.23,113.14 L99.65,112.74 L100.06,112.33 L100.48,111.92 L100.90,111.52 L101.31,111.11 L101.73,110.71 L102.14,110.30 L102.56,109.89 L102.98,109.49 L103.39,109.08 L103.81,108.68 L104.22,108.27 L104.64,107.87 L105.05,107.47 L105.47,107.06 L105.89,106.66 L106.30,106.25 L106.72,105.85 L107.13,105.45 L107.55,105.04 L107.97,104.64 L108.38,104.24 L108.80,103.83 L109.21,103.43 L109.63,103.03 L110.05,102.63 L110.46,102.22 L110.88,101.82 L111.29,101.42 L111.71,101.02 L112.12,100.62 L112.54,100.22 L112.96,99.81 L113.37,99.41 L113.79,99.01 L114.20,98.61 L114.62,98.21 L115.04,97.81 L115.45,97.41 L115.87,97.01 L116.28,96.61 L116.70,96.22 L117.12,95.82 L117.53,95.42 L117.95,95.02 L118.36,94.62 L118.78,94.22 L119.20,93.83 L119.61,93.43 L120.03,93.03 L120.44,92.63 L120.86,92.24 L121.27,91.84 L121.69,91.45 L122.11,91.05 L122.52,90.65 L122.94,90.26 L123.35,89.86 L123.77,89.47 L124.19,89.07 L124.60,88.68 L125.02,88.29 L125.43,87.89 L125.85,87.50 L126.27,87.11 L126.68,86.71 L127.10,86.32 L127.51,85.93 L127.93,85.54 L128.34,85.15 L128.76,84.76 L129.18,84.37 L129.59,83.97 L130.01,83.58 L130.42,83.20 L130.84,82.81 L131.26,82.42 L131.67,82.03 L132.09,81.64 L132.50,81.25 L132.92,80.86 L133.34,80.48 L133.75,80.09 L134.17,79.70 L134.58,79.32 L135.00,78.93 L135.41,78.55 L135.83,78.16 L136.25,77.78 L136.66,77.39 L137.08,77.01 L137.49,76.63 L137.91,76.24 L138.33,75.86 L138.74,75.48 L139.16,75.10 L139.57,74.72 L139.99,74.34 L140.41,73.96 L140.82,73.58 L141.24,73.20 L141.65,72.82 L142.07,72.44 L142.48,72.06 L142.90,71.69 L143.32,71.31 L143.73,70.93 L144.15,70.56 L144.56,70.18 L144.98,69.81 L145.40,69.43 L145.81,69.06 L146.23,68.69 L146.64,68.31 L147.06,67.94 L147.48,67.57 L147.89,67.20 L148.31,66.83 L148.72,66.46 L149.14,66.09 L149.55,65.72 L149.97,65.36 L150.39,64.99 L150.80,64.62 L151.22,64.26 L151.63,63.89 L152.05,63.53 L152.47,63.16 L152.88,62.80 L153.30,62.44 L153.71,62.07 L154.13,61.71 L154.55,61.35 L154.96,60.99 L155.38,60.63 L155.79,60.27 L156.21,59.92 L156.63,59.56 L157.04,59.20 L157.46,58.85 L157.87,58.49 L158.29,58.14 L158.70,57.79 L159.12,57.43 L159.54,57.08 L159.95,56.73 L160.37,56.38 L160.78,56.03 L161.20,55.68 L161.62,55.34 L162.03,54.99 L162.45,54.65 L162.86,54.30 L163.28,53.96 L163.70,53.61 L164.11,53.27 L164.53,52.93 L164.94,52.59 L165.36,52.25 L165.77,51.91 L166.19,51.58 L166.61,51.24 L167.02,50.91 L167.44,50.57 L167.85,50.24 L168.27,49.91 L168.69,49.57 L169.10,49.24 L169.52,48.92 L169.93,48.59 L170.35,48.26 L170.77,47.94 L171.18,47.61 L171.60,47.29 L172.01,46.97 L172.43,46.65 L172.84,46.33 L173.26,46.01 L173.68,45.69 L174.09,45.37 L174.51,45.06 L174.92,44.74 L175.34,44.43 L175.76,44.12 L176.17,43.81 L176.59,43.50 L177.00,43.20 L177.42,42.89 L177.84,42.59 L178.25,42.28 L178.67,41.98 L179.08,41.68 L179.50,41.38 L179.91,41.09 L180.33,40.79 L180.75,40.50 L181.16,40.20 L181.58,39.91 L181.99,39.62 L182.41,39.33 L182.83,39.05 L183.24,38.76 L183.66,38.48 L184.07,38.20 L184.49,37.92 L184.91,37.64 L185.32,37.36 L185.74,37.09 L186.15,36.81 L186.57,36.54 L186.98,36.27 L187.40,36.00 L187.82,35.74 L188.23,35.47 L188.65,35.21 L189.06,34.95 L189.48,34.69 L189.90,34.44 L190.31,34.18 L190.73,33.93 L191.14,33.68 L191.56,33.43 L191.98,33.18 L192.39,32.94 L192.81,32.70 L193.22,32.46 L193.64,32.22 L194.06,31.98 L194.47,31.75 L194.89,31.52 L195.30,31.29 L195.72,31.06 L196.13,30.84 L196.55,30.61 L196.97,30.40 L197.38,30.18 L197.80,29.96 L198.21,29.75 L198.63,29.54 L199.05,29.33 L199.46,29.13 L199.88,28.93 L200.29,28.73 L200.71,28.53 L201.13,28.33 L201.54,28.14 L201.96,27.95 L202.37,27.77 L202.79,27.58 L203.20,27.40 L203.62,27.22 L204.04,27.05 L204.45,26.88 L204.87,26.71 L205.28,26.54 L205.70,26.38 L206.12,26.22 L206.53,26.06 L206.95,25.91 L207.36,25.76 L207.78,25.61 L208.20,25.47 L208.61,25.33 L209.03,25.19 L209.44,25.06 L209.86,24.93 L210.27,24.80 L210.69,24.68 L211.11,24.56 L211.52,24.44 L211.94,24.33 L212.35,24.22 L212.77,24.11 L213.19,24.01 L213.60,23.91 L214.02,23.82 L214.43,23.73 L214.85,23.64 L215.27,23.56 L215.68,23.48 L216.10,23.41 L216.51,23.34 L216.93,23.27 L217.34,23.21 L217.76,23.15 L218.18,23.10 L218.59,23.05 L219.01,23.01 L219.42,22.97 L219.84,22.94 L220.26,22.90 L220.67,22.88 L221.09,22.86 L221.50,22.84 L221.92,22.83 L222.34,22.82 L222.75,22.82 L223.17,22.82 L223.58,22.83 L224.00,22.85 L224.41,22.87 L224.83,22.89 L225.25,22.92 L225.66,22.95 L226.08,22.99 L226.49,23.04 L226.91,23.09 L227.33,23.15 L227.74,23.21 L228.16,23.28 L228.57,23.35 L228.99,23.43 L229.41,23.51 L229.82,23.61 L230.24,23.70 L230.65,23.81 L231.07,23.92 L231.49,24.03 L231.90,24.16 L232.32,24.28 L232.73,24.42 L233.15,24.56 L233.56,24.71 L233.98,24.87 L234.40,25.03 L234.81,25.20 L235.23,25.37 L235.64,25.56 L236.06,25.75 L236.48,25.95 L236.89,26.15 L237.31,26.36 L237.72,26.58 L238.14,26.81 L238.56,27.05 L238.97,27.29 L239.39,27.54 L239.80,27.80 L240.22,28.07 L240.63,28.34 L241.05,28.62 L241.47,28.92 L241.88,29.22 L242.30,29.53 L242.71,29.84 L243.13,30.17 L243.55,30.50 L243.96,30.85 L244.38,31.20 L244.79,31.56 L245.21,31.93 L245.63,32.31 L246.04,32.70 L246.46,33.10 L246.87,33.51 L247.29,33.93 L247.70,34.36 L248.12,34.80 L248.54,35.25 L248.95,35.71 L249.37,36.18 L249.78,36.66 L250.20,37.15 L250.62,37.65 L251.03,38.16 L251.45,38.68 L251.86,39.22 L252.28,39.76 L252.70,40.32 L253.11,40.89 L253.53,41.47 L253.94,42.06 L254.36,42.67 L254.77,43.28 L255.19,43.91 L255.61,44.55 L256.02,45.20 L256.44,45.87 L256.85,46.55 L257.27,47.24 L257.69,47.95 L258.10,48.66 L258.52,49.39 L258.93,50.14 L259.35,50.90 L259.77,51.67 L260.18,52.46 L260.60,53.26 L261.01,54.07 L261.43,54.90 L261.85,55.75 L262.26,56.60 L262.68,57.48 L263.09,58.37 L263.51,59.27 L263.92,60.19 L264.34,61.13 L264.76,62.08 L265.17,63.05 L265.59,64.03 L266.00,65.03 L266.42,66.05 L266.84,67.08 L267.25,68.14 L267.67,69.20 L268.08,70.29 L268.50,71.39 L268.92,72.52 L269.33,73.66 L269.75,74.81 L270.16,75.99 L270.58,77.19 L270.99,78.40 L271.41,79.63 L271.83,80.88 L272.24,82.16 L272.66,83.45 L273.07,84.76 L273.49,86.09 L273.91,87.45 L274.32,88.82 L274.74,90.21 L275.15,91.63 L275.57,93.07 L275.99,94.53 L276.40,96.01 L276.82,97.51 L277.23,99.04 L277.65,100.58 L278.06,102.16 L278.48,103.75 L278.90,105.37 L279.31,107.01 L279.73,108.68 L280.14,110.37 L280.56,112.08 L280.98,113.82 L281.39,115.59 L281.81,117.38 L282.22,119.19 L282.64,121.04 L283.06,122.91 L283.47,124.80 L283.89,126.72 L284.30,128.67 L284.72,130.65 L285.13,132.66 L285.55,134.69 L285.97,136.75 L286.38,138.85 L286.80,140.97 L287.21,143.12 L287.63,145.30 L288.05,147.51 L288.46,149.75 L288.88,152.02 L289.29,154.33 L289.71,156.66 L290.13,159.03 L290.54,161.43 L290.96,163.86 L291.37,166.33 L291.79,168.83 L292.20,171.36 L292.62,173.93 L293.04,176.53 L293.45,179.17 L293.87,181.84 L294.28,184.55 L294.70,187.30 L295.12,190.08 L295.53,192.90 L295.95,195.75" style="stroke-width: 2; stroke: rgb(106, 166, 37); stroke-opacity: 1;"/></g></g><g class="test-xtl" style="font-family: &quot;Open Sans&quot;, verdana, arial, sans-serif;"/><g class="test-ytl" style="font-family: &quot;Open Sans&quot;, verdana, arial, sans-serif;"/><rect class="real" x="1" y="1" width="335" height="210" style="fill: transparent; stroke: none;"/></g></g></g><g/></g><g/><g/><g/></svg>
        <svg xmlns="http://www.w3.org/2000/svg" xmlns:xlink="http://www.w3.org/1999/xlink" width="347" height="222" style="width:347px;height:222px;font-family:Asana-Math, Asana;background:#FFF;"></svg>
</svg>
