<svg xmlns="http://www.w3.org/2000/svg" xmlns:xlink="http://www.w3.org/1999/xlink" x="0" y="0" width="286" height="248" style="
        width:286px;
        height:248px;
        background: #FFF;
        fill: none;
">
        <svg xmlns="http://www.w3.org/2000/svg"/>
        
        <svg xmlns="http://www.w3.org/2000/svg" class="role-diagram-draw-area"><g class="shapes-region" style="stroke: black; fill: none;"><g class="composite-shape" data-amt="diagram/shapes/plot" transform="matrix(-1.8369701987210297e-16,-1,1,-1.8369701987210297e-16,2.9999999999996874,244.00000000000006)"><g><g/><g><g class="test-xti" style="font-family: Asana-Math, Asana;"><line x1="0" y1="272.8065896985853" x2="237" y2="272.8065896985853" fill="none" stroke="rgb(50,50,50)" stroke-opacity="1" stroke-width="1"/><path d="M232,269.2065896985853 L240,272.8065896985853 L232,276.4065896985853 Z" stroke="none" stroke-width="1" fill="rgb(50,50,50)" fill-opacity="1"/></g><g class="test-yti" style="font-family: Asana-Math, Asana;"><line x1="10.94781449656405" y1="4" x2="10.94781449656405" y2="282.50000000000034" fill="none" stroke="rgb(50,50,50)" stroke-opacity="1" stroke-width="1"/><path d="M7.34781449656405,9 L10.94781449656405,1 L14.54781449656405,9 Z" stroke="none" stroke-width="1" fill="rgb(50,50,50)" fill-opacity="1"/></g><g class="test-plot-expression"><defs><clipPath id="cpqg9zd59jh"><rect x="1" y="1" width="239" height="280.50000000000034"/></clipPath></defs><g clip-path="url(#cpqg9zd59jh)"><path d=" M10.95,38.62 L11.32,38.68 L11.69,38.73 L12.07,38.79 L12.44,38.84 L12.81,38.90 L13.19,38.96 L13.56,39.01 L13.93,39.07 L14.31,39.13 L14.68,39.19 L15.05,39.24 L15.42,39.30 L15.80,39.36 L16.17,39.41 L16.54,39.47 L16.92,39.53 L17.29,39.59 L17.66,39.65 L18.04,39.70 L18.41,39.76 L18.78,39.82 L19.16,39.88 L19.53,39.94 L19.90,40.00 L20.28,40.06 L20.65,40.12 L21.02,40.18 L21.39,40.23 L21.77,40.29 L22.14,40.35 L22.51,40.41 L22.89,40.47 L23.26,40.53 L23.63,40.59 L24.01,40.65 L24.38,40.71 L24.75,40.78 L25.13,40.84 L25.50,40.90 L25.87,40.96 L26.24,41.02 L26.62,41.08 L26.99,41.14 L27.36,41.20 L27.74,41.26 L28.11,41.33 L28.48,41.39 L28.86,41.45 L29.23,41.51 L29.60,41.58 L29.98,41.64 L30.35,41.70 L30.72,41.76 L31.10,41.83 L31.47,41.89 L31.84,41.95 L32.21,42.02 L32.59,42.08 L32.96,42.14 L33.33,42.21 L33.71,42.27 L34.08,42.34 L34.45,42.40 L34.83,42.46 L35.20,42.53 L35.57,42.59 L35.95,42.66 L36.32,42.72 L36.69,42.79 L37.06,42.85 L37.44,42.92 L37.81,42.99 L38.18,43.05 L38.56,43.12 L38.93,43.18 L39.30,43.25 L39.68,43.32 L40.05,43.38 L40.42,43.45 L40.80,43.52 L41.17,43.59 L41.54,43.65 L41.91,43.72 L42.29,43.79 L42.66,43.86 L43.03,43.92 L43.41,43.99 L43.78,44.06 L44.15,44.13 L44.53,44.20 L44.90,44.27 L45.27,44.34 L45.65,44.41 L46.02,44.48 L46.39,44.54 L46.77,44.61 L47.14,44.68 L47.51,44.75 L47.88,44.83 L48.26,44.90 L48.63,44.97 L49.00,45.04 L49.38,45.11 L49.75,45.18 L50.12,45.25 L50.50,45.32 L50.87,45.40 L51.24,45.47 L51.62,45.54 L51.99,45.61 L52.36,45.68 L52.73,45.76 L53.11,45.83 L53.48,45.90 L53.85,45.98 L54.23,46.05 L54.60,46.13 L54.97,46.20 L55.35,46.27 L55.72,46.35 L56.09,46.42 L56.47,46.50 L56.84,46.57 L57.21,46.65 L57.59,46.72 L57.96,46.80 L58.33,46.88 L58.70,46.95 L59.08,47.03 L59.45,47.10 L59.82,47.18 L60.20,47.26 L60.57,47.34 L60.94,47.41 L61.32,47.49 L61.69,47.57 L62.06,47.65 L62.44,47.73 L62.81,47.80 L63.18,47.88 L63.55,47.96 L63.93,48.04 L64.30,48.12 L64.67,48.20 L65.05,48.28 L65.42,48.36 L65.79,48.44 L66.17,48.52 L66.54,48.60 L66.91,48.68 L67.29,48.77 L67.66,48.85 L68.03,48.93 L68.40,49.01 L68.78,49.09 L69.15,49.18 L69.52,49.26 L69.90,49.34 L70.27,49.43 L70.64,49.51 L71.02,49.59 L71.39,49.68 L71.76,49.76 L72.14,49.85 L72.51,49.93 L72.88,50.02 L73.26,50.10 L73.63,50.19 L74.00,50.28 L74.37,50.36 L74.75,50.45 L75.12,50.54 L75.49,50.62 L75.87,50.71 L76.24,50.80 L76.61,50.89 L76.99,50.97 L77.36,51.06 L77.73,51.15 L78.11,51.24 L78.48,51.33 L78.85,51.42 L79.22,51.51 L79.60,51.60 L79.97,51.69 L80.34,51.78 L80.72,51.88 L81.09,51.97 L81.46,52.06 L81.84,52.15 L82.21,52.24 L82.58,52.34 L82.96,52.43 L83.33,52.52 L83.70,52.62 L84.08,52.71 L84.45,52.81 L84.82,52.90 L85.19,53.00 L85.57,53.09 L85.94,53.19 L86.31,53.29 L86.69,53.38 L87.06,53.48 L87.43,53.58 L87.81,53.67 L88.18,53.77 L88.55,53.87 L88.93,53.97 L89.30,54.07 L89.67,54.17 L90.04,54.27 L90.42,54.37 L90.79,54.47 L91.16,54.57 L91.54,54.67 L91.91,54.77 L92.28,54.88 L92.66,54.98 L93.03,55.08 L93.40,55.18 L93.78,55.29 L94.15,55.39 L94.52,55.50 L94.89,55.60 L95.27,55.71 L95.64,55.81 L96.01,55.92 L96.39,56.03 L96.76,56.13 L97.13,56.24 L97.51,56.35 L97.88,56.46 L98.25,56.56 L98.63,56.67 L99.00,56.78 L99.37,56.89 L99.75,57.00 L100.12,57.12 L100.49,57.23 L100.86,57.34 L101.24,57.45 L101.61,57.56 L101.98,57.68 L102.36,57.79 L102.73,57.91 L103.10,58.02 L103.48,58.14 L103.85,58.25 L104.22,58.37 L104.60,58.48 L104.97,58.60 L105.34,58.72 L105.71,58.84 L106.09,58.96 L106.46,59.08 L106.83,59.20 L107.21,59.32 L107.58,59.44 L107.95,59.56 L108.33,59.68 L108.70,59.80 L109.07,59.93 L109.45,60.05 L109.82,60.17 L110.19,60.30 L110.57,60.43 L110.94,60.55 L111.31,60.68 L111.68,60.81 L112.06,60.93 L112.43,61.06 L112.80,61.19 L113.18,61.32 L113.55,61.45 L113.92,61.58 L114.30,61.71 L114.67,61.85 L115.04,61.98 L115.42,62.11 L115.79,62.25 L116.16,62.38 L116.53,62.52 L116.91,62.65 L117.28,62.79 L117.65,62.93 L118.03,63.07 L118.40,63.21 L118.77,63.35 L119.15,63.49 L119.52,63.63 L119.89,63.77 L120.27,63.91 L120.64,64.06 L121.01,64.20 L121.38,64.34 L121.76,64.49 L122.13,64.64 L122.50,64.78 L122.88,64.93 L123.25,65.08 L123.62,65.23 L124.00,65.38 L124.37,65.53 L124.74,65.69 L125.12,65.84 L125.49,65.99 L125.86,66.15 L126.24,66.31 L126.61,66.46 L126.98,66.62 L127.35,66.78 L127.73,66.94 L128.10,67.10 L128.47,67.26 L128.85,67.42 L129.22,67.59 L129.59,67.75 L129.97,67.92 L130.34,68.08 L130.71,68.25 L131.09,68.42 L131.46,68.59 L131.83,68.76 L132.20,68.93 L132.58,69.11 L132.95,69.28 L133.32,69.46 L133.70,69.63 L134.07,69.81 L134.44,69.99 L134.82,70.17 L135.19,70.35 L135.56,70.53 L135.94,70.72 L136.31,70.90 L136.68,71.09 L137.06,71.27 L137.43,71.46 L137.80,71.65 L138.17,71.85 L138.55,72.04 L138.92,72.23 L139.29,72.43 L139.67,72.63 L140.04,72.82 L140.41,73.02 L140.79,73.23 L141.16,73.43 L141.53,73.63 L141.91,73.84 L142.28,74.05 L142.65,74.26 L143.02,74.47 L143.40,74.68 L143.77,74.89 L144.14,75.11 L144.52,75.33 L144.89,75.55 L145.26,75.77 L145.64,75.99 L146.01,76.22 L146.38,76.45 L146.76,76.67 L147.13,76.91 L147.50,77.14 L147.87,77.37 L148.25,77.61 L148.62,77.85 L148.99,78.09 L149.37,78.33 L149.74,78.58 L150.11,78.83 L150.49,79.08 L150.86,79.33 L151.23,79.59 L151.61,79.84 L151.98,80.10 L152.35,80.37 L152.73,80.63 L153.10,80.90 L153.47,81.17 L153.84,81.44 L154.22,81.72 L154.59,82.00 L154.96,82.28 L155.34,82.56 L155.71,82.85 L156.08,83.14 L156.46,83.44 L156.83,83.73 L157.20,84.03 L157.58,84.34 L157.95,84.64 L158.32,84.96 L158.69,85.27 L159.07,85.59 L159.44,85.91 L159.81,86.24 L160.19,86.57 L160.56,86.90 L160.93,87.24 L161.31,87.58 L161.68,87.93 L162.05,88.28 L162.43,88.64 L162.80,89.00 L163.17,89.36 L163.55,89.73 L163.92,90.11 L164.29,90.49 L164.66,90.88 L165.04,91.27 L165.41,91.67 L165.78,92.07 L166.16,92.48 L166.53,92.90 L166.90,93.32 L167.28,93.75 L167.65,94.19 L168.02,94.64 L168.40,95.09 L168.77,95.55 L169.14,96.02 L169.51,96.49 L169.89,96.98 L170.26,97.47 L170.63,97.97 L171.01,98.48 L171.38,99.01 L171.75,99.54 L172.13,100.08 L172.50,100.63 L172.87,101.20 L173.25,101.78 L173.62,102.37 L173.99,102.97 L174.36,103.59 L174.74,104.22 L175.11,104.87 L175.48,105.53 L175.86,106.21 L176.23,106.91 L176.60,107.63 L176.98,108.36 L177.35,109.12 L177.72,109.90 L178.10,110.70 L178.47,111.53 L178.84,112.38 L179.22,113.26 L179.59,114.17 L179.96,115.11 L180.33,116.09 L180.71,117.10 L181.08,118.15 L181.45,119.25 L181.83,120.39 L182.20,121.58 L182.57,122.83 L182.95,124.14 L183.32,125.51 L183.69,126.96 L184.07,128.50 L184.44,130.12 L184.81,131.85 L185.18,133.70 L185.56,135.68 L185.93,137.82 L186.30,140.15 L186.68,142.69 L187.05,145.50 L187.42,148.65 L187.80,152.20 L188.17,156.30 L188.54,161.14 L188.92,167.04 L189.29,174.61 L189.66,185.17 L190.04,202.81 L190.41,272.82" style="stroke-width: 2; stroke: rgb(64, 126, 200); stroke-opacity: 1;"/></g></g><g class="test-xtl" style="font-family: &quot;Open Sans&quot;, verdana, arial, sans-serif;"/><g class="test-ytl" style="font-family: &quot;Open Sans&quot;, verdana, arial, sans-serif;"/><rect class="real" x="1" y="1" width="239" height="280.50000000000034" style="fill: transparent; stroke: none;"/></g></g></g><g/></g><g/><g/><g/></svg>
        <svg xmlns="http://www.w3.org/2000/svg" xmlns:xlink="http://www.w3.org/1999/xlink" width="284" height="246" style="width:284px;height:246px;font-family:Asana-Math, Asana;background:#FFF;"></svg>
</svg>
