<svg xmlns="http://www.w3.org/2000/svg" xmlns:xlink="http://www.w3.org/1999/xlink" x="0" y="0" width="324" height="184" style="
        width:324px;
        height:184px;
        background: #FFF;
        fill: none;
">
        <svg xmlns="http://www.w3.org/2000/svg"/>
        
        <svg xmlns="http://www.w3.org/2000/svg" class="role-diagram-draw-area"><g class="shapes-region" style="stroke: black; fill: none;"><g class="composite-shape" data-amt="diagram/shapes/plot" transform="matrix(1,0,0,1,4.5,7)"><g><g/><g><g class="test-xti" style="font-family: Asana-Math, Asana;"><line x1="0" y1="158.84106272084142" x2="308.5" y2="158.84106272084142" fill="none" stroke="rgb(50,50,50)" stroke-opacity="1" stroke-width="1"/><line x1="138.17308330054863" y1="154.84106272084142" x2="138.17308330054863" y2="162.84106272084142" fill="none" stroke="rgb(50,50,50)" stroke-opacity="1" stroke-width="1"/><line x1="238.17308330054865" y1="154.84106272084142" x2="238.17308330054865" y2="162.84106272084142" fill="none" stroke="rgb(50,50,50)" stroke-opacity="1" stroke-width="1"/><path d="M303.5,155.24106272084143 L311.5,158.84106272084142 L303.5,162.44106272084142 Z" stroke="none" stroke-width="1" fill="rgb(50,50,50)" fill-opacity="1"/></g><g class="test-yti" style="font-family: Asana-Math, Asana;"><line x1="38.173083300548626" y1="4" x2="38.173083300548626" y2="167" fill="none" stroke="rgb(50,50,50)" stroke-opacity="1" stroke-width="1"/><line x1="34.173083300548626" y1="58.84106272084142" x2="42.173083300548626" y2="58.84106272084142" fill="none" stroke="rgb(50,50,50)" stroke-opacity="1" stroke-width="1"/><path d="M34.573083300548625,9 L38.173083300548626,1 L41.77308330054863,9 Z" stroke="none" stroke-width="1" fill="rgb(50,50,50)" fill-opacity="1"/></g><g class="test-plot-expression"><defs><clipPath id="cp7t3qzwsum"><rect x="1" y="1" width="310.5" height="165"/></clipPath></defs><g clip-path="url(#cp7t3qzwsum)"><path d=" M0.00,158.83 L0.49,158.83 L0.97,158.83 L1.46,158.83 L1.94,158.83 L2.43,158.83 L2.92,158.83 L3.40,158.83 L3.89,158.83 L4.38,158.83 L4.86,158.83 L5.35,158.83 L5.83,158.83 L6.32,158.82 L6.81,158.82 L7.29,158.82 L7.78,158.82 L8.26,158.82 L8.75,158.82 L9.24,158.82 L9.72,158.81 L10.21,158.81 L10.70,158.81 L11.18,158.81 L11.67,158.81 L12.15,158.81 L12.64,158.80 L13.13,158.80 L13.61,158.80 L14.10,158.80 L14.59,158.79 L15.07,158.79 L15.56,158.79 L16.04,158.78 L16.53,158.78 L17.02,158.78 L17.50,158.77 L17.99,158.77 L18.47,158.76 L18.96,158.76 L19.45,158.75 L19.93,158.75 L20.42,158.74 L20.91,158.74 L21.39,158.73 L21.88,158.73 L22.36,158.72 L22.85,158.71 L23.34,158.70 L23.82,158.70 L24.31,158.69 L24.79,158.68 L25.28,158.67 L25.77,158.66 L26.25,158.65 L26.74,158.64 L27.23,158.63 L27.71,158.62 L28.20,158.60 L28.68,158.59 L29.17,158.58 L29.66,158.56 L30.14,158.55 L30.63,158.53 L31.12,158.52 L31.60,158.50 L32.09,158.48 L32.57,158.46 L33.06,158.44 L33.55,158.42 L34.03,158.40 L34.52,158.38 L35.00,158.35 L35.49,158.33 L35.98,158.30 L36.46,158.27 L36.95,158.25 L37.44,158.22 L37.92,158.18 L38.41,158.15 L38.89,158.12 L39.38,158.08 L39.87,158.04 L40.35,158.01 L40.84,157.96 L41.32,157.92 L41.81,157.88 L42.30,157.83 L42.78,157.78 L43.27,157.73 L43.76,157.68 L44.24,157.63 L44.73,157.57 L45.21,157.51 L45.70,157.45 L46.19,157.39 L46.67,157.32 L47.16,157.25 L47.65,157.18 L48.13,157.11 L48.62,157.03 L49.10,156.95 L49.59,156.86 L50.08,156.78 L50.56,156.69 L51.05,156.59 L51.53,156.50 L52.02,156.40 L52.51,156.29 L52.99,156.18 L53.48,156.07 L53.97,155.96 L54.45,155.84 L54.94,155.71 L55.42,155.58 L55.91,155.45 L56.40,155.31 L56.88,155.17 L57.37,155.02 L57.85,154.87 L58.34,154.71 L58.83,154.55 L59.31,154.38 L59.80,154.20 L60.29,154.03 L60.77,153.84 L61.26,153.65 L61.74,153.45 L62.23,153.25 L62.72,153.04 L63.20,152.82 L63.69,152.60 L64.18,152.37 L64.66,152.13 L65.15,151.89 L65.63,151.64 L66.12,151.38 L66.61,151.12 L67.09,150.85 L67.58,150.57 L68.06,150.28 L68.55,149.98 L69.04,149.68 L69.52,149.37 L70.01,149.04 L70.50,148.72 L70.98,148.38 L71.47,148.03 L71.95,147.68 L72.44,147.31 L72.93,146.94 L73.41,146.56 L73.90,146.17 L74.38,145.77 L74.87,145.36 L75.36,144.94 L75.84,144.51 L76.33,144.07 L76.82,143.62 L77.30,143.16 L77.79,142.69 L78.27,142.21 L78.76,141.72 L79.25,141.22 L79.73,140.71 L80.22,140.19 L80.71,139.66 L81.19,139.12 L81.68,138.57 L82.16,138.01 L82.65,137.43 L83.14,136.85 L83.62,136.26 L84.11,135.65 L84.59,135.04 L85.08,134.41 L85.57,133.78 L86.05,133.13 L86.54,132.47 L87.03,131.81 L87.51,131.13 L88.00,130.44 L88.48,129.74 L88.97,129.04 L89.46,128.32 L89.94,127.59 L90.43,126.85 L90.91,126.10 L91.40,125.35 L91.89,124.58 L92.37,123.81 L92.86,123.02 L93.35,122.23 L93.83,121.43 L94.32,120.61 L94.80,119.80 L95.29,118.97 L95.78,118.13 L96.26,117.29 L96.75,116.44 L97.23,115.58 L97.72,114.72 L98.21,113.85 L98.69,112.97 L99.18,112.09 L99.67,111.20 L100.15,110.30 L100.64,109.40 L101.12,108.50 L101.61,107.59 L102.10,106.68 L102.58,105.76 L103.07,104.84 L103.56,103.92 L104.04,102.99 L104.53,102.06 L105.01,101.13 L105.50,100.20 L105.99,99.27 L106.47,98.34 L106.96,97.41 L107.44,96.47 L107.93,95.54 L108.42,94.61 L108.90,93.68 L109.39,92.76 L109.88,91.83 L110.36,90.91 L110.85,90.00 L111.33,89.09 L111.82,88.18 L112.31,87.27 L112.79,86.38 L113.28,85.49 L113.76,84.60 L114.25,83.72 L114.74,82.85 L115.22,81.99 L115.71,81.14 L116.20,80.30 L116.68,79.46 L117.17,78.64 L117.65,77.82 L118.14,77.02 L118.63,76.23 L119.11,75.45 L119.60,74.69 L120.09,73.93 L120.57,73.19 L121.06,72.47 L121.54,71.75 L122.03,71.06 L122.52,70.38 L123.00,69.71 L123.49,69.06 L123.97,68.43 L124.46,67.81 L124.95,67.22 L125.43,66.64 L125.92,66.07 L126.41,65.53 L126.89,65.01 L127.38,64.50 L127.86,64.02 L128.35,63.55 L128.84,63.11 L129.32,62.68 L129.81,62.28 L130.29,61.90 L130.78,61.54 L131.27,61.20 L131.75,60.88 L132.24,60.59 L132.73,60.31 L133.21,60.06 L133.70,59.84 L134.18,59.63 L134.67,59.45 L135.16,59.29 L135.64,59.16 L136.13,59.05 L136.62,58.96 L137.10,58.90 L137.59,58.86 L138.07,58.84 L138.56,58.85 L139.05,58.88 L139.53,58.93 L140.02,59.01 L140.50,59.11 L140.99,59.24 L141.48,59.39 L141.96,59.56 L142.45,59.75 L142.94,59.97 L143.42,60.21 L143.91,60.47 L144.39,60.76 L144.88,61.07 L145.37,61.39 L145.85,61.75 L146.34,62.12 L146.82,62.51 L147.31,62.93 L147.80,63.37 L148.28,63.82 L148.77,64.30 L149.26,64.80 L149.74,65.31 L150.23,65.85 L150.71,66.40 L151.20,66.98 L151.69,67.57 L152.17,68.18 L152.66,68.80 L153.15,69.44 L153.63,70.10 L154.12,70.78 L154.60,71.47 L155.09,72.17 L155.58,72.89 L156.06,73.63 L156.55,74.38 L157.03,75.14 L157.52,75.91 L158.01,76.70 L158.49,77.49 L158.98,78.30 L159.47,79.12 L159.95,79.95 L160.44,80.79 L160.92,81.64 L161.41,82.50 L161.90,83.37 L162.38,84.24 L162.87,85.12 L163.35,86.01 L163.84,86.91 L164.33,87.81 L164.81,88.71 L165.30,89.62 L165.79,90.54 L166.27,91.46 L166.76,92.38 L167.24,93.30 L167.73,94.23 L168.22,95.16 L168.70,96.09 L169.19,97.02 L169.68,97.96 L170.16,98.89 L170.65,99.82 L171.13,100.75 L171.62,101.68 L172.11,102.61 L172.59,103.54 L173.08,104.46 L173.56,105.38 L174.05,106.30 L174.54,107.22 L175.02,108.13 L175.51,109.03 L176.00,109.93 L176.48,110.83 L176.97,111.72 L177.45,112.61 L177.94,113.49 L178.43,114.36 L178.91,115.23 L179.40,116.09 L179.88,116.94 L180.37,117.79 L180.86,118.63 L181.34,119.46 L181.83,120.28 L182.32,121.09 L182.80,121.90 L183.29,122.70 L183.77,123.49 L184.26,124.27 L184.75,125.04 L185.23,125.80 L185.72,126.55 L186.20,127.29 L186.69,128.02 L187.18,128.74 L187.66,129.45 L188.15,130.16 L188.64,130.85 L189.12,131.53 L189.61,132.20 L190.09,132.86 L190.58,133.51 L191.07,134.15 L191.55,134.78 L192.04,135.40 L192.53,136.01 L193.01,136.61 L193.50,137.20 L193.98,137.77 L194.47,138.34 L194.96,138.90 L195.44,139.44 L195.93,139.98 L196.41,140.50 L196.90,141.01 L197.39,141.52 L197.87,142.01 L198.36,142.50 L198.85,142.97 L199.33,143.43 L199.82,143.88 L200.30,144.33 L200.79,144.76 L201.28,145.19 L201.76,145.60 L202.25,146.00 L202.73,146.40 L203.22,146.79 L203.71,147.16 L204.19,147.53 L204.68,147.89 L205.17,148.24 L205.65,148.58 L206.14,148.91 L206.62,149.24 L207.11,149.55 L207.60,149.86 L208.08,150.16 L208.57,150.45 L209.06,150.73 L209.54,151.01 L210.03,151.28 L210.51,151.54 L211.00,151.79 L211.49,152.04 L211.97,152.27 L212.46,152.51 L212.94,152.73 L213.43,152.95 L213.92,153.16 L214.40,153.37 L214.89,153.57 L215.38,153.76 L215.86,153.95 L216.35,154.13 L216.83,154.31 L217.32,154.48 L217.81,154.64 L218.29,154.80 L218.78,154.96 L219.26,155.11 L219.75,155.25 L220.24,155.39 L220.72,155.53 L221.21,155.66 L221.70,155.78 L222.18,155.91 L222.67,156.02 L223.15,156.14 L223.64,156.25 L224.13,156.35 L224.61,156.46 L225.10,156.55 L225.59,156.65 L226.07,156.74 L226.56,156.83 L227.04,156.91 L227.53,157.00 L228.02,157.07 L228.50,157.15 L228.99,157.22 L229.47,157.29 L229.96,157.36 L230.45,157.42 L230.93,157.49 L231.42,157.55 L231.91,157.60 L232.39,157.66 L232.88,157.71 L233.36,157.76 L233.85,157.81 L234.34,157.86 L234.82,157.90 L235.31,157.95 L235.79,157.99 L236.28,158.03 L236.77,158.07 L237.25,158.10 L237.74,158.14 L238.23,158.17 L238.71,158.20 L239.20,158.23 L239.68,158.26 L240.17,158.29 L240.66,158.32 L241.14,158.34 L241.63,158.37 L242.12,158.39 L242.60,158.41 L243.09,158.43 L243.57,158.45 L244.06,158.47 L244.55,158.49 L245.03,158.51 L245.52,158.53 L246.00,158.54 L246.49,158.56 L246.98,158.57 L247.46,158.59 L247.95,158.60 L248.44,158.61 L248.92,158.62 L249.41,158.64 L249.89,158.65 L250.38,158.66 L250.87,158.67 L251.35,158.68 L251.84,158.68 L252.32,158.69 L252.81,158.70 L253.30,158.71 L253.78,158.72 L254.27,158.72 L254.76,158.73 L255.24,158.74 L255.73,158.74 L256.21,158.75 L256.70,158.75 L257.19,158.76 L257.67,158.76 L258.16,158.77 L258.65,158.77 L259.13,158.77 L259.62,158.78 L260.10,158.78 L260.59,158.79 L261.08,158.79 L261.56,158.79 L262.05,158.79 L262.53,158.80 L263.02,158.80 L263.51,158.80 L263.99,158.80 L264.48,158.81 L264.97,158.81 L265.45,158.81 L265.94,158.81 L266.42,158.81 L266.91,158.82 L267.40,158.82 L267.88,158.82 L268.37,158.82 L268.85,158.82 L269.34,158.82 L269.83,158.82 L270.31,158.82 L270.80,158.83 L271.29,158.83 L271.77,158.83 L272.26,158.83 L272.74,158.83 L273.23,158.83 L273.72,158.83 L274.20,158.83 L274.69,158.83 L275.17,158.83 L275.66,158.83 L276.15,158.83 L276.63,158.83 L277.12,158.83 L277.61,158.84 L278.09,158.84 L278.58,158.84 L279.06,158.84 L279.55,158.84 L280.04,158.84 L280.52,158.84 L281.01,158.84 L281.50,158.84 L281.98,158.84 L282.47,158.84 L282.95,158.84 L283.44,158.84 L283.93,158.84 L284.41,158.84 L284.90,158.84 L285.38,158.84 L285.87,158.84 L286.36,158.84 L286.84,158.84 L287.33,158.84 L287.82,158.84 L288.30,158.84 L288.79,158.84 L289.27,158.84 L289.76,158.84 L290.25,158.84 L290.73,158.84 L291.22,158.84 L291.70,158.84 L292.19,158.84 L292.68,158.84 L293.16,158.84 L293.65,158.84 L294.14,158.84 L294.62,158.84 L295.11,158.84 L295.59,158.84 L296.08,158.84 L296.57,158.84 L297.05,158.84 L297.54,158.84 L298.03,158.84 L298.51,158.84 L299.00,158.84 L299.48,158.84 L299.97,158.84 L300.46,158.84 L300.94,158.84 L301.43,158.84 L301.91,158.84 L302.40,158.84 L302.89,158.84 L303.37,158.84" style="stroke-width: 2; stroke: rgb(74, 144, 226); stroke-opacity: 1;"/></g></g><g class="test-xtl" style="font-family: &quot;Open Sans&quot;, verdana, arial, sans-serif;"/><g class="test-ytl" style="font-family: &quot;Open Sans&quot;, verdana, arial, sans-serif;"/><rect class="real" x="1" y="1" width="310.5" height="165" style="fill: transparent; stroke: none;"/></g></g></g><g/></g><g/><g/><g/></svg>
        <svg xmlns="http://www.w3.org/2000/svg" xmlns:xlink="http://www.w3.org/1999/xlink" width="322" height="182" style="width:322px;height:182px;font-family:Asana-Math, Asana;background:#FFF;"></svg>
</svg>
