<svg xmlns="http://www.w3.org/2000/svg" xmlns:xlink="http://www.w3.org/1999/xlink" x="0" y="0" width="310" height="167" style="
        width:310px;
        height:167px;
        background: #FFF;
        fill: none;
">
        <svg xmlns="http://www.w3.org/2000/svg"/>
        
        <svg xmlns="http://www.w3.org/2000/svg" class="role-diagram-draw-area"><g class="shapes-region" style="stroke: black; fill: none;"><g class="composite-shape" data-amt="diagram/shapes/plot" transform="matrix(1,0,0,1,7.000000000000028,5)"><g><g/><g><g class="test-xti" style="font-family: Asana-Math, Asana;"><line x1="0" y1="138.276635927142" x2="298" y2="138.276635927142" fill="none" stroke="rgb(50,50,50)" stroke-opacity="1" stroke-width="1"/><path d="M293,134.676635927142 L301,138.276635927142 L293,141.876635927142 Z" stroke="none" stroke-width="1" fill="rgb(50,50,50)" fill-opacity="1"/></g><g class="test-yti" style="font-family: Asana-Math, Asana;"><line x1="16.409984221443935" y1="4" x2="16.409984221443935" y2="152.00000000000006" fill="none" stroke="rgb(50,50,50)" stroke-opacity="1" stroke-width="1"/><path d="M12.809984221443935,9 L16.409984221443935,1 L20.009984221443936,9 Z" stroke="none" stroke-width="1" fill="rgb(50,50,50)" fill-opacity="1"/></g><g class="test-plot-expression"><defs><clipPath id="cpuh3p3i8ro"><rect x="1" y="1" width="300" height="150.00000000000006"/></clipPath></defs><g clip-path="url(#cpuh3p3i8ro)"><path d=" M16.41,17.91 L16.87,19.13 L17.33,20.33 L17.79,21.53 L18.25,22.71 L18.71,23.88 L19.16,25.03 L19.62,26.18 L20.08,27.31 L20.54,28.44 L21.00,29.55 L21.46,30.65 L21.92,31.74 L22.38,32.82 L22.84,33.88 L23.30,34.94 L23.76,35.99 L24.21,37.02 L24.67,38.05 L25.13,39.06 L25.59,40.06 L26.05,41.06 L26.51,42.04 L26.97,43.02 L27.43,43.98 L27.89,44.93 L28.35,45.88 L28.81,46.81 L29.27,47.74 L29.72,48.66 L30.18,49.56 L30.64,50.46 L31.10,51.35 L31.56,52.23 L32.02,53.10 L32.48,53.96 L32.94,54.81 L33.40,55.66 L33.86,56.50 L34.32,57.32 L34.77,58.14 L35.23,58.95 L35.69,59.76 L36.15,60.55 L36.61,61.34 L37.07,62.12 L37.53,62.89 L37.99,63.65 L38.45,64.40 L38.91,65.15 L39.37,65.89 L39.83,66.62 L40.28,67.35 L40.74,68.07 L41.20,68.78 L41.66,69.48 L42.12,70.18 L42.58,70.87 L43.04,71.55 L43.50,72.22 L43.96,72.89 L44.42,73.55 L44.88,74.21 L45.33,74.86 L45.79,75.50 L46.25,76.13 L46.71,76.76 L47.17,77.39 L47.63,78.00 L48.09,78.61 L48.55,79.22 L49.01,79.81 L49.47,80.41 L49.93,80.99 L50.38,81.57 L50.84,82.14 L51.30,82.71 L51.76,83.27 L52.22,83.83 L52.68,84.38 L53.14,84.93 L53.60,85.47 L54.06,86.00 L54.52,86.53 L54.98,87.05 L55.44,87.57 L55.89,88.09 L56.35,88.59 L56.81,89.10 L57.27,89.59 L57.73,90.09 L58.19,90.57 L58.65,91.06 L59.11,91.54 L59.57,92.01 L60.03,92.48 L60.49,92.94 L60.94,93.40 L61.40,93.85 L61.86,94.30 L62.32,94.75 L62.78,95.19 L63.24,95.62 L63.70,96.06 L64.16,96.48 L64.62,96.91 L65.08,97.32 L65.54,97.74 L65.99,98.15 L66.45,98.56 L66.91,98.96 L67.37,99.36 L67.83,99.75 L68.29,100.14 L68.75,100.53 L69.21,100.91 L69.67,101.29 L70.13,101.66 L70.59,102.03 L71.05,102.40 L71.50,102.76 L71.96,103.12 L72.42,103.48 L72.88,103.83 L73.34,104.18 L73.80,104.52 L74.26,104.86 L74.72,105.20 L75.18,105.54 L75.64,105.87 L76.10,106.20 L76.55,106.52 L77.01,106.84 L77.47,107.16 L77.93,107.47 L78.39,107.79 L78.85,108.09 L79.31,108.40 L79.77,108.70 L80.23,109.00 L80.69,109.30 L81.15,109.59 L81.60,109.88 L82.06,110.17 L82.52,110.45 L82.98,110.73 L83.44,111.01 L83.90,111.29 L84.36,111.56 L84.82,111.83 L85.28,112.10 L85.74,112.37 L86.20,112.63 L86.66,112.89 L87.11,113.14 L87.57,113.40 L88.03,113.65 L88.49,113.90 L88.95,114.15 L89.41,114.39 L89.87,114.63 L90.33,114.87 L90.79,115.11 L91.25,115.34 L91.71,115.57 L92.16,115.80 L92.62,116.03 L93.08,116.26 L93.54,116.48 L94.00,116.70 L94.46,116.92 L94.92,117.13 L95.38,117.35 L95.84,117.56 L96.30,117.77 L96.76,117.98 L97.21,118.18 L97.67,118.39 L98.13,118.59 L98.59,118.79 L99.05,118.98 L99.51,119.18 L99.97,119.37 L100.43,119.56 L100.89,119.75 L101.35,119.94 L101.81,120.13 L102.27,120.31 L102.72,120.49 L103.18,120.67 L103.64,120.85 L104.10,121.03 L104.56,121.20 L105.02,121.37 L105.48,121.54 L105.94,121.71 L106.40,121.88 L106.86,122.05 L107.32,122.21 L107.77,122.37 L108.23,122.54 L108.69,122.69 L109.15,122.85 L109.61,123.01 L110.07,123.16 L110.53,123.32 L110.99,123.47 L111.45,123.62 L111.91,123.77 L112.37,123.91 L112.82,124.06 L113.28,124.20 L113.74,124.34 L114.20,124.49 L114.66,124.62 L115.12,124.76 L115.58,124.90 L116.04,125.03 L116.50,125.17 L116.96,125.30 L117.42,125.43 L117.88,125.56 L118.33,125.69 L118.79,125.82 L119.25,125.94 L119.71,126.07 L120.17,126.19 L120.63,126.32 L121.09,126.44 L121.55,126.56 L122.01,126.67 L122.47,126.79 L122.93,126.91 L123.38,127.02 L123.84,127.14 L124.30,127.25 L124.76,127.36 L125.22,127.47 L125.68,127.58 L126.14,127.69 L126.60,127.80 L127.06,127.90 L127.52,128.01 L127.98,128.11 L128.43,128.21 L128.89,128.32 L129.35,128.42 L129.81,128.52 L130.27,128.62 L130.73,128.71 L131.19,128.81 L131.65,128.91 L132.11,129.00 L132.57,129.09 L133.03,129.19 L133.49,129.28 L133.94,129.37 L134.40,129.46 L134.86,129.55 L135.32,129.64 L135.78,129.73 L136.24,129.81 L136.70,129.90 L137.16,129.98 L137.62,130.07 L138.08,130.15 L138.54,130.23 L138.99,130.31 L139.45,130.39 L139.91,130.47 L140.37,130.55 L140.83,130.63 L141.29,130.71 L141.75,130.79 L142.21,130.86 L142.67,130.94 L143.13,131.01 L143.59,131.08 L144.04,131.16 L144.50,131.23 L144.96,131.30 L145.42,131.37 L145.88,131.44 L146.34,131.51 L146.80,131.58 L147.26,131.65 L147.72,131.71 L148.18,131.78 L148.64,131.85 L149.10,131.91 L149.55,131.97 L150.01,132.04 L150.47,132.10 L150.93,132.16 L151.39,132.23 L151.85,132.29 L152.31,132.35 L152.77,132.41 L153.23,132.47 L153.69,132.53 L154.15,132.58 L154.60,132.64 L155.06,132.70 L155.52,132.76 L155.98,132.81 L156.44,132.87 L156.90,132.92 L157.36,132.98 L157.82,133.03 L158.28,133.08 L158.74,133.13 L159.20,133.19 L159.65,133.24 L160.11,133.29 L160.57,133.34 L161.03,133.39 L161.49,133.44 L161.95,133.49 L162.41,133.54 L162.87,133.58 L163.33,133.63 L163.79,133.68 L164.25,133.73 L164.71,133.77 L165.16,133.82 L165.62,133.86 L166.08,133.91 L166.54,133.95 L167.00,133.99 L167.46,134.04 L167.92,134.08 L168.38,134.12 L168.84,134.17 L169.30,134.21 L169.76,134.25 L170.21,134.29 L170.67,134.33 L171.13,134.37 L171.59,134.41 L172.05,134.45 L172.51,134.49 L172.97,134.53 L173.43,134.56 L173.89,134.60 L174.35,134.64 L174.81,134.67 L175.26,134.71 L175.72,134.75 L176.18,134.78 L176.64,134.82 L177.10,134.85 L177.56,134.89 L178.02,134.92 L178.48,134.96 L178.94,134.99 L179.40,135.02 L179.86,135.06 L180.32,135.09 L180.77,135.12 L181.23,135.15 L181.69,135.18 L182.15,135.22 L182.61,135.25 L183.07,135.28 L183.53,135.31 L183.99,135.34 L184.45,135.37 L184.91,135.40 L185.37,135.43 L185.82,135.45 L186.28,135.48 L186.74,135.51 L187.20,135.54 L187.66,135.57 L188.12,135.59 L188.58,135.62 L189.04,135.65 L189.50,135.68 L189.96,135.70 L190.42,135.73 L190.87,135.75 L191.33,135.78 L191.79,135.80 L192.25,135.83 L192.71,135.85 L193.17,135.88 L193.63,135.90 L194.09,135.93 L194.55,135.95 L195.01,135.97 L195.47,136.00 L195.93,136.02 L196.38,136.04 L196.84,136.07 L197.30,136.09 L197.76,136.11 L198.22,136.13 L198.68,136.15 L199.14,136.18 L199.60,136.20 L200.06,136.22 L200.52,136.24 L200.98,136.26 L201.43,136.28 L201.89,136.30 L202.35,136.32 L202.81,136.34 L203.27,136.36 L203.73,136.38 L204.19,136.40 L204.65,136.42 L205.11,136.44 L205.57,136.45 L206.03,136.47 L206.49,136.49 L206.94,136.51 L207.40,136.53 L207.86,136.54 L208.32,136.56 L208.78,136.58 L209.24,136.60 L209.70,136.61 L210.16,136.63 L210.62,136.65 L211.08,136.66 L211.54,136.68 L211.99,136.70 L212.45,136.71 L212.91,136.73 L213.37,136.74 L213.83,136.76 L214.29,136.77 L214.75,136.79 L215.21,136.81 L215.67,136.82 L216.13,136.83 L216.59,136.85 L217.04,136.86 L217.50,136.88 L217.96,136.89 L218.42,136.91 L218.88,136.92 L219.34,136.93 L219.80,136.95 L220.26,136.96 L220.72,136.97 L221.18,136.99 L221.64,137.00 L222.10,137.01 L222.55,137.03 L223.01,137.04 L223.47,137.05 L223.93,137.06 L224.39,137.08 L224.85,137.09 L225.31,137.10 L225.77,137.11 L226.23,137.12 L226.69,137.14 L227.15,137.15 L227.60,137.16 L228.06,137.17 L228.52,137.18 L228.98,137.19 L229.44,137.20 L229.90,137.21 L230.36,137.22 L230.82,137.24 L231.28,137.25 L231.74,137.26 L232.20,137.27 L232.65,137.28 L233.11,137.29 L233.57,137.30 L234.03,137.31 L234.49,137.32 L234.95,137.33 L235.41,137.34 L235.87,137.35 L236.33,137.35 L236.79,137.36 L237.25,137.37 L237.71,137.38 L238.16,137.39 L238.62,137.40 L239.08,137.41 L239.54,137.42 L240.00,137.43 L240.46,137.44 L240.92,137.44 L241.38,137.45 L241.84,137.46 L242.30,137.47 L242.76,137.48 L243.21,137.49 L243.67,137.49 L244.13,137.50 L244.59,137.51 L245.05,137.52 L245.51,137.52 L245.97,137.53 L246.43,137.54 L246.89,137.55 L247.35,137.55 L247.81,137.56 L248.26,137.57 L248.72,137.58 L249.18,137.58 L249.64,137.59 L250.10,137.60 L250.56,137.60 L251.02,137.61 L251.48,137.62 L251.94,137.62 L252.40,137.63 L252.86,137.64 L253.32,137.64 L253.77,137.65 L254.23,137.66 L254.69,137.66 L255.15,137.67 L255.61,137.68 L256.07,137.68 L256.53,137.69 L256.99,137.69 L257.45,137.70 L257.91,137.71 L258.37,137.71 L258.82,137.72 L259.28,137.72 L259.74,137.73 L260.20,137.73 L260.66,137.74 L261.12,137.74 L261.58,137.75 L262.04,137.76 L262.50,137.76 L262.96,137.77 L263.42,137.77 L263.87,137.78 L264.33,137.78 L264.79,137.79 L265.25,137.79 L265.71,137.80 L266.17,137.80 L266.63,137.81 L267.09,137.81 L267.55,137.82 L268.01,137.82 L268.47,137.82 L268.93,137.83 L269.38,137.83 L269.84,137.84 L270.30,137.84 L270.76,137.85 L271.22,137.85 L271.68,137.86 L272.14,137.86 L272.60,137.86 L273.06,137.87 L273.52,137.87 L273.98,137.88 L274.43,137.88 L274.89,137.88 L275.35,137.89 L275.81,137.89 L276.27,137.90 L276.73,137.90 L277.19,137.90 L277.65,137.91 L278.11,137.91 L278.57,137.92 L279.03,137.92 L279.48,137.92 L279.94,137.93 L280.40,137.93 L280.86,137.93 L281.32,137.94 L281.78,137.94 L282.24,137.94 L282.70,137.95 L283.16,137.95 L283.62,137.95 L284.08,137.96 L284.54,137.96 L284.99,137.96 L285.45,137.97 L285.91,137.97 L286.37,137.97 L286.83,137.98 L287.29,137.98 L287.75,137.98 L288.21,137.98 L288.67,137.99 L289.13,137.99 L289.59,137.99 L290.04,138.00 L290.50,138.00 L290.96,138.00 L291.42,138.00 L291.88,138.01 L292.34,138.01 L292.80,138.01 L293.26,138.02" style="stroke-width: 2; stroke: rgb(1, 103, 223); stroke-opacity: 0.8;"/><path d=" M16.41,138.28 L16.87,137.06 L17.33,135.85 L17.79,134.66 L18.25,133.48 L18.71,132.31 L19.16,131.15 L19.62,130.00 L20.08,128.87 L20.54,127.75 L21.00,126.64 L21.46,125.54 L21.92,124.45 L22.38,123.37 L22.84,122.30 L23.30,121.24 L23.76,120.20 L24.21,119.16 L24.67,118.14 L25.13,117.12 L25.59,116.12 L26.05,115.13 L26.51,114.14 L26.97,113.17 L27.43,112.20 L27.89,111.25 L28.35,110.31 L28.81,109.37 L29.27,108.45 L29.72,107.53 L30.18,106.62 L30.64,105.72 L31.10,104.84 L31.56,103.96 L32.02,103.09 L32.48,102.22 L32.94,101.37 L33.40,100.53 L33.86,99.69 L34.32,98.86 L34.77,98.04 L35.23,97.23 L35.69,96.43 L36.15,95.63 L36.61,94.85 L37.07,94.07 L37.53,93.30 L37.99,92.54 L38.45,91.78 L38.91,91.03 L39.37,90.29 L39.83,89.56 L40.28,88.83 L40.74,88.12 L41.20,87.41 L41.66,86.70 L42.12,86.01 L42.58,85.32 L43.04,84.64 L43.50,83.96 L43.96,83.29 L44.42,82.63 L44.88,81.98 L45.33,81.33 L45.79,80.69 L46.25,80.05 L46.71,79.42 L47.17,78.80 L47.63,78.18 L48.09,77.57 L48.55,76.97 L49.01,76.37 L49.47,75.78 L49.93,75.19 L50.38,74.61 L50.84,74.04 L51.30,73.47 L51.76,72.91 L52.22,72.35 L52.68,71.80 L53.14,71.26 L53.60,70.72 L54.06,70.18 L54.52,69.65 L54.98,69.13 L55.44,68.61 L55.89,68.10 L56.35,67.59 L56.81,67.09 L57.27,66.59 L57.73,66.10 L58.19,65.61 L58.65,65.13 L59.11,64.65 L59.57,64.18 L60.03,63.71 L60.49,63.24 L60.94,62.79 L61.40,62.33 L61.86,61.88 L62.32,61.44 L62.78,61.00 L63.24,60.56 L63.70,60.13 L64.16,59.70 L64.62,59.28 L65.08,58.86 L65.54,58.45 L65.99,58.03 L66.45,57.63 L66.91,57.23 L67.37,56.83 L67.83,56.44 L68.29,56.05 L68.75,55.66 L69.21,55.28 L69.67,54.90 L70.13,54.52 L70.59,54.15 L71.05,53.79 L71.50,53.42 L71.96,53.06 L72.42,52.71 L72.88,52.36 L73.34,52.01 L73.80,51.66 L74.26,51.32 L74.72,50.98 L75.18,50.65 L75.64,50.32 L76.10,49.99 L76.55,49.66 L77.01,49.34 L77.47,49.03 L77.93,48.71 L78.39,48.40 L78.85,48.09 L79.31,47.78 L79.77,47.48 L80.23,47.18 L80.69,46.89 L81.15,46.59 L81.60,46.30 L82.06,46.02 L82.52,45.73 L82.98,45.45 L83.44,45.17 L83.90,44.90 L84.36,44.62 L84.82,44.35 L85.28,44.08 L85.74,43.82 L86.20,43.56 L86.66,43.30 L87.11,43.04 L87.57,42.79 L88.03,42.53 L88.49,42.29 L88.95,42.04 L89.41,41.79 L89.87,41.55 L90.33,41.31 L90.79,41.08 L91.25,40.84 L91.71,40.61 L92.16,40.38 L92.62,40.15 L93.08,39.93 L93.54,39.70 L94.00,39.48 L94.46,39.27 L94.92,39.05 L95.38,38.84 L95.84,38.62 L96.30,38.41 L96.76,38.21 L97.21,38.00 L97.67,37.80 L98.13,37.60 L98.59,37.40 L99.05,37.20 L99.51,37.01 L99.97,36.81 L100.43,36.62 L100.89,36.43 L101.35,36.24 L101.81,36.06 L102.27,35.87 L102.72,35.69 L103.18,35.51 L103.64,35.33 L104.10,35.16 L104.56,34.98 L105.02,34.81 L105.48,34.64 L105.94,34.47 L106.40,34.30 L106.86,34.14 L107.32,33.97 L107.77,33.81 L108.23,33.65 L108.69,33.49 L109.15,33.33 L109.61,33.18 L110.07,33.02 L110.53,32.87 L110.99,32.72 L111.45,32.57 L111.91,32.42 L112.37,32.27 L112.82,32.13 L113.28,31.98 L113.74,31.84 L114.20,31.70 L114.66,31.56 L115.12,31.42 L115.58,31.28 L116.04,31.15 L116.50,31.02 L116.96,30.88 L117.42,30.75 L117.88,30.62 L118.33,30.49 L118.79,30.37 L119.25,30.24 L119.71,30.11 L120.17,29.99 L120.63,29.87 L121.09,29.75 L121.55,29.63 L122.01,29.51 L122.47,29.39 L122.93,29.28 L123.38,29.16 L123.84,29.05 L124.30,28.93 L124.76,28.82 L125.22,28.71 L125.68,28.60 L126.14,28.49 L126.60,28.39 L127.06,28.28 L127.52,28.18 L127.98,28.07 L128.43,27.97 L128.89,27.87 L129.35,27.77 L129.81,27.67 L130.27,27.57 L130.73,27.47 L131.19,27.37 L131.65,27.28 L132.11,27.18 L132.57,27.09 L133.03,27.00 L133.49,26.90 L133.94,26.81 L134.40,26.72 L134.86,26.63 L135.32,26.55 L135.78,26.46 L136.24,26.37 L136.70,26.29 L137.16,26.20 L137.62,26.12 L138.08,26.03 L138.54,25.95 L138.99,25.87 L139.45,25.79 L139.91,25.71 L140.37,25.63 L140.83,25.55 L141.29,25.48 L141.75,25.40 L142.21,25.32 L142.67,25.25 L143.13,25.17 L143.59,25.10 L144.04,25.03 L144.50,24.96 L144.96,24.88 L145.42,24.81 L145.88,24.74 L146.34,24.67 L146.80,24.61 L147.26,24.54 L147.72,24.47 L148.18,24.41 L148.64,24.34 L149.10,24.27 L149.55,24.21 L150.01,24.15 L150.47,24.08 L150.93,24.02 L151.39,23.96 L151.85,23.90 L152.31,23.84 L152.77,23.78 L153.23,23.72 L153.69,23.66 L154.15,23.60 L154.60,23.54 L155.06,23.49 L155.52,23.43 L155.98,23.37 L156.44,23.32 L156.90,23.26 L157.36,23.21 L157.82,23.16 L158.28,23.10 L158.74,23.05 L159.20,23.00 L159.65,22.95 L160.11,22.90 L160.57,22.84 L161.03,22.79 L161.49,22.75 L161.95,22.70 L162.41,22.65 L162.87,22.60 L163.33,22.55 L163.79,22.51 L164.25,22.46 L164.71,22.41 L165.16,22.37 L165.62,22.32 L166.08,22.28 L166.54,22.23 L167.00,22.19 L167.46,22.15 L167.92,22.10 L168.38,22.06 L168.84,22.02 L169.30,21.98 L169.76,21.94 L170.21,21.90 L170.67,21.85 L171.13,21.81 L171.59,21.78 L172.05,21.74 L172.51,21.70 L172.97,21.66 L173.43,21.62 L173.89,21.58 L174.35,21.55 L174.81,21.51 L175.26,21.47 L175.72,21.44 L176.18,21.40 L176.64,21.37 L177.10,21.33 L177.56,21.30 L178.02,21.26 L178.48,21.23 L178.94,21.19 L179.40,21.16 L179.86,21.13 L180.32,21.10 L180.77,21.06 L181.23,21.03 L181.69,21.00 L182.15,20.97 L182.61,20.94 L183.07,20.91 L183.53,20.88 L183.99,20.85 L184.45,20.82 L184.91,20.79 L185.37,20.76 L185.82,20.73 L186.28,20.70 L186.74,20.67 L187.20,20.64 L187.66,20.62 L188.12,20.59 L188.58,20.56 L189.04,20.54 L189.50,20.51 L189.96,20.48 L190.42,20.46 L190.87,20.43 L191.33,20.41 L191.79,20.38 L192.25,20.35 L192.71,20.33 L193.17,20.31 L193.63,20.28 L194.09,20.26 L194.55,20.23 L195.01,20.21 L195.47,20.19 L195.93,20.16 L196.38,20.14 L196.84,20.12 L197.30,20.10 L197.76,20.07 L198.22,20.05 L198.68,20.03 L199.14,20.01 L199.60,19.99 L200.06,19.97 L200.52,19.95 L200.98,19.92 L201.43,19.90 L201.89,19.88 L202.35,19.86 L202.81,19.84 L203.27,19.82 L203.73,19.81 L204.19,19.79 L204.65,19.77 L205.11,19.75 L205.57,19.73 L206.03,19.71 L206.49,19.69 L206.94,19.68 L207.40,19.66 L207.86,19.64 L208.32,19.62 L208.78,19.60 L209.24,19.59 L209.70,19.57 L210.16,19.55 L210.62,19.54 L211.08,19.52 L211.54,19.50 L211.99,19.49 L212.45,19.47 L212.91,19.46 L213.37,19.44 L213.83,19.42 L214.29,19.41 L214.75,19.39 L215.21,19.38 L215.67,19.36 L216.13,19.35 L216.59,19.34 L217.04,19.32 L217.50,19.31 L217.96,19.29 L218.42,19.28 L218.88,19.26 L219.34,19.25 L219.80,19.24 L220.26,19.22 L220.72,19.21 L221.18,19.20 L221.64,19.18 L222.10,19.17 L222.55,19.16 L223.01,19.15 L223.47,19.13 L223.93,19.12 L224.39,19.11 L224.85,19.10 L225.31,19.08 L225.77,19.07 L226.23,19.06 L226.69,19.05 L227.15,19.04 L227.60,19.03 L228.06,19.01 L228.52,19.00 L228.98,18.99 L229.44,18.98 L229.90,18.97 L230.36,18.96 L230.82,18.95 L231.28,18.94 L231.74,18.93 L232.20,18.92 L232.65,18.91 L233.11,18.90 L233.57,18.89 L234.03,18.88 L234.49,18.87 L234.95,18.86 L235.41,18.85 L235.87,18.84 L236.33,18.83 L236.79,18.82 L237.25,18.81 L237.71,18.80 L238.16,18.79 L238.62,18.78 L239.08,18.77 L239.54,18.77 L240.00,18.76 L240.46,18.75 L240.92,18.74 L241.38,18.73 L241.84,18.72 L242.30,18.72 L242.76,18.71 L243.21,18.70 L243.67,18.69 L244.13,18.68 L244.59,18.68 L245.05,18.67 L245.51,18.66 L245.97,18.65 L246.43,18.64 L246.89,18.64 L247.35,18.63 L247.81,18.62 L248.26,18.62 L248.72,18.61 L249.18,18.60 L249.64,18.59 L250.10,18.59 L250.56,18.58 L251.02,18.57 L251.48,18.57 L251.94,18.56 L252.40,18.55 L252.86,18.55 L253.32,18.54 L253.77,18.53 L254.23,18.53 L254.69,18.52 L255.15,18.52 L255.61,18.51 L256.07,18.50 L256.53,18.50 L256.99,18.49 L257.45,18.49 L257.91,18.48 L258.37,18.47 L258.82,18.47 L259.28,18.46 L259.74,18.46 L260.20,18.45 L260.66,18.45 L261.12,18.44 L261.58,18.43 L262.04,18.43 L262.50,18.42 L262.96,18.42 L263.42,18.41 L263.87,18.41 L264.33,18.40 L264.79,18.40 L265.25,18.39 L265.71,18.39 L266.17,18.38 L266.63,18.38 L267.09,18.37 L267.55,18.37 L268.01,18.36 L268.47,18.36 L268.93,18.36 L269.38,18.35 L269.84,18.35 L270.30,18.34 L270.76,18.34 L271.22,18.33 L271.68,18.33 L272.14,18.32 L272.60,18.32 L273.06,18.32 L273.52,18.31 L273.98,18.31 L274.43,18.30 L274.89,18.30 L275.35,18.30 L275.81,18.29 L276.27,18.29 L276.73,18.28 L277.19,18.28 L277.65,18.28 L278.11,18.27 L278.57,18.27 L279.03,18.27 L279.48,18.26 L279.94,18.26 L280.40,18.25 L280.86,18.25 L281.32,18.25 L281.78,18.24 L282.24,18.24 L282.70,18.24 L283.16,18.23 L283.62,18.23 L284.08,18.23 L284.54,18.22 L284.99,18.22 L285.45,18.22 L285.91,18.22 L286.37,18.21 L286.83,18.21 L287.29,18.21 L287.75,18.20 L288.21,18.20 L288.67,18.20 L289.13,18.19 L289.59,18.19 L290.04,18.19 L290.50,18.19 L290.96,18.18 L291.42,18.18 L291.88,18.18 L292.34,18.17 L292.80,18.17 L293.26,18.17" style="stroke-width: 2; stroke: rgb(131, 210, 231); stroke-opacity: 1;"/></g></g><g class="test-xtl" style="font-family: &quot;Open Sans&quot;, verdana, arial, sans-serif;"/><g class="test-ytl" style="font-family: &quot;Open Sans&quot;, verdana, arial, sans-serif;"/><rect class="real" x="1" y="1" width="300" height="150.00000000000006" style="fill: transparent; stroke: none;"/></g></g></g><g/></g><g/><g/><g/></svg>
        <svg xmlns="http://www.w3.org/2000/svg" xmlns:xlink="http://www.w3.org/1999/xlink" width="308" height="165" style="width:308px;height:165px;font-family:Asana-Math, Asana;background:#FFF;"></svg>
</svg>
