<svg xmlns="http://www.w3.org/2000/svg" xmlns:xlink="http://www.w3.org/1999/xlink" x="0" y="0" width="162" height="27" style="
        width:162px;
        height:27px;
        background: transparent;
        fill: none;
">
        
        
        <svg xmlns="http://www.w3.org/2000/svg" class="role-diagram-draw-area"><g class="shapes-region" style="stroke: black; fill: none;"><g/></g><g/><g/><g/></svg>
        <svg xmlns="http://www.w3.org/2000/svg" xmlns:xlink="http://www.w3.org/1999/xlink" width="160" height="25" style="width:160px;height:25px;font-family:Asana-Math, Asana;background:transparent;"><g><g><g><g transform="matrix(1,0,0,1,3,17.9921875)"><path transform="matrix(0.017,0,0,-0.017,0,0)" d="M345 437L329 437L350 549C366 635 394 673 440 673C470 673 497 658 512 634L522 638C527 654 537 685 545 705L550 720C534 727 503 733 480 733C469 733 453 730 445 726C421 715 339 654 316 630C294 608 282 578 271 521L256 442C215 422 195 414 170 405L165 383L246 383L237 327C207 132 170 -54 148 -123C130 -182 100 -213 64 -213C41 -213 30 -206 12 -184L-2 -188C-6 -211 -20 -259 -25 -268C-16 -273 -1 -276 10 -276C51 -276 105 -245 144 -198C215 -114 235 -18 319 383L423 383C427 402 434 425 440 439L436 446C407 439 408 437 345 437Z" stroke="rgb(0,0,0)" stroke-opacity="1" stroke-width="8" fill="rgb(0,0,0)" fill-opacity="1"></path></g></g><g><g><g><g><g transform="matrix(1,0,0,1,12.859375,21.0015625)"><path transform="matrix(0.0119,0,0,-0.0119,0,0)" d="M610 344L590 354C572 293 540 240 470 240C388 240 318 355 224 355C132 355 82 300 58 216L80 207C104 261 142 300 204 300C286 300 346 186 448 186C550 186 596 251 610 344Z" stroke="rgb(0,0,0)" stroke-opacity="1" stroke-width="8" fill="rgb(0,0,0)" fill-opacity="1"></path></g></g></g></g></g><g><g transform="matrix(1,0,0,1,26.921875,17.9921875)"><path transform="matrix(0.017,0,0,-0.017,0,0)" d="M604 347L604 406L65 406L65 347ZM604 134L604 193L65 193L65 134Z" stroke="rgb(0,0,0)" stroke-opacity="1" stroke-width="8" fill="rgb(0,0,0)" fill-opacity="1"></path></g></g><g><g transform="matrix(1,0,0,1,43.375,17.9921875)"><path transform="matrix(0.017,0,0,-0.017,0,0)" d="M418 -3L418 27L366 30C311 33 301 44 301 96L301 700L60 598L67 548L217 614L217 96C217 44 206 33 152 30L96 27L96 -3C250 0 250 0 261 0C292 0 402 -3 418 -3ZM958 253C958 366 877 446 763 446C715 446 679 443 626 396L626 605L931 604L931 689L574 690L574 322L594 316C641 363 668 377 717 377C813 377 873 309 873 201C873 90 809 25 700 25C646 25 596 43 582 69L536 151L512 137C535 80 547 48 561 4C589 -11 629 -20 672 -20C800 -20 958 89 958 253ZM1166 345C1125 326 1108 315 1086 294C1048 256 1028 211 1028 159C1028 56 1111 -20 1224 -20C1354 -20 1462 82 1462 206C1462 286 1425 329 1311 381C1402 443 1434 485 1434 545C1434 631 1363 689 1257 689C1138 689 1051 613 1051 508C1051 440 1078 402 1166 345ZM1282 295C1345 267 1383 218 1383 164C1383 80 1320 14 1239 14C1154 14 1099 74 1099 167C1099 240 1128 286 1202 331ZM1221 423C1158 454 1126 494 1126 544C1126 610 1174 655 1245 655C1318 655 1366 607 1366 534C1366 477 1341 438 1276 396Z" stroke="rgb(0,0,0)" stroke-opacity="1" stroke-width="8" fill="rgb(0,0,0)" fill-opacity="1"></path></g></g><g><g transform="matrix(1,0,0,1,68.828125,17.9921875)"><path transform="matrix(0.017,0,0,-0.017,0,0)" d="M204 123C177 114 159 108 106 93C99 17 74 -48 16 -144L30 -155L71 -136C152 -31 190 32 218 109Z" stroke="rgb(0,0,0)" stroke-opacity="1" stroke-width="8" fill="rgb(0,0,0)" fill-opacity="1"></path></g></g><g><g transform="matrix(1,0,0,1,76.453125,17.9921875)"><path transform="matrix(0.017,0,0,-0.017,0,0)" d="M96 -20C207 16 255 39 309 85C406 168 457 283 457 417C457 586 376 689 244 689C116 689 20 589 20 455C20 340 95 256 199 256C233 256 272 267 290 282L360 340C352 172 243 49 62 5L62 -3ZM240 656C285 656 318 637 340 597C358 565 370 516 370 471C370 379 317 317 240 317C160 317 106 388 106 492C106 593 158 656 240 656ZM958 253C958 366 877 446 763 446C715 446 679 443 626 396L626 605L931 604L931 689L574 690L574 322L594 316C641 363 668 377 717 377C813 377 873 309 873 201C873 90 809 25 700 25C646 25 596 43 582 69L536 151L512 137C535 80 547 48 561 4C589 -11 629 -20 672 -20C800 -20 958 89 958 253ZM1261 689C1106 689 1027 566 1027 324C1027 207 1048 106 1083 57C1118 8 1174 -20 1236 -20C1387 -20 1463 110 1463 366C1463 585 1398 689 1261 689ZM1243 654C1340 654 1379 556 1379 316C1379 103 1341 15 1249 15C1152 15 1111 116 1111 360C1111 571 1148 654 1243 654Z" stroke="rgb(0,0,0)" stroke-opacity="1" stroke-width="8" fill="rgb(0,0,0)" fill-opacity="1"></path></g></g><g><g transform="matrix(1,0,0,1,101.90625,17.9921875)"><path transform="matrix(0.017,0,0,-0.017,0,0)" d="M732 120C732 41 728 34 681 30L647 27L647 -3C693 -1 723 0 775 0C831 0 867 -1 926 -3L926 27L878 30C832 33 827 41 827 120L827 569C827 647 832 656 878 659L920 662L920 692C844 689 844 689 827 689C812 689 812 689 732 692L470 136L206 692C126 689 126 689 111 689C96 689 96 689 16 692L16 662L60 659C106 656 111 647 111 569L111 120C111 42 106 33 60 30L16 27L16 -3C115 0 115 0 132 0C147 0 147 0 252 -3L252 27L208 30C162 33 157 42 157 120L157 578L436 -13L456 -13L732 578ZM1561 120C1561 41 1556 33 1510 30L1462 27L1462 -3C1521 -1 1556 0 1608 0C1660 0 1696 -1 1755 -3L1755 27L1707 30C1661 33 1656 41 1656 120L1656 569C1656 648 1661 656 1707 659L1755 662L1755 692C1682 689 1660 689 1608 689C1558 689 1534 690 1462 692L1462 662L1510 659C1556 656 1561 648 1561 569L1561 391C1540 390 1519 389 1478 389L1244 389C1203 389 1181 390 1161 391L1161 569C1161 648 1166 656 1212 659L1260 662L1260 692C1187 689 1165 689 1113 689C1063 689 1039 690 967 692L967 662L1015 659C1061 656 1066 648 1066 569L1066 120C1066 41 1061 33 1015 30L967 27L967 -3C1026 -1 1061 0 1113 0C1165 0 1201 -1 1260 -3L1260 27L1212 30C1166 33 1161 41 1161 120L1161 343L1561 343ZM2231 432L2231 462C2161 460 2131 459 2093 459L1845 462C1843 411 1842 399 1836 330L1866 330L1878 398C1882 419 1900 424 1974 424L2117 424C2096 391 2079 368 2052 334L1882 122L1792 17L1798 -3C1902 0 1908 0 1951 0L2227 -3C2227 20 2229 44 2236 92L2242 139L2212 139L2194 60C2190 42 2148 35 2052 35L1917 35Z" stroke="rgb(0,0,0)" stroke-opacity="1" stroke-width="8" fill="rgb(0,0,0)" fill-opacity="1"></path></g></g></g></g></svg>
</svg>
