<svg xmlns="http://www.w3.org/2000/svg" xmlns:xlink="http://www.w3.org/1999/xlink" x="0" y="0" width="340" height="226" style="
        width:340px;
        height:226px;
        background: #FFF;
        fill: none;
">
        <svg xmlns="http://www.w3.org/2000/svg"/>
        
        <svg xmlns="http://www.w3.org/2000/svg" class="role-diagram-draw-area"><g class="shapes-region" style="stroke: black; fill: none;"><g class="composite-shape" data-amt="diagram/shapes/plot" transform="matrix(1,0,0,1,6.999999999999986,5)"><g><g/><g><g class="test-xti" style="font-family: Asana-Math, Asana;"><line x1="0" y1="198.7710866914005" x2="321" y2="198.7710866914005" fill="none" stroke="rgb(50,50,50)" stroke-opacity="1" stroke-width="1"/><path d="M316,195.17108669140052 L324,198.7710866914005 L316,202.3710866914005 Z" stroke="none" stroke-width="1" fill="rgb(50,50,50)" fill-opacity="1"/></g><g class="test-yti" style="font-family: Asana-Math, Asana;"><line x1="17.333959273342003" y1="4" x2="17.333959273342003" y2="214" fill="none" stroke="rgb(50,50,50)" stroke-opacity="1" stroke-width="1"/><path d="M13.733959273342004,9 L17.333959273342003,1 L20.933959273342005,9 Z" stroke="none" stroke-width="1" fill="rgb(50,50,50)" fill-opacity="1"/></g><g class="test-plot-expression"><defs><clipPath id="cphs6tlbx51"><rect x="1" y="1" width="323" height="212"/></clipPath></defs><g clip-path="url(#cphs6tlbx51)"><path d=" M17.33,178.87 L17.40,178.55 L17.47,178.23 L17.54,177.92 L17.61,177.60 L17.68,177.29 L17.75,176.97 L17.82,176.66 L17.89,176.34 L17.95,176.03 L18.02,175.72 L18.09,175.41 L18.16,175.09 L18.23,174.78 L18.30,174.47 L18.37,174.16 L18.44,173.85 L18.51,173.54 L18.58,173.23 L18.64,172.92 L18.71,172.62 L18.78,172.31 L18.85,172.00 L18.92,171.70 L18.99,171.39 L19.06,171.08 L19.13,170.78 L19.20,170.47 L19.27,170.17 L19.33,169.87 L19.40,169.56 L19.47,169.26 L19.54,168.96 L19.61,168.66 L19.68,168.35 L19.75,168.05 L19.82,167.75 L19.89,167.45 L19.96,167.15 L20.02,166.85 L20.09,166.56 L20.16,166.26 L20.23,165.96 L20.30,165.66 L20.37,165.37 L20.44,165.07 L20.51,164.77 L20.58,164.48 L20.65,164.19 L20.71,163.89 L20.78,163.60 L20.85,163.30 L20.92,163.01 L20.99,162.72 L21.06,162.43 L21.13,162.14 L21.20,161.84 L21.27,161.55 L21.34,161.26 L21.40,160.98 L21.47,160.69 L21.54,160.40 L21.61,160.11 L21.68,159.82 L21.75,159.54 L21.82,159.25 L21.89,158.96 L21.96,158.68 L22.03,158.39 L22.09,158.11 L22.16,157.82 L22.23,157.54 L22.30,157.26 L22.37,156.97 L22.44,156.69 L22.51,156.41 L22.58,156.13 L22.65,155.85 L22.72,155.57 L22.78,155.29 L22.85,155.01 L22.92,154.73 L22.99,154.45 L23.06,154.17 L23.13,153.90 L23.20,153.62 L23.27,153.34 L23.34,153.07 L23.41,152.79 L23.47,152.52 L23.54,152.24 L23.61,151.97 L23.68,151.69 L23.75,151.42 L23.82,151.15 L23.89,150.88 L23.96,150.60 L24.03,150.33 L24.10,150.06 L24.16,149.79 L24.23,149.52 L24.30,149.25 L24.37,148.98 L24.44,148.72 L24.51,148.45 L24.58,148.18 L24.65,147.91 L24.72,147.65 L24.79,147.38 L24.85,147.11 L24.92,146.85 L24.99,146.59 L25.06,146.32 L25.13,146.06 L25.20,145.79 L25.27,145.53 L25.34,145.27 L25.41,145.01 L25.48,144.75 L25.54,144.49 L25.61,144.23 L25.68,143.97 L25.75,143.71 L25.82,143.45 L25.89,143.19 L25.96,142.93 L26.03,142.67 L26.10,142.42 L26.17,142.16 L26.23,141.91 L26.30,141.65 L26.37,141.40 L26.44,141.14 L26.51,140.89 L26.58,140.63 L26.65,140.38 L26.72,140.13 L26.79,139.88 L26.86,139.62 L26.92,139.37 L26.99,139.12 L27.06,138.87 L27.13,138.62 L27.20,138.37 L27.27,138.12 L27.34,137.88 L27.41,137.63 L27.48,137.38 L27.55,137.13 L27.61,136.89 L27.68,136.64 L27.75,136.40 L27.82,136.15 L27.89,135.91 L27.96,135.66 L28.03,135.42 L28.10,135.18 L28.17,134.93 L28.24,134.69 L28.30,134.45 L28.37,134.21 L28.44,133.97 L28.51,133.73 L28.58,133.49 L28.65,133.25 L28.72,133.01 L28.79,132.77 L28.86,132.54 L28.93,132.30 L28.99,132.06 L29.06,131.83 L29.13,131.59 L29.20,131.35 L29.27,131.12 L29.34,130.88 L29.41,130.65 L29.48,130.42 L29.55,130.18 L29.62,129.95 L29.68,129.72 L29.75,129.49 L29.82,129.26 L29.89,129.03 L29.96,128.80 L30.03,128.57 L30.10,128.34 L30.17,128.11 L30.24,127.88 L30.31,127.65 L30.37,127.43 L30.44,127.20 L30.51,126.97 L30.58,126.75 L30.65,126.52 L30.72,126.30 L30.79,126.07 L30.86,125.85 L30.93,125.63 L31.00,125.40 L31.06,125.18 L31.13,124.96 L31.20,124.74 L31.27,124.52 L31.34,124.30 L31.41,124.08 L31.48,123.86 L31.55,123.64 L31.62,123.42 L31.69,123.20 L31.75,122.98 L31.82,122.77 L31.89,122.55 L31.96,122.33 L32.03,122.12 L32.10,121.90 L32.17,121.69 L32.24,121.47 L32.31,121.26 L32.38,121.05 L32.44,120.83 L32.51,120.62 L32.58,120.41 L32.65,120.20 L32.72,119.99 L32.79,119.78 L32.86,119.57 L32.93,119.36 L33.00,119.15 L33.07,118.94 L33.13,118.73 L33.20,118.52 L33.27,118.32 L33.34,118.11 L33.41,117.90 L33.48,117.70 L33.55,117.49 L33.62,117.29 L33.69,117.08 L33.76,116.88 L33.82,116.68 L33.89,116.47 L33.96,116.27 L34.03,116.07 L34.10,115.87 L34.17,115.67 L34.24,115.47 L34.31,115.27 L34.38,115.07 L34.45,114.87 L34.51,114.67 L34.58,114.47 L34.65,114.27 L34.72,114.08 L34.79,113.88 L34.86,113.68 L34.93,113.49 L35.00,113.29 L35.07,113.10 L35.14,112.90 L35.20,112.71 L35.27,112.52 L35.34,112.32 L35.41,112.13 L35.48,111.94 L35.55,111.75 L35.62,111.56 L35.69,111.37 L35.76,111.18 L35.83,110.99 L35.89,110.80 L35.96,110.61 L36.03,110.42 L36.10,110.24 L36.17,110.05 L36.24,109.86 L36.31,109.68 L36.38,109.49 L36.45,109.31 L36.52,109.12 L36.58,108.94 L36.65,108.75 L36.72,108.57 L36.79,108.39 L36.86,108.20 L36.93,108.02 L37.00,107.84 L37.07,107.66 L37.14,107.48 L37.21,107.30 L37.27,107.12 L37.34,106.94 L37.41,106.76 L37.48,106.59 L37.55,106.41 L37.62,106.23 L37.69,106.05 L37.76,105.88 L37.83,105.70 L37.90,105.53 L37.96,105.35 L38.03,105.18 L38.10,105.01 L38.17,104.83 L38.24,104.66 L38.31,104.49 L38.38,104.32 L38.45,104.14 L38.52,103.97 L38.59,103.80 L38.65,103.63 L38.72,103.46 L38.79,103.30 L38.86,103.13 L38.93,102.96 L39.00,102.79 L39.07,102.63 L39.14,102.46 L39.21,102.29 L39.28,102.13 L39.34,101.96 L39.41,101.80 L39.48,101.63 L39.55,101.47 L39.62,101.31 L39.69,101.14 L39.76,100.98 L39.83,100.82 L39.90,100.66 L39.97,100.50 L40.03,100.34 L40.10,100.18 L40.17,100.02 L40.24,99.86 L40.31,99.70 L40.38,99.54 L40.45,99.39 L40.52,99.23 L40.59,99.07 L40.66,98.92 L40.72,98.76 L40.79,98.61 L40.86,98.45 L40.93,98.30 L41.00,98.15 L41.07,97.99 L41.14,97.84 L41.21,97.69 L41.28,97.54 L41.35,97.39 L41.41,97.23 L41.48,97.08 L41.55,96.93 L41.62,96.79 L41.69,96.64 L41.76,96.49 L41.83,96.34 L41.90,96.19 L41.97,96.05 L42.04,95.90 L42.10,95.75 L42.17,95.61 L42.24,95.46 L42.31,95.32 L42.38,95.18 L42.45,95.03 L42.52,94.89 L42.59,94.75 L42.66,94.60 L42.73,94.46 L42.79,94.32 L42.86,94.18 L42.93,94.04 L43.00,93.90 L43.07,93.76 L43.14,93.62 L43.21,93.49 L43.28,93.35 L43.35,93.21 L43.42,93.07 L43.48,92.94 L43.55,92.80 L43.62,92.67 L43.69,92.53 L43.76,92.40 L43.83,92.26 L43.90,92.13 L43.97,92.00 L44.04,91.86 L44.11,91.73 L44.17,91.60 L44.24,91.47 L44.31,91.34 L44.38,91.21 L44.45,91.08 L44.52,90.95 L44.59,90.82 L44.66,90.69 L44.73,90.57 L44.80,90.44 L44.86,90.31 L44.93,90.18 L45.00,90.06 L45.07,89.93 L45.14,89.81 L45.21,89.68 L45.28,89.56 L45.35,89.44 L45.42,89.31 L45.49,89.19 L45.55,89.07 L45.62,88.95 L45.69,88.83 L45.76,88.71 L45.83,88.59 L45.90,88.47 L45.97,88.35 L46.04,88.23 L46.11,88.11 L46.18,87.99 L46.24,87.88 L46.31,87.76 L46.38,87.64 L46.45,87.53 L46.52,87.41 L46.59,87.30 L46.66,87.18 L46.73,87.07 L46.80,86.96 L46.87,86.84 L46.93,86.73 L47.00,86.62 L47.07,86.51 L47.14,86.40 L47.21,86.29 L47.28,86.18 L47.35,86.07 L47.42,85.96 L47.49,85.85 L47.56,85.74 L47.62,85.63 L47.69,85.53 L47.76,85.42 L47.83,85.31 L47.90,85.21 L47.97,85.10 L48.04,85.00 L48.11,84.89 L48.18,84.79 L48.25,84.69 L48.31,84.58 L48.38,84.48 L48.45,84.38 L48.52,84.28 L48.59,84.18 L48.66,84.08 L48.73,83.98 L48.80,83.88 L48.87,83.78 L48.94,83.68 L49.00,83.58 L49.07,83.48 L49.14,83.39 L49.21,83.29 L49.28,83.19 L49.35,83.10 L49.42,83.00 L49.49,82.91 L49.56,82.81 L49.63,82.72 L49.69,82.63 L49.76,82.54 L49.83,82.44 L49.90,82.35 L49.97,82.26 L50.04,82.17 L50.11,82.08 L50.18,81.99 L50.25,81.90 L50.32,81.81 L50.38,81.72 L50.45,81.63 L50.52,81.55 L50.59,81.46 L50.66,81.37 L50.73,81.29 L50.80,81.20 L50.87,81.12 L50.94,81.03 L51.01,80.95 L51.07,80.86 L51.14,80.78 L51.21,80.70 L51.28,80.62 L51.35,80.53 L51.42,80.45 L51.49,80.37 L51.56,80.29 L51.63,80.21 L51.70,80.13 L51.76,80.05 L51.83,79.97 L51.90,79.90 L51.97,79.82 L52.04,79.74 L52.11,79.67 L52.18,79.59 L52.25,79.51 L52.32,79.44 L52.39,79.36 L52.45,79.29 L52.52,79.22 L52.59,79.14 L52.66,79.07 L52.73,79.00 L52.80,78.93 L52.87,78.86 L52.94,78.78 L53.01,78.71 L53.08,78.64 L53.14,78.58 L53.21,78.51 L53.28,78.44 L53.35,78.37 L53.42,78.30 L53.49,78.24 L53.56,78.17 L53.63,78.10 L53.70,78.04 L53.77,77.97 L53.83,77.91 L53.90,77.84 L53.97,77.78 L54.04,77.72 L54.11,77.65 L54.18,77.59 L54.25,77.53 L54.32,77.47 L54.39,77.41 L54.46,77.35 L54.52,77.29 L54.59,77.23 L54.66,77.17 L54.73,77.11 L54.80,77.05 L54.87,77.00 L54.94,76.94 L55.01,76.88 L55.08,76.83 L55.15,76.77 L55.21,76.72 L55.28,76.66 L55.35,76.61 L55.42,76.56 L55.49,76.50 L55.56,76.45 L55.63,76.40 L55.70,76.35 L55.77,76.30 L55.84,76.24 L55.90,76.19 L55.97,76.14 L56.04,76.10 L56.11,76.05 L56.18,76.00 L56.25,75.95 L56.32,75.90 L56.39,75.86 L56.46,75.81 L56.53,75.76 L56.59,75.72 L56.66,75.67 L56.73,75.63 L56.80,75.59 L56.87,75.54 L56.94,75.50 L57.01,75.46 L57.08,75.41 L57.15,75.37 L57.22,75.33 L57.28,75.29 L57.35,75.25 L57.42,75.21 L57.49,75.17 L57.56,75.13 L57.63,75.09 L57.70,75.06 L57.77,75.02 L57.84,74.98 L57.91,74.95 L57.97,74.91 L58.04,74.88 L58.11,74.84 L58.18,74.81 L58.25,74.77 L58.32,74.74 L58.39,74.71 L58.46,74.67 L58.53,74.64 L58.60,74.61 L58.66,74.58 L58.73,74.55 L58.80,74.52 L58.87,74.49 L58.94,74.46 L59.01,74.43 L59.08,74.40 L59.15,74.37 L59.22,74.35 L59.29,74.32 L59.35,74.29 L59.42,74.27 L59.49,74.24 L59.56,74.22 L59.63,74.19 L59.70,74.17 L59.77,74.15 L59.84,74.12 L59.91,74.10 L59.98,74.08 L60.04,74.06 L60.11,74.04 L60.18,74.02 L60.25,74.00 L60.32,73.98 L60.39,73.96 L60.46,73.94 L60.53,73.92 L60.60,73.90 L60.67,73.89 L60.73,73.87 L60.80,73.85 L60.87,73.84 L60.94,73.82 L61.01,73.81 L61.08,73.79 L61.15,73.78 L61.22,73.77 L61.29,73.75 L61.36,73.74 L61.42,73.73 L61.49,73.72 L61.56,73.71 L61.63,73.70 L61.70,73.69 L61.77,73.68 L61.84,73.67 L61.91,73.66 L61.98,73.65 L62.05,73.64 L62.11,73.64" style="stroke-width: 2; stroke: rgb(245, 166, 35); stroke-opacity: 1;"/><path d=" M62.11,73.64 L62.41,73.61 L62.71,73.58 L63.01,73.55 L63.31,73.52 L63.61,73.49 L63.91,73.46 L64.21,73.43 L64.51,73.40 L64.81,73.37 L65.10,73.34 L65.40,73.31 L65.70,73.28 L66.00,73.25 L66.30,73.22 L66.60,73.19 L66.90,73.16 L67.20,73.13 L67.50,73.10 L67.79,73.07 L68.09,73.04 L68.39,73.01 L68.69,72.98 L68.99,72.95 L69.29,72.92 L69.59,72.89 L69.89,72.86 L70.19,72.83 L70.49,72.80 L70.78,72.77 L71.08,72.74 L71.38,72.71 L71.68,72.68 L71.98,72.65 L72.28,72.62 L72.58,72.59 L72.88,72.56 L73.18,72.53 L73.48,72.50 L73.77,72.47 L74.07,72.44 L74.37,72.41 L74.67,72.38 L74.97,72.35 L75.27,72.32 L75.57,72.29 L75.87,72.26 L76.17,72.23 L76.47,72.20 L76.76,72.17 L77.06,72.14 L77.36,72.11 L77.66,72.08 L77.96,72.05 L78.26,72.02 L78.56,71.99 L78.86,71.96 L79.16,71.93 L79.46,71.90 L79.75,71.87 L80.05,71.84 L80.35,71.81 L80.65,71.78 L80.95,71.75 L81.25,71.72 L81.55,71.69 L81.85,71.66 L82.15,71.63 L82.45,71.60 L82.74,71.57 L83.04,71.54 L83.34,71.51 L83.64,71.48 L83.94,71.45 L84.24,71.42 L84.54,71.39 L84.84,71.36 L85.14,71.33 L85.44,71.30 L85.73,71.27 L86.03,71.24 L86.33,71.21 L86.63,71.18 L86.93,71.15 L87.23,71.12 L87.53,71.09 L87.83,71.06 L88.13,71.03 L88.43,71.00 L88.72,70.97 L89.02,70.94 L89.32,70.91 L89.62,70.88 L89.92,70.85 L90.22,70.83 L90.52,70.80 L90.82,70.77 L91.12,70.74 L91.42,70.71 L91.71,70.68 L92.01,70.65 L92.31,70.62 L92.61,70.59 L92.91,70.56 L93.21,70.53 L93.51,70.50 L93.81,70.47 L94.11,70.44 L94.41,70.41 L94.70,70.38 L95.00,70.35 L95.30,70.32 L95.60,70.29 L95.90,70.26 L96.20,70.23 L96.50,70.20 L96.80,70.17 L97.10,70.14 L97.40,70.11 L97.69,70.08 L97.99,70.05 L98.29,70.02 L98.59,69.99 L98.89,69.96 L99.19,69.93 L99.49,69.90 L99.79,69.87 L100.09,69.84 L100.39,69.81 L100.68,69.78 L100.98,69.75 L101.28,69.72 L101.58,69.69 L101.88,69.66 L102.18,69.63 L102.48,69.60 L102.78,69.57 L103.08,69.54 L103.38,69.51 L103.67,69.48 L103.97,69.45 L104.27,69.42 L104.57,69.39 L104.87,69.36 L105.17,69.33 L105.47,69.30 L105.77,69.27 L106.07,69.24 L106.37,69.21 L106.66,69.18 L106.96,69.15 L107.26,69.12 L107.56,69.09 L107.86,69.06 L108.16,69.03 L108.46,69.00 L108.76,68.97 L109.06,68.94 L109.36,68.91 L109.65,68.88 L109.95,68.85 L110.25,68.82 L110.55,68.79 L110.85,68.76 L111.15,68.73 L111.45,68.70 L111.75,68.67 L112.05,68.64 L112.35,68.61 L112.64,68.58 L112.94,68.55 L113.24,68.52 L113.54,68.49 L113.84,68.46 L114.14,68.43 L114.44,68.40 L114.74,68.37 L115.04,68.34 L115.33,68.31 L115.63,68.28 L115.93,68.25 L116.23,68.22 L116.53,68.19 L116.83,68.16 L117.13,68.13 L117.43,68.10 L117.73,68.07 L118.03,68.04 L118.32,68.01 L118.62,67.98 L118.92,67.95 L119.22,67.92 L119.52,67.89 L119.82,67.86 L120.12,67.84 L120.42,67.81 L120.72,67.78 L121.02,67.75 L121.31,67.72 L121.61,67.69 L121.91,67.66 L122.21,67.63 L122.51,67.60 L122.81,67.57 L123.11,67.54 L123.41,67.51 L123.71,67.48 L124.01,67.45 L124.30,67.42 L124.60,67.39 L124.90,67.36 L125.20,67.33 L125.50,67.30 L125.80,67.27 L126.10,67.24 L126.40,67.21 L126.70,67.18 L127.00,67.15 L127.29,67.12 L127.59,67.09 L127.89,67.06 L128.19,67.03 L128.49,67.00 L128.79,66.97 L129.09,66.94 L129.39,66.91 L129.69,66.88 L129.99,66.85 L130.28,66.82 L130.58,66.79 L130.88,66.76 L131.18,66.73 L131.48,66.70 L131.78,66.67 L132.08,66.64 L132.38,66.61 L132.68,66.58 L132.98,66.55 L133.27,66.52 L133.57,66.49 L133.87,66.46 L134.17,66.43 L134.47,66.40 L134.77,66.37 L135.07,66.34 L135.37,66.31 L135.67,66.28 L135.97,66.25 L136.26,66.22 L136.56,66.19 L136.86,66.16 L137.16,66.13 L137.46,66.10 L137.76,66.07 L138.06,66.04 L138.36,66.01 L138.66,65.98 L138.96,65.95 L139.25,65.92 L139.55,65.89 L139.85,65.86 L140.15,65.83 L140.45,65.80 L140.75,65.77 L141.05,65.74 L141.35,65.71 L141.65,65.68 L141.95,65.65 L142.24,65.62 L142.54,65.59 L142.84,65.56 L143.14,65.53 L143.44,65.50 L143.74,65.47 L144.04,65.44 L144.34,65.41 L144.64,65.38 L144.94,65.35 L145.23,65.32 L145.53,65.29 L145.83,65.26 L146.13,65.23 L146.43,65.20 L146.73,65.17 L147.03,65.14 L147.33,65.11 L147.63,65.08 L147.93,65.05 L148.22,65.02 L148.52,64.99 L148.82,64.96 L149.12,64.93 L149.42,64.90 L149.72,64.88 L150.02,64.85 L150.32,64.82 L150.62,64.79 L150.92,64.76 L151.21,64.73 L151.51,64.70 L151.81,64.67 L152.11,64.64 L152.41,64.61 L152.71,64.58 L153.01,64.55 L153.31,64.52 L153.61,64.49 L153.91,64.46 L154.20,64.43 L154.50,64.40 L154.80,64.37 L155.10,64.34 L155.40,64.31 L155.70,64.28 L156.00,64.25 L156.30,64.22 L156.60,64.19 L156.90,64.16 L157.19,64.13 L157.49,64.10 L157.79,64.07 L158.09,64.04 L158.39,64.01 L158.69,63.98 L158.99,63.95 L159.29,63.92 L159.59,63.89 L159.89,63.86 L160.18,63.83 L160.48,63.80 L160.78,63.77 L161.08,63.74 L161.38,63.71 L161.68,63.68 L161.98,63.65 L162.28,63.62 L162.58,63.59 L162.88,63.56 L163.17,63.53 L163.47,63.50 L163.77,63.47 L164.07,63.44 L164.37,63.41 L164.67,63.38 L164.97,63.35 L165.27,63.32 L165.57,63.29 L165.86,63.26 L166.16,63.23 L166.46,63.20 L166.76,63.17 L167.06,63.14 L167.36,63.11 L167.66,63.08 L167.96,63.05 L168.26,63.02 L168.56,62.99 L168.85,62.96 L169.15,62.93 L169.45,62.90 L169.75,62.87 L170.05,62.84 L170.35,62.81 L170.65,62.78 L170.95,62.75 L171.25,62.72 L171.55,62.69 L171.84,62.66 L172.14,62.63 L172.44,62.60 L172.74,62.57 L173.04,62.54 L173.34,62.51 L173.64,62.48 L173.94,62.45 L174.24,62.42 L174.54,62.39 L174.83,62.36 L175.13,62.33 L175.43,62.30 L175.73,62.27 L176.03,62.24 L176.33,62.21 L176.63,62.18 L176.93,62.15 L177.23,62.12 L177.53,62.09 L177.82,62.06 L178.12,62.03 L178.42,62.00 L178.72,61.97 L179.02,61.94 L179.32,61.92 L179.62,61.89 L179.92,61.86 L180.22,61.83 L180.52,61.80 L180.81,61.77 L181.11,61.74 L181.41,61.71 L181.71,61.68 L182.01,61.65 L182.31,61.62 L182.61,61.59 L182.91,61.56 L183.21,61.53 L183.51,61.50 L183.80,61.47 L184.10,61.44 L184.40,61.41 L184.70,61.38 L185.00,61.35 L185.30,61.32 L185.60,61.29 L185.90,61.26 L186.20,61.23 L186.50,61.20 L186.79,61.17 L187.09,61.14 L187.39,61.11 L187.69,61.08 L187.99,61.05 L188.29,61.02 L188.59,60.99 L188.89,60.96 L189.19,60.93 L189.49,60.90 L189.78,60.87 L190.08,60.84 L190.38,60.81 L190.68,60.78 L190.98,60.75 L191.28,60.72 L191.58,60.69 L191.88,60.66 L192.18,60.63 L192.48,60.60 L192.77,60.57 L193.07,60.54 L193.37,60.51 L193.67,60.48 L193.97,60.45 L194.27,60.42 L194.57,60.39 L194.87,60.36 L195.17,60.33 L195.47,60.30 L195.76,60.27 L196.06,60.24 L196.36,60.21 L196.66,60.18 L196.96,60.15 L197.26,60.12 L197.56,60.09 L197.86,60.06 L198.16,60.03 L198.46,60.00 L198.75,59.97 L199.05,59.94 L199.35,59.91 L199.65,59.88 L199.95,59.85 L200.25,59.82 L200.55,59.79 L200.85,59.76 L201.15,59.73 L201.45,59.70 L201.74,59.67 L202.04,59.64 L202.34,59.61 L202.64,59.58 L202.94,59.55 L203.24,59.52 L203.54,59.49 L203.84,59.46 L204.14,59.43 L204.44,59.40 L204.73,59.37 L205.03,59.34 L205.33,59.31 L205.63,59.28 L205.93,59.25 L206.23,59.22 L206.53,59.19 L206.83,59.16 L207.13,59.13 L207.43,59.10 L207.72,59.07 L208.02,59.04 L208.32,59.01 L208.62,58.98 L208.92,58.95 L209.22,58.93 L209.52,58.90 L209.82,58.87 L210.12,58.84 L210.42,58.81 L210.71,58.78 L211.01,58.75 L211.31,58.72 L211.61,58.69 L211.91,58.66 L212.21,58.63 L212.51,58.60 L212.81,58.57 L213.11,58.54 L213.41,58.51 L213.70,58.48 L214.00,58.45 L214.30,58.42 L214.60,58.39 L214.90,58.36 L215.20,58.33 L215.50,58.30 L215.80,58.27 L216.10,58.24 L216.39,58.21 L216.69,58.18 L216.99,58.15 L217.29,58.12 L217.59,58.09 L217.89,58.06 L218.19,58.03 L218.49,58.00 L218.79,57.97 L219.09,57.94 L219.38,57.91 L219.68,57.88 L219.98,57.85 L220.28,57.82 L220.58,57.79 L220.88,57.76 L221.18,57.73 L221.48,57.70 L221.78,57.67 L222.08,57.64 L222.37,57.61 L222.67,57.58 L222.97,57.55 L223.27,57.52 L223.57,57.49 L223.87,57.46 L224.17,57.43 L224.47,57.40 L224.77,57.37 L225.07,57.34 L225.36,57.31 L225.66,57.28 L225.96,57.25 L226.26,57.22 L226.56,57.19 L226.86,57.16 L227.16,57.13 L227.46,57.10 L227.76,57.07 L228.06,57.04 L228.35,57.01 L228.65,56.98 L228.95,56.95 L229.25,56.92 L229.55,56.89 L229.85,56.86 L230.15,56.83 L230.45,56.80 L230.75,56.77 L231.05,56.74 L231.34,56.71 L231.64,56.68 L231.94,56.65 L232.24,56.62 L232.54,56.59 L232.84,56.56 L233.14,56.53 L233.44,56.50 L233.74,56.47 L234.04,56.44 L234.33,56.41 L234.63,56.38 L234.93,56.35 L235.23,56.32 L235.53,56.29 L235.83,56.26 L236.13,56.23 L236.43,56.20 L236.73,56.17 L237.03,56.14 L237.32,56.11 L237.62,56.08 L237.92,56.05 L238.22,56.02 L238.52,55.99 L238.82,55.97 L239.12,55.94 L239.42,55.91 L239.72,55.88 L240.02,55.85 L240.31,55.82 L240.61,55.79 L240.91,55.76 L241.21,55.73 L241.51,55.70 L241.81,55.67 L242.11,55.64 L242.41,55.61 L242.71,55.58 L243.01,55.55 L243.30,55.52 L243.60,55.49 L243.90,55.46 L244.20,55.43 L244.50,55.40 L244.80,55.37 L245.10,55.34 L245.40,55.31 L245.70,55.28 L246.00,55.25 L246.29,55.22 L246.59,55.19 L246.89,55.16 L247.19,55.13 L247.49,55.10 L247.79,55.07 L248.09,55.04 L248.39,55.01 L248.69,54.98 L248.99,54.95 L249.28,54.92 L249.58,54.89 L249.88,54.86 L250.18,54.83 L250.48,54.80 L250.78,54.77 L251.08,54.74 L251.38,54.71 L251.68,54.68 L251.98,54.65 L252.27,54.62 L252.57,54.59 L252.87,54.56 L253.17,54.53 L253.47,54.50 L253.77,54.47 L254.07,54.44 L254.37,54.41 L254.67,54.38 L254.97,54.35 L255.26,54.32 L255.56,54.29 L255.86,54.26 L256.16,54.23" style="stroke-width: 2; stroke: rgb(245, 166, 35); stroke-opacity: 1;"/><path d=" M256.16,54.23 L256.22,54.22 L256.28,54.22 L256.35,54.21 L256.41,54.21 L256.47,54.20 L256.53,54.19 L256.59,54.19 L256.65,54.18 L256.71,54.17 L256.77,54.17 L256.84,54.16 L256.90,54.15 L256.96,54.14 L257.02,54.14 L257.08,54.13 L257.14,54.12 L257.20,54.12 L257.27,54.11 L257.33,54.10 L257.39,54.09 L257.45,54.09 L257.51,54.08 L257.57,54.07 L257.63,54.06 L257.69,54.05 L257.76,54.05 L257.82,54.04 L257.88,54.03 L257.94,54.02 L258.00,54.01 L258.06,54.00 L258.12,54.00 L258.19,53.99 L258.25,53.98 L258.31,53.97 L258.37,53.96 L258.43,53.95 L258.49,53.94 L258.55,53.93 L258.61,53.93 L258.68,53.92 L258.74,53.91 L258.80,53.90 L258.86,53.89 L258.92,53.88 L258.98,53.87 L259.04,53.86 L259.11,53.85 L259.17,53.84 L259.23,53.83 L259.29,53.82 L259.35,53.81 L259.41,53.80 L259.47,53.79 L259.53,53.78 L259.60,53.77 L259.66,53.76 L259.72,53.75 L259.78,53.74 L259.84,53.73 L259.90,53.72 L259.96,53.71 L260.03,53.69 L260.09,53.68 L260.15,53.67 L260.21,53.66 L260.27,53.65 L260.33,53.64 L260.39,53.63 L260.45,53.62 L260.52,53.60 L260.58,53.59 L260.64,53.58 L260.70,53.57 L260.76,53.56 L260.82,53.55 L260.88,53.53 L260.95,53.52 L261.01,53.51 L261.07,53.50 L261.13,53.49 L261.19,53.47 L261.25,53.46 L261.31,53.45 L261.37,53.44 L261.44,53.42 L261.50,53.41 L261.56,53.40 L261.62,53.39 L261.68,53.37 L261.74,53.36 L261.80,53.35 L261.87,53.33 L261.93,53.32 L261.99,53.31 L262.05,53.29 L262.11,53.28 L262.17,53.27 L262.23,53.25 L262.29,53.24 L262.36,53.23 L262.42,53.21 L262.48,53.20 L262.54,53.18 L262.60,53.17 L262.66,53.16 L262.72,53.14 L262.79,53.13 L262.85,53.11 L262.91,53.10 L262.97,53.08 L263.03,53.07 L263.09,53.06 L263.15,53.04 L263.21,53.03 L263.28,53.01 L263.34,53.00 L263.40,52.98 L263.46,52.97 L263.52,52.95 L263.58,52.94 L263.64,52.92 L263.71,52.90 L263.77,52.89 L263.83,52.87 L263.89,52.86 L263.95,52.84 L264.01,52.83 L264.07,52.81 L264.13,52.79 L264.20,52.78 L264.26,52.76 L264.32,52.75 L264.38,52.73 L264.44,52.71 L264.50,52.70 L264.56,52.68 L264.63,52.66 L264.69,52.65 L264.75,52.63 L264.81,52.61 L264.87,52.60 L264.93,52.58 L264.99,52.56 L265.05,52.55 L265.12,52.53 L265.18,52.51 L265.24,52.50 L265.30,52.48 L265.36,52.46 L265.42,52.44 L265.48,52.43 L265.54,52.41 L265.61,52.39 L265.67,52.37 L265.73,52.35 L265.79,52.34 L265.85,52.32 L265.91,52.30 L265.97,52.28 L266.04,52.26 L266.10,52.25 L266.16,52.23 L266.22,52.21 L266.28,52.19 L266.34,52.17 L266.40,52.15 L266.46,52.13 L266.53,52.11 L266.59,52.10 L266.65,52.08 L266.71,52.06 L266.77,52.04 L266.83,52.02 L266.89,52.00 L266.96,51.98 L267.02,51.96 L267.08,51.94 L267.14,51.92 L267.20,51.90 L267.26,51.88 L267.32,51.86 L267.38,51.84 L267.45,51.82 L267.51,51.80 L267.57,51.78 L267.63,51.76 L267.69,51.74 L267.75,51.72 L267.81,51.70 L267.88,51.68 L267.94,51.66 L268.00,51.64 L268.06,51.62 L268.12,51.60 L268.18,51.58 L268.24,51.56 L268.30,51.53 L268.37,51.51 L268.43,51.49 L268.49,51.47 L268.55,51.45 L268.61,51.43 L268.67,51.41 L268.73,51.38 L268.80,51.36 L268.86,51.34 L268.92,51.32 L268.98,51.30 L269.04,51.28 L269.10,51.25 L269.16,51.23 L269.22,51.21 L269.29,51.19 L269.35,51.16 L269.41,51.14 L269.47,51.12 L269.53,51.10 L269.59,51.07 L269.65,51.05 L269.72,51.03 L269.78,51.01 L269.84,50.98 L269.90,50.96 L269.96,50.94 L270.02,50.91 L270.08,50.89 L270.14,50.87 L270.21,50.84 L270.27,50.82 L270.33,50.80 L270.39,50.77 L270.45,50.75 L270.51,50.73 L270.57,50.70 L270.64,50.68 L270.70,50.65 L270.76,50.63 L270.82,50.61 L270.88,50.58 L270.94,50.56 L271.00,50.53 L271.06,50.51 L271.13,50.48 L271.19,50.46 L271.25,50.43 L271.31,50.41 L271.37,50.38 L271.43,50.36 L271.49,50.34 L271.56,50.31 L271.62,50.28 L271.68,50.26 L271.74,50.23 L271.80,50.21 L271.86,50.18 L271.92,50.16 L271.98,50.13 L272.05,50.11 L272.11,50.08 L272.17,50.06 L272.23,50.03 L272.29,50.00 L272.35,49.98 L272.41,49.95 L272.48,49.92 L272.54,49.90 L272.60,49.87 L272.66,49.85 L272.72,49.82 L272.78,49.79 L272.84,49.77 L272.90,49.74 L272.97,49.71 L273.03,49.69 L273.09,49.66 L273.15,49.63 L273.21,49.60 L273.27,49.58 L273.33,49.55 L273.40,49.52 L273.46,49.50 L273.52,49.47 L273.58,49.44 L273.64,49.41 L273.70,49.38 L273.76,49.36 L273.82,49.33 L273.89,49.30 L273.95,49.27 L274.01,49.25 L274.07,49.22 L274.13,49.19 L274.19,49.16 L274.25,49.13 L274.32,49.10 L274.38,49.07 L274.44,49.05 L274.50,49.02 L274.56,48.99 L274.62,48.96 L274.68,48.93 L274.74,48.90 L274.81,48.87 L274.87,48.84 L274.93,48.81 L274.99,48.79 L275.05,48.76 L275.11,48.73 L275.17,48.70 L275.24,48.67 L275.30,48.64 L275.36,48.61 L275.42,48.58 L275.48,48.55 L275.54,48.52 L275.60,48.49 L275.66,48.46 L275.73,48.43 L275.79,48.40 L275.85,48.37 L275.91,48.34 L275.97,48.31 L276.03,48.28 L276.09,48.24 L276.16,48.21 L276.22,48.18 L276.28,48.15 L276.34,48.12 L276.40,48.09 L276.46,48.06 L276.52,48.03 L276.58,48.00 L276.65,47.97 L276.71,47.93 L276.77,47.90 L276.83,47.87 L276.89,47.84 L276.95,47.81 L277.01,47.78 L277.08,47.74 L277.14,47.71 L277.20,47.68 L277.26,47.65 L277.32,47.62 L277.38,47.58 L277.44,47.55 L277.50,47.52 L277.57,47.49 L277.63,47.45 L277.69,47.42 L277.75,47.39 L277.81,47.36 L277.87,47.32 L277.93,47.29 L278.00,47.26 L278.06,47.22 L278.12,47.19 L278.18,47.16 L278.24,47.12 L278.30,47.09 L278.36,47.06 L278.42,47.02 L278.49,46.99 L278.55,46.96 L278.61,46.92 L278.67,46.89 L278.73,46.85 L278.79,46.82 L278.85,46.79 L278.92,46.75 L278.98,46.72 L279.04,46.68 L279.10,46.65 L279.16,46.62 L279.22,46.58 L279.28,46.55 L279.34,46.51 L279.41,46.48 L279.47,46.44 L279.53,46.41 L279.59,46.37 L279.65,46.34 L279.71,46.30 L279.77,46.27 L279.84,46.23 L279.90,46.20 L279.96,46.16 L280.02,46.12 L280.08,46.09 L280.14,46.05 L280.20,46.02 L280.26,45.98 L280.33,45.95 L280.39,45.91 L280.45,45.87 L280.51,45.84 L280.57,45.80 L280.63,45.77 L280.69,45.73 L280.76,45.69 L280.82,45.66 L280.88,45.62 L280.94,45.58 L281.00,45.55 L281.06,45.51 L281.12,45.47 L281.18,45.44 L281.25,45.40 L281.31,45.36 L281.37,45.32 L281.43,45.29 L281.49,45.25 L281.55,45.21 L281.61,45.18 L281.68,45.14 L281.74,45.10 L281.80,45.06 L281.86,45.02 L281.92,44.99 L281.98,44.95 L282.04,44.91 L282.10,44.87 L282.17,44.83 L282.23,44.80 L282.29,44.76 L282.35,44.72 L282.41,44.68 L282.47,44.64 L282.53,44.60 L282.60,44.57 L282.66,44.53 L282.72,44.49 L282.78,44.45 L282.84,44.41 L282.90,44.37 L282.96,44.33 L283.02,44.29 L283.09,44.25 L283.15,44.21 L283.21,44.17 L283.27,44.14 L283.33,44.10 L283.39,44.06 L283.45,44.02 L283.52,43.98 L283.58,43.94 L283.64,43.90 L283.70,43.86 L283.76,43.82 L283.82,43.78 L283.88,43.74 L283.94,43.70 L284.01,43.66 L284.07,43.61 L284.13,43.57 L284.19,43.53 L284.25,43.49 L284.31,43.45 L284.37,43.41 L284.44,43.37 L284.50,43.33 L284.56,43.29 L284.62,43.25 L284.68,43.21 L284.74,43.16 L284.80,43.12 L284.86,43.08 L284.93,43.04 L284.99,43.00 L285.05,42.96 L285.11,42.91 L285.17,42.87 L285.23,42.83 L285.29,42.79 L285.36,42.75 L285.42,42.70 L285.48,42.66 L285.54,42.62 L285.60,42.58 L285.66,42.54 L285.72,42.49 L285.78,42.45 L285.85,42.41 L285.91,42.36 L285.97,42.32 L286.03,42.28 L286.09,42.24 L286.15,42.19 L286.21,42.15 L286.28,42.11 L286.34,42.06 L286.40,42.02 L286.46,41.98 L286.52,41.93 L286.58,41.89 L286.64,41.85 L286.70,41.80 L286.77,41.76 L286.83,41.71 L286.89,41.67 L286.95,41.63 L287.01,41.58 L287.07,41.54 L287.13,41.49 L287.20,41.45 L287.26,41.40 L287.32,41.36 L287.38,41.32 L287.44,41.27 L287.50,41.23 L287.56,41.18 L287.62,41.14 L287.69,41.09 L287.75,41.05 L287.81,41.00 L287.87,40.96 L287.93,40.91 L287.99,40.87 L288.05,40.82 L288.12,40.77 L288.18,40.73 L288.24,40.68 L288.30,40.64 L288.36,40.59 L288.42,40.55 L288.48,40.50 L288.54,40.45 L288.61,40.41 L288.67,40.36 L288.73,40.32 L288.79,40.27 L288.85,40.22 L288.91,40.18 L288.97,40.13 L289.04,40.08 L289.10,40.04 L289.16,39.99 L289.22,39.94 L289.28,39.90 L289.34,39.85 L289.40,39.80 L289.46,39.75 L289.53,39.71 L289.59,39.66 L289.65,39.61 L289.71,39.57 L289.77,39.52 L289.83,39.47 L289.89,39.42 L289.96,39.38 L290.02,39.33 L290.08,39.28 L290.14,39.23 L290.20,39.18 L290.26,39.14 L290.32,39.09 L290.38,39.04 L290.45,38.99 L290.51,38.94 L290.57,38.89 L290.63,38.84 L290.69,38.80 L290.75,38.75 L290.81,38.70 L290.88,38.65 L290.94,38.60 L291.00,38.55 L291.06,38.50 L291.12,38.45 L291.18,38.40 L291.24,38.35 L291.30,38.31 L291.37,38.26 L291.43,38.21 L291.49,38.16 L291.55,38.11 L291.61,38.06 L291.67,38.01 L291.73,37.96 L291.80,37.91 L291.86,37.86 L291.92,37.81 L291.98,37.76 L292.04,37.71 L292.10,37.66 L292.16,37.61 L292.22,37.56 L292.29,37.50 L292.35,37.45 L292.41,37.40 L292.47,37.35 L292.53,37.30 L292.59,37.25 L292.65,37.20 L292.72,37.15 L292.78,37.10 L292.84,37.05 L292.90,36.99 L292.96,36.94 L293.02,36.89 L293.08,36.84 L293.14,36.79 L293.21,36.74 L293.27,36.68 L293.33,36.63 L293.39,36.58 L293.45,36.53 L293.51,36.48 L293.57,36.42 L293.64,36.37 L293.70,36.32 L293.76,36.27 L293.82,36.21 L293.88,36.16 L293.94,36.11 L294.00,36.06 L294.06,36.00 L294.13,35.95 L294.19,35.90 L294.25,35.84 L294.31,35.79 L294.37,35.74 L294.43,35.68 L294.49,35.63 L294.56,35.58 L294.62,35.52 L294.68,35.47 L294.74,35.42 L294.80,35.36 L294.86,35.31 L294.92,35.26 L294.98,35.20 L295.05,35.15 L295.11,35.09 L295.17,35.04 L295.23,34.99 L295.29,34.93 L295.35,34.88 L295.41,34.82 L295.48,34.77 L295.54,34.71 L295.60,34.66 L295.66,34.60 L295.72,34.55 L295.78,34.49 L295.84,34.44 L295.90,34.38 L295.97,34.33" style="stroke-width: 2; stroke: rgb(245, 166, 35); stroke-opacity: 1;"/></g></g><g class="test-xtl" style="font-family: &quot;Open Sans&quot;, verdana, arial, sans-serif;"/><g class="test-ytl" style="font-family: &quot;Open Sans&quot;, verdana, arial, sans-serif;"/><rect class="real" x="1" y="1" width="323" height="212" style="fill: transparent; stroke: none;"/></g></g></g><g/></g><g/><g/><g/></svg>
        <svg xmlns="http://www.w3.org/2000/svg" xmlns:xlink="http://www.w3.org/1999/xlink" width="338" height="224" style="width:338px;height:224px;font-family:Asana-Math, Asana;background:#FFF;"></svg>
</svg>
