<svg xmlns="http://www.w3.org/2000/svg" xmlns:xlink="http://www.w3.org/1999/xlink" x="0" y="0" width="258" height="194" style="
        width:258px;
        height:194px;
        background: #FFF;
        fill: none;
">
        <svg xmlns="http://www.w3.org/2000/svg"/>
        
        <svg xmlns="http://www.w3.org/2000/svg" class="role-diagram-draw-area"><g class="shapes-region" style="stroke: black; fill: none;"><g class="composite-shape" data-amt="diagram/shapes/plot" transform="matrix(1,0,0,1,6.999999999999986,5)"><g><g/><g><g class="test-xti" style="font-family: Asana-Math, Asana;"><line x1="0" y1="164.76801060853853" x2="239.5" y2="164.76801060853853" fill="none" stroke="rgb(50,50,50)" stroke-opacity="1" stroke-width="1"/><line x1="218.11296812570959" y1="160.76801060853853" x2="218.11296812570959" y2="168.76801060853853" fill="none" stroke="rgb(50,50,50)" stroke-opacity="1" stroke-width="1"/><path d="M234.5,161.16801060853854 L242.5,164.76801060853853 L234.5,168.36801060853853 Z" stroke="none" stroke-width="1" fill="rgb(50,50,50)" fill-opacity="1"/></g><g class="test-yti" style="font-family: Asana-Math, Asana;"><line x1="16.02400937652108" y1="4" x2="16.02400937652108" y2="180" fill="none" stroke="rgb(50,50,50)" stroke-opacity="1" stroke-width="1"/><path d="M12.424009376521079,9 L16.02400937652108,1 L19.62400937652108,9 Z" stroke="none" stroke-width="1" fill="rgb(50,50,50)" fill-opacity="1"/></g><g class="test-plot-expression"><defs><clipPath id="cp7xzj7ia79"><rect x="1" y="1" width="241.5" height="178"/></clipPath></defs><g clip-path="url(#cp7xzj7ia79)"><path d=" M16.02,124.35 L16.07,124.06 L16.12,123.76 L16.17,123.47 L16.22,123.18 L16.27,122.89 L16.32,122.59 L16.37,122.30 L16.42,122.01 L16.47,121.72 L16.51,121.44 L16.56,121.15 L16.61,120.86 L16.66,120.57 L16.71,120.29 L16.76,120.00 L16.81,119.72 L16.86,119.43 L16.91,119.15 L16.96,118.86 L17.01,118.58 L17.05,118.30 L17.10,118.02 L17.15,117.74 L17.20,117.46 L17.25,117.18 L17.30,116.90 L17.35,116.62 L17.40,116.34 L17.45,116.06 L17.50,115.79 L17.55,115.51 L17.59,115.23 L17.64,114.96 L17.69,114.68 L17.74,114.41 L17.79,114.14 L17.84,113.87 L17.89,113.59 L17.94,113.32 L17.99,113.05 L18.04,112.78 L18.08,112.51 L18.13,112.24 L18.18,111.97 L18.23,111.71 L18.28,111.44 L18.33,111.17 L18.38,110.91 L18.43,110.64 L18.48,110.37 L18.53,110.11 L18.58,109.85 L18.62,109.58 L18.67,109.32 L18.72,109.06 L18.77,108.80 L18.82,108.54 L18.87,108.28 L18.92,108.02 L18.97,107.76 L19.02,107.50 L19.07,107.24 L19.12,106.99 L19.16,106.73 L19.21,106.47 L19.26,106.22 L19.31,105.96 L19.36,105.71 L19.41,105.45 L19.46,105.20 L19.51,104.95 L19.56,104.70 L19.61,104.45 L19.65,104.20 L19.70,103.95 L19.75,103.70 L19.80,103.45 L19.85,103.20 L19.90,102.95 L19.95,102.70 L20.00,102.46 L20.05,102.21 L20.10,101.97 L20.15,101.72 L20.19,101.48 L20.24,101.23 L20.29,100.99 L20.34,100.75 L20.39,100.51 L20.44,100.27 L20.49,100.03 L20.54,99.79 L20.59,99.55 L20.64,99.31 L20.69,99.07 L20.73,98.83 L20.78,98.60 L20.83,98.36 L20.88,98.12 L20.93,97.89 L20.98,97.65 L21.03,97.42 L21.08,97.19 L21.13,96.95 L21.18,96.72 L21.23,96.49 L21.27,96.26 L21.32,96.03 L21.37,95.80 L21.42,95.57 L21.47,95.34 L21.52,95.11 L21.57,94.89 L21.62,94.66 L21.67,94.43 L21.72,94.21 L21.76,93.98 L21.81,93.76 L21.86,93.53 L21.91,93.31 L21.96,93.09 L22.01,92.87 L22.06,92.64 L22.11,92.42 L22.16,92.20 L22.21,91.98 L22.26,91.77 L22.30,91.55 L22.35,91.33 L22.40,91.11 L22.45,90.89 L22.50,90.68 L22.55,90.46 L22.60,90.25 L22.65,90.03 L22.70,89.82 L22.75,89.61 L22.80,89.39 L22.84,89.18 L22.89,88.97 L22.94,88.76 L22.99,88.55 L23.04,88.34 L23.09,88.13 L23.14,87.92 L23.19,87.72 L23.24,87.51 L23.29,87.30 L23.33,87.10 L23.38,86.89 L23.43,86.69 L23.48,86.48 L23.53,86.28 L23.58,86.08 L23.63,85.87 L23.68,85.67 L23.73,85.47 L23.78,85.27 L23.83,85.07 L23.87,84.87 L23.92,84.67 L23.97,84.47 L24.02,84.28 L24.07,84.08 L24.12,83.88 L24.17,83.69 L24.22,83.49 L24.27,83.30 L24.32,83.10 L24.37,82.91 L24.41,82.72 L24.46,82.52 L24.51,82.33 L24.56,82.14 L24.61,81.95 L24.66,81.76 L24.71,81.57 L24.76,81.38 L24.81,81.20 L24.86,81.01 L24.91,80.82 L24.95,80.63 L25.00,80.45 L25.05,80.26 L25.10,80.08 L25.15,79.90 L25.20,79.71 L25.25,79.53 L25.30,79.35 L25.35,79.17 L25.40,78.98 L25.44,78.80 L25.49,78.62 L25.54,78.45 L25.59,78.27 L25.64,78.09 L25.69,77.91 L25.74,77.74 L25.79,77.56 L25.84,77.38 L25.89,77.21 L25.94,77.03 L25.98,76.86 L26.03,76.69 L26.08,76.51 L26.13,76.34 L26.18,76.17 L26.23,76.00 L26.28,75.83 L26.33,75.66 L26.38,75.49 L26.43,75.32 L26.48,75.16 L26.52,74.99 L26.57,74.82 L26.62,74.66 L26.67,74.49 L26.72,74.33 L26.77,74.16 L26.82,74.00 L26.87,73.83 L26.92,73.67 L26.97,73.51 L27.01,73.35 L27.06,73.19 L27.11,73.03 L27.16,72.87 L27.21,72.71 L27.26,72.55 L27.31,72.39 L27.36,72.24 L27.41,72.08 L27.46,71.92 L27.51,71.77 L27.55,71.61 L27.60,71.46 L27.65,71.31 L27.70,71.15 L27.75,71.00 L27.80,70.85 L27.85,70.70 L27.90,70.55 L27.95,70.40 L28.00,70.25 L28.05,70.10 L28.09,69.95 L28.14,69.80 L28.19,69.66 L28.24,69.51 L28.29,69.36 L28.34,69.22 L28.39,69.07 L28.44,68.93 L28.49,68.79 L28.54,68.64 L28.59,68.50 L28.63,68.36 L28.68,68.22 L28.73,68.08 L28.78,67.94 L28.83,67.80 L28.88,67.66 L28.93,67.52 L28.98,67.39 L29.03,67.25 L29.08,67.11 L29.12,66.98 L29.17,66.84 L29.22,66.71 L29.27,66.57 L29.32,66.44 L29.37,66.31 L29.42,66.18 L29.47,66.04 L29.52,65.91 L29.57,65.78 L29.62,65.65 L29.66,65.52 L29.71,65.40 L29.76,65.27 L29.81,65.14 L29.86,65.01 L29.91,64.89 L29.96,64.76 L30.01,64.64 L30.06,64.51 L30.11,64.39 L30.16,64.27 L30.20,64.14 L30.25,64.02 L30.30,63.90 L30.35,63.78 L30.40,63.66 L30.45,63.54 L30.50,63.42 L30.55,63.30 L30.60,63.18 L30.65,63.07 L30.70,62.95 L30.74,62.83 L30.79,62.72 L30.84,62.60 L30.89,62.49 L30.94,62.38 L30.99,62.26 L31.04,62.15 L31.09,62.04 L31.14,61.93 L31.19,61.82 L31.23,61.71 L31.28,61.60 L31.33,61.49 L31.38,61.38 L31.43,61.27 L31.48,61.17 L31.53,61.06 L31.58,60.95 L31.63,60.85 L31.68,60.74 L31.73,60.64 L31.77,60.54 L31.82,60.43 L31.87,60.33 L31.92,60.23 L31.97,60.13 L32.02,60.03 L32.07,59.93 L32.12,59.83 L32.17,59.73 L32.22,59.63 L32.27,59.53 L32.31,59.44 L32.36,59.34 L32.41,59.25 L32.46,59.15 L32.51,59.06 L32.56,58.96 L32.61,58.87 L32.66,58.78 L32.71,58.68 L32.76,58.59 L32.80,58.50 L32.85,58.41 L32.90,58.32 L32.95,58.23 L33.00,58.14 L33.05,58.05 L33.10,57.97 L33.15,57.88 L33.20,57.79 L33.25,57.71 L33.30,57.62 L33.34,57.54 L33.39,57.46 L33.44,57.37 L33.49,57.29 L33.54,57.21 L33.59,57.13 L33.64,57.05 L33.69,56.97 L33.74,56.89 L33.79,56.81 L33.84,56.73 L33.88,56.65 L33.93,56.57 L33.98,56.50 L34.03,56.42 L34.08,56.34 L34.13,56.27 L34.18,56.20 L34.23,56.12 L34.28,56.05 L34.33,55.98 L34.38,55.90 L34.42,55.83 L34.47,55.76 L34.52,55.69 L34.57,55.62 L34.62,55.55 L34.67,55.48 L34.72,55.42 L34.77,55.35 L34.82,55.28 L34.87,55.22 L34.91,55.15 L34.96,55.09 L35.01,55.02 L35.06,54.96 L35.11,54.90 L35.16,54.83 L35.21,54.77 L35.26,54.71 L35.31,54.65 L35.36,54.59 L35.41,54.53 L35.45,54.47 L35.50,54.41 L35.55,54.36 L35.60,54.30 L35.65,54.24 L35.70,54.19 L35.75,54.13 L35.80,54.08 L35.85,54.02 L35.90,53.97 L35.95,53.92 L35.99,53.86 L36.04,53.81 L36.09,53.76 L36.14,53.71 L36.19,53.66 L36.24,53.61 L36.29,53.56 L36.34,53.52 L36.39,53.47 L36.44,53.42 L36.48,53.37 L36.53,53.33 L36.58,53.28 L36.63,53.24 L36.68,53.20 L36.73,53.15 L36.78,53.11 L36.83,53.07 L36.88,53.03 L36.93,52.99 L36.98,52.94 L37.02,52.90 L37.07,52.87 L37.12,52.83 L37.17,52.79 L37.22,52.75 L37.27,52.72 L37.32,52.68 L37.37,52.64 L37.42,52.61 L37.47,52.57 L37.52,52.54 L37.56,52.51 L37.61,52.47 L37.66,52.44 L37.71,52.41 L37.76,52.38 L37.81,52.35 L37.86,52.32 L37.91,52.29 L37.96,52.26 L38.01,52.23 L38.06,52.21 L38.10,52.18 L38.15,52.15 L38.20,52.13 L38.25,52.10 L38.30,52.08 L38.35,52.06 L38.40,52.03 L38.45,52.01 L38.50,51.99 L38.55,51.97 L38.59,51.95 L38.64,51.93 L38.69,51.91 L38.74,51.89 L38.79,51.87 L38.84,51.85 L38.89,51.84 L38.94,51.82 L38.99,51.80 L39.04,51.79 L39.09,51.77 L39.13,51.76 L39.18,51.75 L39.23,51.73 L39.28,51.72 L39.33,51.71 L39.38,51.70 L39.43,51.69 L39.48,51.68 L39.53,51.67 L39.58,51.66 L39.63,51.65 L39.67,51.64 L39.72,51.64 L39.77,51.63 L39.82,51.62 L39.87,51.62" style="stroke-width: 2; stroke: rgb(245, 166, 35); stroke-opacity: 1;"/><path d=" M39.87,51.62 L40.20,51.59 L40.52,51.55 L40.85,51.52 L41.17,51.49 L41.50,51.46 L41.82,51.42 L42.15,51.39 L42.47,51.36 L42.80,51.33 L43.12,51.29 L43.45,51.26 L43.77,51.23 L44.10,51.20 L44.42,51.16 L44.75,51.13 L45.07,51.10 L45.40,51.07 L45.72,51.03 L46.05,51.00 L46.37,50.97 L46.70,50.94 L47.02,50.90 L47.35,50.87 L47.67,50.84 L48.00,50.81 L48.32,50.77 L48.65,50.74 L48.98,50.71 L49.30,50.68 L49.63,50.64 L49.95,50.61 L50.28,50.58 L50.60,50.55 L50.93,50.51 L51.25,50.48 L51.58,50.45 L51.90,50.42 L52.23,50.38 L52.55,50.35 L52.88,50.32 L53.20,50.29 L53.53,50.25 L53.85,50.22 L54.18,50.19 L54.50,50.16 L54.83,50.12 L55.15,50.09 L55.48,50.06 L55.80,50.03 L56.13,49.99 L56.45,49.96 L56.78,49.93 L57.10,49.89 L57.43,49.86 L57.75,49.83 L58.08,49.80 L58.41,49.76 L58.73,49.73 L59.06,49.70 L59.38,49.67 L59.71,49.63 L60.03,49.60 L60.36,49.57 L60.68,49.54 L61.01,49.50 L61.33,49.47 L61.66,49.44 L61.98,49.41 L62.31,49.37 L62.63,49.34 L62.96,49.31 L63.28,49.28 L63.61,49.24 L63.93,49.21 L64.26,49.18 L64.58,49.15 L64.91,49.11 L65.23,49.08 L65.56,49.05 L65.88,49.02 L66.21,48.98 L66.53,48.95 L66.86,48.92 L67.18,48.89 L67.51,48.85 L67.84,48.82 L68.16,48.79 L68.49,48.76 L68.81,48.72 L69.14,48.69 L69.46,48.66 L69.79,48.63 L70.11,48.59 L70.44,48.56 L70.76,48.53 L71.09,48.50 L71.41,48.46 L71.74,48.43 L72.06,48.40 L72.39,48.37 L72.71,48.33 L73.04,48.30 L73.36,48.27 L73.69,48.24 L74.01,48.20 L74.34,48.17 L74.66,48.14 L74.99,48.11 L75.31,48.07 L75.64,48.04 L75.96,48.01 L76.29,47.98 L76.61,47.94 L76.94,47.91 L77.27,47.88 L77.59,47.85 L77.92,47.81 L78.24,47.78 L78.57,47.75 L78.89,47.72 L79.22,47.68 L79.54,47.65 L79.87,47.62 L80.19,47.59 L80.52,47.55 L80.84,47.52 L81.17,47.49 L81.49,47.46 L81.82,47.42 L82.14,47.39 L82.47,47.36 L82.79,47.33 L83.12,47.29 L83.44,47.26 L83.77,47.23 L84.09,47.20 L84.42,47.16 L84.74,47.13 L85.07,47.10 L85.39,47.07 L85.72,47.03 L86.04,47.00 L86.37,46.97 L86.70,46.94 L87.02,46.90 L87.35,46.87 L87.67,46.84 L88.00,46.81 L88.32,46.77 L88.65,46.74 L88.97,46.71 L89.30,46.68 L89.62,46.64 L89.95,46.61 L90.27,46.58 L90.60,46.55 L90.92,46.51 L91.25,46.48 L91.57,46.45 L91.90,46.42 L92.22,46.38 L92.55,46.35 L92.87,46.32 L93.20,46.29 L93.52,46.25 L93.85,46.22 L94.17,46.19 L94.50,46.16 L94.82,46.12 L95.15,46.09 L95.47,46.06 L95.80,46.03 L96.13,45.99 L96.45,45.96 L96.78,45.93 L97.10,45.90 L97.43,45.86 L97.75,45.83 L98.08,45.80 L98.40,45.77 L98.73,45.73 L99.05,45.70 L99.38,45.67 L99.70,45.64 L100.03,45.60 L100.35,45.57 L100.68,45.54 L101.00,45.51 L101.33,45.47 L101.65,45.44 L101.98,45.41 L102.30,45.38 L102.63,45.34 L102.95,45.31 L103.28,45.28 L103.60,45.25 L103.93,45.21 L104.25,45.18 L104.58,45.15 L104.90,45.11 L105.23,45.08 L105.56,45.05 L105.88,45.02 L106.21,44.98 L106.53,44.95 L106.86,44.92 L107.18,44.89 L107.51,44.85 L107.83,44.82 L108.16,44.79 L108.48,44.76 L108.81,44.72 L109.13,44.69 L109.46,44.66 L109.78,44.63 L110.11,44.59 L110.43,44.56 L110.76,44.53 L111.08,44.50 L111.41,44.46 L111.73,44.43 L112.06,44.40 L112.38,44.37 L112.71,44.33 L113.03,44.30 L113.36,44.27 L113.68,44.24 L114.01,44.20 L114.33,44.17 L114.66,44.14 L114.99,44.11 L115.31,44.07 L115.64,44.04 L115.96,44.01 L116.29,43.98 L116.61,43.94 L116.94,43.91 L117.26,43.88 L117.59,43.85 L117.91,43.81 L118.24,43.78 L118.56,43.75 L118.89,43.72 L119.21,43.68 L119.54,43.65 L119.86,43.62 L120.19,43.59 L120.51,43.55 L120.84,43.52 L121.16,43.49 L121.49,43.46 L121.81,43.42 L122.14,43.39 L122.46,43.36 L122.79,43.33 L123.11,43.29 L123.44,43.26 L123.76,43.23 L124.09,43.20 L124.42,43.16 L124.74,43.13 L125.07,43.10 L125.39,43.07 L125.72,43.03 L126.04,43.00 L126.37,42.97 L126.69,42.94 L127.02,42.90 L127.34,42.87 L127.67,42.84 L127.99,42.81 L128.32,42.77 L128.64,42.74 L128.97,42.71 L129.29,42.68 L129.62,42.64 L129.94,42.61 L130.27,42.58 L130.59,42.55 L130.92,42.51 L131.24,42.48 L131.57,42.45 L131.89,42.42 L132.22,42.38 L132.54,42.35 L132.87,42.32 L133.19,42.29 L133.52,42.25 L133.85,42.22 L134.17,42.19 L134.50,42.16 L134.82,42.12 L135.15,42.09 L135.47,42.06 L135.80,42.03 L136.12,41.99 L136.45,41.96 L136.77,41.93 L137.10,41.90 L137.42,41.86 L137.75,41.83 L138.07,41.80 L138.40,41.77 L138.72,41.73 L139.05,41.70 L139.37,41.67 L139.70,41.64 L140.02,41.60 L140.35,41.57 L140.67,41.54 L141.00,41.51 L141.32,41.47 L141.65,41.44 L141.97,41.41 L142.30,41.38 L142.62,41.34 L142.95,41.31 L143.28,41.28 L143.60,41.25 L143.93,41.21 L144.25,41.18 L144.58,41.15 L144.90,41.12 L145.23,41.08 L145.55,41.05 L145.88,41.02 L146.20,40.99 L146.53,40.95 L146.85,40.92 L147.18,40.89 L147.50,40.86 L147.83,40.82 L148.15,40.79 L148.48,40.76 L148.80,40.73 L149.13,40.69 L149.45,40.66 L149.78,40.63 L150.10,40.60 L150.43,40.56 L150.75,40.53 L151.08,40.50 L151.40,40.47 L151.73,40.43 L152.05,40.40 L152.38,40.37 L152.71,40.33 L153.03,40.30 L153.36,40.27 L153.68,40.24 L154.01,40.20 L154.33,40.17 L154.66,40.14 L154.98,40.11 L155.31,40.07 L155.63,40.04 L155.96,40.01 L156.28,39.98 L156.61,39.94 L156.93,39.91 L157.26,39.88 L157.58,39.85 L157.91,39.81 L158.23,39.78 L158.56,39.75 L158.88,39.72 L159.21,39.68 L159.53,39.65 L159.86,39.62 L160.18,39.59 L160.51,39.55 L160.83,39.52 L161.16,39.49 L161.48,39.46 L161.81,39.42 L162.14,39.39 L162.46,39.36 L162.79,39.33 L163.11,39.29 L163.44,39.26 L163.76,39.23 L164.09,39.20 L164.41,39.16 L164.74,39.13 L165.06,39.10 L165.39,39.07 L165.71,39.03 L166.04,39.00 L166.36,38.97 L166.69,38.94 L167.01,38.90 L167.34,38.87 L167.66,38.84 L167.99,38.81 L168.31,38.77 L168.64,38.74 L168.96,38.71 L169.29,38.68 L169.61,38.64 L169.94,38.61 L170.26,38.58 L170.59,38.55 L170.91,38.51 L171.24,38.48 L171.57,38.45 L171.89,38.42 L172.22,38.38 L172.54,38.35 L172.87,38.32 L173.19,38.29 L173.52,38.25 L173.84,38.22 L174.17,38.19 L174.49,38.16 L174.82,38.12 L175.14,38.09 L175.47,38.06 L175.79,38.03 L176.12,37.99 L176.44,37.96 L176.77,37.93 L177.09,37.90 L177.42,37.86 L177.74,37.83 L178.07,37.80 L178.39,37.77 L178.72,37.73 L179.04,37.70 L179.37,37.67 L179.69,37.64 L180.02,37.60 L180.34,37.57 L180.67,37.54 L181.00,37.51 L181.32,37.47 L181.65,37.44 L181.97,37.41 L182.30,37.38 L182.62,37.34 L182.95,37.31 L183.27,37.28 L183.60,37.25 L183.92,37.21 L184.25,37.18 L184.57,37.15 L184.90,37.12 L185.22,37.08 L185.55,37.05 L185.87,37.02 L186.20,36.99 L186.52,36.95 L186.85,36.92 L187.17,36.89 L187.50,36.86 L187.82,36.82 L188.15,36.79 L188.47,36.76 L188.80,36.73 L189.12,36.69 L189.45,36.66 L189.77,36.63 L190.10,36.60 L190.43,36.56 L190.75,36.53 L191.08,36.50 L191.40,36.47 L191.73,36.43 L192.05,36.40 L192.38,36.37 L192.70,36.34 L193.03,36.30 L193.35,36.27 L193.68,36.24 L194.00,36.21 L194.33,36.17 L194.65,36.14 L194.98,36.11 L195.30,36.08 L195.63,36.04 L195.95,36.01 L196.28,35.98 L196.60,35.95 L196.93,35.91 L197.25,35.88 L197.58,35.85 L197.90,35.82" style="stroke-width: 2; stroke: rgb(245, 166, 35); stroke-opacity: 1;"/><path d=" M197.90,35.82 L197.95,35.81 L197.99,35.81 L198.03,35.80 L198.07,35.80 L198.11,35.79 L198.15,35.79 L198.20,35.78 L198.24,35.78 L198.28,35.77 L198.32,35.76 L198.36,35.76 L198.40,35.75 L198.44,35.75 L198.49,35.74 L198.53,35.73 L198.57,35.73 L198.61,35.72 L198.65,35.71 L198.69,35.71 L198.74,35.70 L198.78,35.69 L198.82,35.68 L198.86,35.67 L198.90,35.67 L198.94,35.66 L198.99,35.65 L199.03,35.64 L199.07,35.63 L199.11,35.62 L199.15,35.61 L199.19,35.60 L199.23,35.59 L199.28,35.58 L199.32,35.57 L199.36,35.56 L199.40,35.55 L199.44,35.54 L199.48,35.53 L199.53,35.52 L199.57,35.51 L199.61,35.50 L199.65,35.49 L199.69,35.48 L199.73,35.47 L199.78,35.45 L199.82,35.44 L199.86,35.43 L199.90,35.42 L199.94,35.41 L199.98,35.39 L200.02,35.38 L200.07,35.37 L200.11,35.35 L200.15,35.34 L200.19,35.33 L200.23,35.31 L200.27,35.30 L200.32,35.29 L200.36,35.27 L200.40,35.26 L200.44,35.24 L200.48,35.23 L200.52,35.21 L200.57,35.20 L200.61,35.18 L200.65,35.17 L200.69,35.15 L200.73,35.14 L200.77,35.12 L200.81,35.10 L200.86,35.09 L200.90,35.07 L200.94,35.06 L200.98,35.04 L201.02,35.02 L201.06,35.00 L201.11,34.99 L201.15,34.97 L201.19,34.95 L201.23,34.93 L201.27,34.92 L201.31,34.90 L201.36,34.88 L201.40,34.86 L201.44,34.84 L201.48,34.82 L201.52,34.81 L201.56,34.79 L201.60,34.77 L201.65,34.75 L201.69,34.73 L201.73,34.71 L201.77,34.69 L201.81,34.67 L201.85,34.65 L201.90,34.63 L201.94,34.61 L201.98,34.59 L202.02,34.56 L202.06,34.54 L202.10,34.52 L202.15,34.50 L202.19,34.48 L202.23,34.46 L202.27,34.44 L202.31,34.41 L202.35,34.39 L202.39,34.37 L202.44,34.35 L202.48,34.32 L202.52,34.30 L202.56,34.28 L202.60,34.25 L202.64,34.23 L202.69,34.21 L202.73,34.18 L202.77,34.16 L202.81,34.13 L202.85,34.11 L202.89,34.08 L202.94,34.06 L202.98,34.03 L203.02,34.01 L203.06,33.98 L203.10,33.96 L203.14,33.93 L203.18,33.91 L203.23,33.88 L203.27,33.85 L203.31,33.83 L203.35,33.80 L203.39,33.78 L203.43,33.75 L203.48,33.72 L203.52,33.69 L203.56,33.67 L203.60,33.64 L203.64,33.61 L203.68,33.58 L203.73,33.56 L203.77,33.53 L203.81,33.50 L203.85,33.47 L203.89,33.44 L203.93,33.41 L203.98,33.38 L204.02,33.35 L204.06,33.33 L204.10,33.30 L204.14,33.27 L204.18,33.24 L204.22,33.21 L204.27,33.18 L204.31,33.15 L204.35,33.11 L204.39,33.08 L204.43,33.05 L204.47,33.02 L204.52,32.99 L204.56,32.96 L204.60,32.93 L204.64,32.90 L204.68,32.86 L204.72,32.83 L204.77,32.80 L204.81,32.77 L204.85,32.73 L204.89,32.70 L204.93,32.67 L204.97,32.64 L205.01,32.60 L205.06,32.57 L205.10,32.53 L205.14,32.50 L205.18,32.47 L205.22,32.43 L205.26,32.40 L205.31,32.36 L205.35,32.33 L205.39,32.29 L205.43,32.26 L205.47,32.22 L205.51,32.19 L205.56,32.15 L205.60,32.12 L205.64,32.08 L205.68,32.05 L205.72,32.01 L205.76,31.97 L205.80,31.94 L205.85,31.90 L205.89,31.86 L205.93,31.83 L205.97,31.79 L206.01,31.75 L206.05,31.71 L206.10,31.68 L206.14,31.64 L206.18,31.60 L206.22,31.56 L206.26,31.52 L206.30,31.48 L206.35,31.45 L206.39,31.41 L206.43,31.37 L206.47,31.33 L206.51,31.29 L206.55,31.25 L206.59,31.21 L206.64,31.17 L206.68,31.13 L206.72,31.09 L206.76,31.05 L206.80,31.01 L206.84,30.97 L206.89,30.92 L206.93,30.88 L206.97,30.84 L207.01,30.80 L207.05,30.76 L207.09,30.72 L207.14,30.68 L207.18,30.63 L207.22,30.59 L207.26,30.55 L207.30,30.51 L207.34,30.46 L207.38,30.42 L207.43,30.38 L207.47,30.33 L207.51,30.29 L207.55,30.25 L207.59,30.20 L207.63,30.16 L207.68,30.11 L207.72,30.07 L207.76,30.02 L207.80,29.98 L207.84,29.93 L207.88,29.89 L207.93,29.84 L207.97,29.80 L208.01,29.75 L208.05,29.71 L208.09,29.66 L208.13,29.61 L208.17,29.57 L208.22,29.52 L208.26,29.47 L208.30,29.43 L208.34,29.38 L208.38,29.33 L208.42,29.29 L208.47,29.24 L208.51,29.19 L208.55,29.14 L208.59,29.10 L208.63,29.05 L208.67,29.00 L208.72,28.95 L208.76,28.90 L208.80,28.85 L208.84,28.80 L208.88,28.75 L208.92,28.70 L208.96,28.66 L209.01,28.61 L209.05,28.56 L209.09,28.51 L209.13,28.46 L209.17,28.40 L209.21,28.35 L209.26,28.30 L209.30,28.25 L209.34,28.20 L209.38,28.15 L209.42,28.10 L209.46,28.05 L209.51,27.99 L209.55,27.94 L209.59,27.89 L209.63,27.84 L209.67,27.79 L209.71,27.73 L209.75,27.68 L209.80,27.63 L209.84,27.57 L209.88,27.52 L209.92,27.47 L209.96,27.41 L210.00,27.36 L210.05,27.31 L210.09,27.25 L210.13,27.20 L210.17,27.14 L210.21,27.09 L210.25,27.03 L210.30,26.98 L210.34,26.92 L210.38,26.87 L210.42,26.81 L210.46,26.76 L210.50,26.70 L210.55,26.64 L210.59,26.59 L210.63,26.53 L210.67,26.47 L210.71,26.42 L210.75,26.36 L210.79,26.30 L210.84,26.25 L210.88,26.19 L210.92,26.13 L210.96,26.07 L211.00,26.02 L211.04,25.96 L211.09,25.90 L211.13,25.84 L211.17,25.78 L211.21,25.72 L211.25,25.66 L211.29,25.60 L211.34,25.55 L211.38,25.49 L211.42,25.43 L211.46,25.37 L211.50,25.31 L211.54,25.25 L211.58,25.19 L211.63,25.13 L211.67,25.06 L211.71,25.00 L211.75,24.94 L211.79,24.88 L211.83,24.82 L211.88,24.76 L211.92,24.70 L211.96,24.63 L212.00,24.57 L212.04,24.51 L212.08,24.45 L212.13,24.39 L212.17,24.32 L212.21,24.26 L212.25,24.20 L212.29,24.13 L212.33,24.07 L212.37,24.01 L212.42,23.94 L212.46,23.88 L212.50,23.81 L212.54,23.75 L212.58,23.69 L212.62,23.62 L212.67,23.56 L212.71,23.49 L212.75,23.43 L212.79,23.36 L212.83,23.30 L212.87,23.23 L212.92,23.16 L212.96,23.10 L213.00,23.03 L213.04,22.97 L213.08,22.90 L213.12,22.83 L213.16,22.77 L213.21,22.70 L213.25,22.63 L213.29,22.56 L213.33,22.50 L213.37,22.43 L213.41,22.36 L213.46,22.29 L213.50,22.22 L213.54,22.16 L213.58,22.09 L213.62,22.02 L213.66,21.95 L213.71,21.88 L213.75,21.81 L213.79,21.74 L213.83,21.67 L213.87,21.60 L213.91,21.53 L213.95,21.46 L214.00,21.39 L214.04,21.32 L214.08,21.25 L214.12,21.18 L214.16,21.11 L214.20,21.04 L214.25,20.97 L214.29,20.89 L214.33,20.82 L214.37,20.75 L214.41,20.68 L214.45,20.61 L214.50,20.53 L214.54,20.46 L214.58,20.39 L214.62,20.32 L214.66,20.24 L214.70,20.17 L214.74,20.10 L214.79,20.02 L214.83,19.95 L214.87,19.88 L214.91,19.80 L214.95,19.73 L214.99,19.65 L215.04,19.58 L215.08,19.50 L215.12,19.43 L215.16,19.35 L215.20,19.28 L215.24,19.20 L215.29,19.13 L215.33,19.05 L215.37,18.98 L215.41,18.90 L215.45,18.82 L215.49,18.75 L215.53,18.67 L215.58,18.59 L215.62,18.52 L215.66,18.44 L215.70,18.36 L215.74,18.28 L215.78,18.21 L215.83,18.13 L215.87,18.05 L215.91,17.97 L215.95,17.89 L215.99,17.82 L216.03,17.74 L216.08,17.66 L216.12,17.58 L216.16,17.50 L216.20,17.42 L216.24,17.34 L216.28,17.26 L216.32,17.18 L216.37,17.10 L216.41,17.02 L216.45,16.94 L216.49,16.86 L216.53,16.78 L216.57,16.70 L216.62,16.62 L216.66,16.54 L216.70,16.46 L216.74,16.37 L216.78,16.29 L216.82,16.21 L216.87,16.13 L216.91,16.05 L216.95,15.96 L216.99,15.88 L217.03,15.80 L217.07,15.71 L217.11,15.63 L217.16,15.55 L217.20,15.46 L217.24,15.38 L217.28,15.30 L217.32,15.21 L217.36,15.13 L217.41,15.05 L217.45,14.96 L217.49,14.88 L217.53,14.79 L217.57,14.71 L217.61,14.62 L217.66,14.54 L217.70,14.45 L217.74,14.36 L217.78,14.28 L217.82,14.19 L217.86,14.11 L217.91,14.02 L217.95,13.93 L217.99,13.85 L218.03,13.76 L218.07,13.67 L218.11,13.59" style="stroke-width: 2; stroke: rgb(245, 166, 35); stroke-opacity: 1;"/></g></g><g class="test-xtl" style="font-family: &quot;Open Sans&quot;, verdana, arial, sans-serif;"/><g class="test-ytl" style="font-family: &quot;Open Sans&quot;, verdana, arial, sans-serif;"/><rect class="real" x="1" y="1" width="241.5" height="178" style="fill: transparent; stroke: none;"/></g></g></g><g/></g><g/><g/><g/></svg>
        <svg xmlns="http://www.w3.org/2000/svg" xmlns:xlink="http://www.w3.org/1999/xlink" width="256" height="192" style="width:256px;height:192px;font-family:Asana-Math, Asana;background:#FFF;"></svg>
</svg>
